<svg width="63" height="62" viewBox="0 0 63 62" fill="none" xmlns="http://www.w3.org/2000/svg">
<g clip-path="url(#clip0_16606_7822)">
<path d="M9.39104 22.9255C9.78079 21.8644 10.1383 20.7914 10.5603 19.7421C11.0484 18.5791 11.7848 18.1346 13.0064 18.2947C13.7038 18.3878 14.3984 18.5551 15.062 18.7738C20.1502 20.3918 25.2329 22.0579 30.3292 23.6538C35.2066 25.1818 40.0935 26.6506 44.9831 28.1455C47.3849 28.8771 49.7107 29.8819 52.187 30.3775C52.5726 30.4564 52.9446 30.6056 53.2937 30.784C54.7693 31.5141 54.9842 32.1575 54.6304 33.8842C54.1038 36.5133 53.1862 39.0114 52.3761 41.5489C50.9537 46.0192 49.6213 50.51 48.2459 54.985C48.1578 55.2913 48.0226 55.5929 47.9452 55.9032C47.5282 57.6694 46.0208 58.4203 44.4924 57.8339C44.2023 57.7273 43.8933 57.6389 43.5992 57.5434C39.329 56.1882 35.0806 54.7407 30.7846 53.489C27.4545 52.5292 24.1893 51.3927 20.8942 50.3706C16.2425 48.9254 11.5745 47.5245 6.91467 46.1015C6.15705 45.8734 5.40755 45.6232 4.68909 45.3217C3.5208 44.8173 3.06193 43.9086 3.27213 42.6059C3.32803 42.2877 3.42021 41.9704 3.52983 41.6719C4.23793 39.6113 4.83858 37.5111 5.47147 35.4228C6.71575 31.2384 8.12527 27.1021 9.45551 22.9492C9.43402 22.9413 9.40178 22.9294 9.38029 22.9215L9.39104 22.9255Z" fill="#A9C141"/>
<path d="M30.3494 32.8943C30.9555 30.7461 31.5278 28.7233 32.1107 26.7045C32.3169 25.9774 32.1111 25.4753 31.5395 25.0395C30.8552 24.5122 30.179 23.9628 29.5365 23.3881C28.1777 22.1739 26.9617 20.8366 26.1256 19.1622C25.5598 18.0135 25.5169 16.8687 26.0279 15.6766C26.9459 13.5425 29.5087 12.7401 31.3795 14.0544C31.7686 14.3228 32.1349 14.6204 32.4823 14.9362C33.5742 15.9143 33.6171 15.9301 34.1478 14.4189C34.577 13.1841 35.2411 12.0732 35.94 11.0002C36.5377 10.1033 37.3057 9.40687 38.3456 9.09886C39.1796 8.85325 39.8916 9.03951 40.499 9.67657C41.0086 10.215 41.2705 10.8631 41.4058 11.5902C41.6695 13.1297 41.444 14.6401 40.9982 16.1196C40.8071 16.7394 40.5301 17.3276 40.3283 17.9434C40.2593 18.1313 40.2504 18.4543 40.5959 18.4432C40.9925 18.4258 41.3798 18.3673 41.7738 18.3238C42.4152 18.2709 43.0305 18.4216 43.6174 18.6497C45.5485 19.4343 46.0455 21.7996 44.6099 23.4174C43.8995 24.2228 43.0083 24.7234 42.0341 25.1183C40.4584 25.7563 38.8058 25.9396 37.1468 26.0077C34.8694 26.0995 34.8961 25.595 34.2868 28.4823C34.0516 29.5876 33.6578 30.6597 33.3365 31.7335C33.262 31.9696 33.1916 32.1946 33.1278 32.4346C32.2534 35.9772 31.7873 35.8185 35.3076 36.5595C36.3018 36.7742 37.2593 37.1886 38.2413 37.4364C42.1252 38.4489 45.9142 39.7528 49.7074 41.0457C50.3668 41.2754 51.0777 41.3985 51.7696 41.5397C52.256 41.6431 52.6115 41.9368 52.9238 42.3149C53.271 42.7309 53.2967 43.192 53.0751 43.6626C52.8535 44.1331 52.4683 44.4182 51.9562 44.4182C51.651 44.419 51.3339 44.3527 51.0357 44.2683C49.3686 43.794 47.6838 43.4009 46.0614 42.805C41.8495 41.258 37.4871 40.2202 33.2332 38.8208C31.5582 38.2684 31.3008 38.5376 30.9206 40.104C30.4207 42.2286 29.8885 44.3413 29.3672 46.458C28.9585 48.1018 28.5499 49.7456 28.1049 51.3886C27.9571 51.9239 27.7474 52.4615 27.5029 52.9613C27.2543 53.4721 26.5721 53.7359 26.0805 53.5804C25.5996 53.4289 25.2044 52.8447 25.2744 52.2557C25.3392 51.6146 25.4295 50.9704 25.5735 50.3459C25.9891 48.6168 26.4261 46.8957 26.874 45.1785C27.4452 42.9923 28.0636 40.8109 28.6456 38.6286C28.8613 37.8423 28.7409 37.5723 28.0492 37.3308C26.2601 36.7238 24.4669 36.1279 22.6723 35.5691C21.5453 35.2179 20.4088 34.9259 19.2696 34.6078C15.9421 33.6741 12.6105 32.7515 9.28707 31.8068C8.53614 31.5937 7.77852 31.3656 7.03713 31.0933C6.74703 30.9868 6.4894 30.7918 6.24658 30.5897C5.86957 30.2881 5.71274 29.5531 5.89806 29.0818C6.07526 28.6325 6.75246 28.2164 7.27513 28.3206C7.72928 28.4121 8.18867 28.5558 8.6292 28.7176C12.2501 30.0475 16.0256 30.8572 19.7347 31.8808C21.5496 32.3844 23.3265 33.0245 25.1359 33.5762C26.0332 33.8556 26.9468 34.0908 27.8522 34.348C29.839 34.9147 29.7153 34.9195 30.3601 32.8983L30.3494 32.8943ZM32.3673 21.2917C32.2425 20.6688 32.099 19.9638 31.9407 19.2659C31.6548 18.0193 30.8408 17.1809 29.8922 16.4436C29.6172 16.2297 29.285 16.2707 29.0023 16.4429C28.7196 16.615 28.5522 16.9048 28.5608 17.2466C28.5588 17.4843 28.6039 17.7266 28.6827 17.9437C28.7615 18.1609 28.9062 18.3645 29.0401 18.5643C29.7807 19.7019 30.7059 20.6689 31.7672 21.4978C31.8625 21.5704 32.0521 21.5522 32.2013 21.5443C32.2376 21.5451 32.2742 21.4456 32.3673 21.2917ZM36.5085 16.0261C36.2957 16.7383 35.9883 17.6415 35.7562 18.5723C35.6516 19.0231 35.6907 19.5142 35.672 19.9966C35.6732 20.0597 35.7429 20.1355 35.7952 20.1924C35.806 20.1963 35.9096 20.1466 35.9366 20.1063C37.1041 18.1893 38.246 16.2754 38.7247 14.0427C38.8049 13.6582 38.7737 13.2453 38.7598 12.8513C38.7615 12.7139 38.6761 12.4818 38.5927 12.4763C38.4664 12.455 38.274 12.5474 38.1756 12.6493C37.3023 13.5328 37.052 14.7455 36.4896 16.0443L36.5085 16.0261ZM42.5766 21.5165C42.5358 21.1628 42.3357 21.0768 42.0991 21.0902C40.8004 21.1401 39.7075 21.692 38.7642 22.6001C38.6133 22.7453 38.6116 22.8827 38.77 23.0161C38.8263 23.0619 38.8893 23.1227 38.9512 23.1203C40.1276 23.0381 41.2494 22.7727 42.2325 22.055C42.4008 21.9286 42.4902 21.6855 42.5833 21.5315L42.5766 21.5165Z" fill="white"/>
<path d="M45.1114 32.8093C44.5849 32.6159 44.3338 31.9717 44.5783 31.4719C44.7391 31.1672 45.2465 30.9145 45.5554 31.0029C46.0081 31.1315 46.2753 31.8318 46.0656 32.3694C45.9438 32.7011 45.4445 32.9316 45.1114 32.8093Z" fill="white"/>
<path d="M39.6961 36.2643C39.3656 36.168 39.1047 35.6832 39.1835 35.3358C39.2759 34.9182 39.8481 34.5889 40.2752 34.7207C40.5909 34.8241 40.88 35.3317 40.7986 35.6531C40.6995 36.0557 40.1018 36.3882 39.6961 36.2643Z" fill="white"/>
<path d="M23.6051 25.2609C23.443 25.6027 23.0258 25.7757 22.6497 25.6375C22.1985 25.4718 21.9041 24.9121 22.0851 24.552C22.2661 24.192 22.9037 24.0498 23.2983 24.2701C23.6219 24.4516 23.7673 24.919 23.6051 25.2609Z" fill="white"/>
<path d="M33.0032 47.7814C32.8974 48.1691 32.5056 48.4391 32.1333 48.3902C31.6925 48.3286 31.4196 47.7768 31.605 47.3055C31.7389 46.9407 32.1979 46.7204 32.5458 46.8356C32.8789 46.958 33.1157 47.4087 33.0032 47.7814Z" fill="white"/>
<path d="M41.1808 50.3834C41.0451 50.8856 40.5456 51.2164 40.1602 51.0372C39.8675 50.9046 39.6402 50.3946 39.7257 50.0622C39.8411 49.6154 40.3769 49.2853 40.7826 49.4092C41.0915 49.4976 41.2799 49.9808 41.17 50.3795L41.1808 50.3834Z" fill="white"/>
<path d="M14.407 21.6195C14.7735 21.8169 14.8405 22.4311 14.537 22.859C14.3374 23.1369 14.052 23.283 13.7378 23.1425C13.3269 22.9665 13.1524 22.3128 13.3886 21.9354C13.5937 21.6093 14.1049 21.4459 14.407 21.6195Z" fill="white"/>
<path d="M49.1856 37.3542C49.0746 37.6898 48.5994 37.9543 48.2649 37.869C47.9411 37.7878 47.7635 37.3085 47.8989 36.9067C48.045 36.5088 48.4732 36.2395 48.7726 36.3871C49.0935 36.5426 49.2859 37.0147 49.1815 37.3653L49.1856 37.3542Z" fill="white"/>
<path d="M37.6446 30.8946C37.2967 30.7794 37.0613 30.2915 37.1697 29.9299C37.27 29.5904 37.8042 29.3977 38.16 29.5911C38.4661 29.7537 38.5971 30.0276 38.5546 30.3758C38.4999 30.7571 38.0207 31.0327 37.6513 30.9096L37.6446 30.8946Z" fill="white"/>
<path d="M11.0249 41.9157C10.8949 42.2695 10.4238 42.5229 10.123 42.4124C9.82212 42.3019 9.60296 41.7698 9.73144 41.4532C9.85324 41.1216 10.3351 40.8721 10.6548 40.9644C10.9745 41.0568 11.1629 41.5399 11.0249 41.9157Z" fill="white"/>
<path d="M24.8614 40.8642C24.62 41.1895 24.1924 41.2583 23.8784 41.0175C23.5644 40.7767 23.5076 40.367 23.7572 40.0196C23.9919 39.6793 24.4196 39.6106 24.7335 39.8513C25.0475 40.0921 25.1029 40.5389 24.8762 40.8571L24.8614 40.8642Z" fill="white"/>
<path d="M47.4461 46.6378C47.2773 46.9647 46.8184 47.185 46.4838 47.0998C46.0956 46.9948 45.9252 46.3301 46.1843 45.9234C46.4042 45.5903 46.8858 45.441 47.1731 45.6218C47.4925 45.8144 47.6231 46.2888 47.4461 46.6378Z" fill="white"/>
<path d="M26.8269 31.5628C26.6929 31.9275 26.2421 32.1257 25.8956 31.9734C25.5558 31.8361 25.3634 31.364 25.5 31.0252C25.6433 30.7015 26.1385 30.482 26.4501 30.5965C26.7725 30.7149 26.9675 31.213 26.8269 31.5628Z" fill="white"/>
<path d="M17.1173 28.1851C16.9444 28.523 16.4506 28.7054 16.1445 28.5428C15.8276 28.3763 15.6703 27.8418 15.8566 27.5339C16.0469 27.2149 16.5219 27.0506 16.8509 27.184C17.1651 27.3245 17.3024 27.814 17.1213 28.174L17.1173 28.1851Z" fill="white"/>
<path d="M16.6472 37.3331C17.0099 37.4412 17.2479 37.9552 17.0428 38.2813C16.8606 38.5781 16.5793 38.7132 16.2381 38.6129C15.8969 38.5127 15.7591 38.2237 15.7761 37.8787C15.7945 37.4966 16.259 37.2281 16.6472 37.3331Z" fill="white"/>
<path d="M36.5356 43.5088C36.9157 43.6359 37.1141 43.8593 37.0931 44.2153C37.068 44.5824 36.5362 44.9015 36.2046 44.742C35.8837 44.5865 35.8052 44.2691 35.8651 43.9399C35.9169 43.6328 36.2952 43.433 36.5356 43.5088Z" fill="white"/>
<path d="M19.0765 44.3964C18.9937 44.7548 18.5049 45.0896 18.2162 44.946C17.9383 44.8062 17.7735 44.5576 17.8053 44.2054C17.8452 43.8312 18.2855 43.5288 18.6387 43.6961C18.9099 43.8209 19.1379 44.03 19.0617 44.4035L19.0765 44.3964Z" fill="white"/>
</g>
<defs>
<clipPath id="clip0_16606_7822">
<rect width="49.3573" height="46.4539" fill="white" transform="translate(16.3809 0.541992) rotate(20.1682)"/>
</clipPath>
</defs>
</svg>
