<svg width="49" height="63" viewBox="0 0 49 63" fill="none" xmlns="http://www.w3.org/2000/svg">
<g clip-path="url(#clip0_16606_7534)">
<path d="M38.138 25.8448C39.1479 26.0441 40.1579 26.2435 41.1678 26.4429C41.5404 26.5165 41.9326 26.5939 42.2816 26.7354C42.8757 26.977 43.2988 27.672 43.1728 28.3104C42.8951 29.7169 42.5998 31.1095 42.2731 32.5064C42.0192 33.5859 41.6771 34.648 41.433 35.7295C41.0197 37.5134 40.6554 39.307 40.0774 41.048C39.9751 41.3594 39.9121 41.6786 39.8295 41.994C38.8554 45.999 37.8911 50.006 36.8974 54.0072C36.6456 55.025 36.327 56.0192 36.0458 57.0311C35.8176 57.8256 35.2466 58.1896 34.4835 58.2877C34.2324 58.321 33.9735 58.2906 33.7147 58.2602C31.2358 57.9159 28.7491 57.5597 26.2682 57.2254C23.2696 56.8303 20.2769 56.4571 17.2763 56.072C17.1489 56.0468 17.0175 56.0416 16.888 56.0264C14.0228 55.6266 11.1556 55.2367 8.29238 54.8269C7.5295 54.7177 6.76272 54.5767 6.01362 54.3977C5.16845 54.1894 4.71585 53.5922 4.67734 52.7037C4.66774 52.4427 4.69933 52.1795 4.73876 51.9281C5.22183 48.7589 5.71471 45.5916 6.17817 42.4185C6.71265 38.7308 7.19811 35.0335 7.7522 31.3497C8.14066 28.7629 8.59972 26.1796 9.03721 23.6025C9.08644 23.3531 9.16706 23.0995 9.26729 22.8499C9.4481 22.3985 9.7896 22.1135 10.2526 21.9873C10.8235 21.8305 11.3981 21.8611 11.9806 21.9553C15.538 22.5126 19.0935 23.0798 22.6569 23.6071C26.5968 24.188 30.5426 24.739 34.4942 25.3119C35.7023 25.4882 36.9044 25.6945 38.1203 25.8827C38.1243 25.8628 38.1282 25.8428 38.1321 25.8229L38.138 25.8448Z" fill="#DB0007"/>
<path d="M20.5252 30.119C20.8167 28.6427 21.0787 27.1605 21.4094 25.692C21.622 24.7701 21.4401 24.1435 20.6913 23.4982C17.5534 20.7644 14.9095 15.8896 14.1831 11.7769C13.8864 10.0808 13.9328 8.40063 14.4343 6.73778C14.8689 5.31046 15.6681 4.15203 16.8848 3.30403C18.3626 2.2692 20.1121 2.28296 21.5744 3.33859C22.5918 4.068 23.3363 5.0441 23.9258 6.13469C24.8384 7.80727 25.3999 9.60743 25.6906 11.4889C26.0067 13.5515 26.26 15.6225 26.1505 17.7254C26.1465 17.849 26.1954 17.9623 26.213 18.0798C26.3719 17.9971 26.5955 17.948 26.6937 17.812C26.9686 17.4517 27.1905 17.0498 27.4576 16.6776C28.834 14.7626 30.33 12.9645 32.0945 11.4059C32.9817 10.6275 33.9609 10.0021 35.0459 9.56339C35.6443 9.3188 36.2642 9.17172 36.9174 9.11413C39.4065 8.89044 41.1705 10.4824 41.1292 13.0134C41.1066 14.2629 40.8173 15.4702 40.1339 16.5582C39.6449 17.3323 39.0677 18.037 38.42 18.6864C36.1017 21.0374 33.3799 22.749 30.4407 24.1689C29.8109 24.4695 28.9733 24.5321 28.6099 25.1859C28.3074 25.7376 28.2422 26.4295 28.1357 27.0718C27.6509 30.0437 27.1974 33.0116 26.7419 35.9893C26.6591 36.5119 26.8432 36.8177 27.2806 36.8212C28.9654 36.8532 30.595 37.2682 32.2482 37.5117C34.5368 37.8392 36.8353 38.1686 39.1141 38.5459C41.3909 38.9333 41.7847 39.467 41.6789 41.8091C41.667 41.8689 41.6729 41.9426 41.6709 42.0044C41.4829 44.0401 40.5722 44.8345 38.6189 44.5111C36.5284 44.1605 34.4202 43.8997 32.3139 43.629C30.4665 43.3886 28.6112 43.1882 26.7559 42.9877C26.4362 42.9557 26.1067 42.9736 25.8007 43.0271C25.6418 43.058 25.4279 43.2126 25.3788 43.3584C25.2549 43.7278 25.1977 44.1207 25.1209 44.5097C24.3765 48.2285 23.6302 51.9572 22.876 55.674C22.8248 55.9334 22.7756 56.1828 22.7244 56.4421C22.555 57.3 22.0544 57.823 21.2168 58.0411C20.2084 58.298 19.1787 58.3538 18.1549 58.3279C17.1016 58.2961 16.4627 57.6621 16.4577 56.604C16.4467 55.6277 16.4789 54.6391 16.6287 53.6737C17.1532 50.2432 17.5286 46.7936 18.2492 43.4018C18.3004 43.1424 18.3516 42.8831 18.3714 42.6279C18.4168 42.243 18.2542 41.9829 17.8895 41.9213C16.9442 41.7554 15.9912 41.5258 15.0321 41.4815C13.2238 41.4043 11.4609 40.9941 9.69789 40.6875C8.55458 40.4929 7.40732 40.3182 6.28563 40.0656C4.96 39.7625 4.37423 38.911 4.41655 37.5099C4.44868 36.5731 4.7122 35.7027 5.11102 34.8694C5.40572 34.254 5.86681 34.0341 6.54534 34.1577C8.00045 34.4242 9.44375 34.7506 10.9126 34.9474C13.2641 35.2665 15.6312 35.5058 17.9925 35.7751C18.3122 35.8071 18.6319 35.7873 18.9575 35.7894C19.4792 35.7784 19.6676 35.6498 19.766 35.151C20.0359 33.7326 20.2743 32.3184 20.5246 30.8961C20.5758 30.6368 20.576 30.3777 20.5978 30.1126C20.5782 30.1087 20.5487 30.1029 20.5291 30.099L20.5252 30.119ZM23.8276 20.9771C24.1875 17.2964 24.0728 13.5946 23.1186 9.96541C22.8233 8.82928 22.3534 7.75194 21.7266 6.74726C21.3486 6.1337 20.8979 5.57836 20.2922 5.1893C19.4159 4.62248 18.6019 4.66905 17.8187 5.385C16.9139 6.20129 16.4207 7.25432 16.2943 8.46265C16.1579 9.77266 16.2588 11.0674 16.5775 12.3428C17.3341 15.3734 18.8756 17.9888 20.7723 20.405C21.2033 20.9565 21.7619 21.4295 22.3068 21.8687C22.8321 22.3041 23.6307 21.9228 23.7803 21.2165C23.7921 21.1566 23.8059 21.0868 23.8296 20.9671L23.8276 20.9771ZM38.9613 13.7772C38.9439 13.5043 38.9363 13.1815 38.9091 12.8549C38.8021 11.7974 38.316 11.3179 37.2922 11.3438C36.8509 11.3603 36.4036 11.4586 35.9779 11.6025C34.9204 11.9534 34.0373 12.6082 33.2149 13.3682C31.1971 15.2291 29.5204 17.3751 28.0808 19.7129C27.7391 20.2569 27.5052 20.874 27.2537 21.4773C27.1417 21.735 27.214 21.9877 27.4552 22.1597C27.9393 22.4936 28.402 22.7301 29.0339 22.3677C30.2642 21.6571 31.569 21.0856 32.7836 20.3512C34.4575 19.3551 35.9236 18.0692 37.3075 16.6842C38.1084 15.8785 38.5603 14.8795 38.9613 13.7772Z" fill="white"/>
</g>
<defs>
<clipPath id="clip0_16606_7534">
<rect width="37.5393" height="55.0576" fill="white" transform="translate(11.562 0.958008) rotate(11.1681)"/>
</clipPath>
</defs>
</svg>
