<svg width="27" height="31" viewBox="0 0 27 31" fill="none" xmlns="http://www.w3.org/2000/svg">
<g clip-path="url(#clip0_16606_7424)">
<path d="M14.3812 9.93989C14.331 9.88767 14.2597 9.82279 14.1981 9.74725C13.8932 9.35579 13.5162 9.0323 13.1042 8.76829C12.4668 8.35783 11.7644 8.09676 10.9845 8.16273C10.2863 8.22159 9.63244 8.4283 9.0599 8.84587C8.90106 8.96204 8.74579 9.08146 8.57966 9.18775C8.23407 9.40773 7.87494 9.32864 7.66461 8.98739C7.5944 8.87137 7.55413 8.73697 7.50392 8.60983C7.13391 7.68664 6.53664 6.95423 5.66931 6.44861C5.31115 6.24006 4.95004 6.04186 4.59187 5.83331C4.49016 5.77662 4.38163 5.72023 4.2962 5.64577C4.12164 5.49021 4.08216 5.29788 4.16271 5.11373C4.25878 4.89483 4.4249 4.78854 4.68682 4.83458C5.0762 4.90208 5.46745 4.93545 5.86104 4.94487C6.33681 4.95738 6.80377 4.92601 7.26177 4.77245C8.06672 4.50442 8.66968 4.00373 9.10213 3.286C9.19446 3.13537 9.25174 2.96591 9.38623 2.84062C9.61582 2.62589 9.89202 2.60997 10.1271 2.81729C10.1841 2.86919 10.2348 2.9316 10.2821 2.99417C10.6539 3.5052 11.1712 3.82915 11.7393 4.06906C12.513 4.39501 13.3172 4.56293 14.1623 4.4259C14.7324 4.33197 15.2672 4.13747 15.7666 3.8424C16.0362 3.68035 16.2983 3.50501 16.5715 3.34619C17.0412 3.07291 17.4156 3.26369 17.4025 3.80578C17.3826 4.64787 17.6419 5.39217 18.1303 6.06139C18.5166 6.58879 18.9978 7.02335 19.5571 7.36924C19.6907 7.45173 19.8307 7.52372 19.9709 7.59911C20.0794 7.65549 20.1552 7.74401 20.2179 7.84335C20.3766 8.1018 20.2369 8.41463 19.9357 8.48276C19.7935 8.51304 19.6656 8.48137 19.5307 8.44661C19.0327 8.32272 18.5266 8.24347 18.0125 8.21567C17.0836 8.16238 16.261 8.41759 15.5796 9.07508C15.4355 9.21442 15.323 9.37277 15.2247 9.54069C15.142 9.67726 15.052 9.80394 14.9195 9.89848C14.7605 10.0113 14.5896 10.0122 14.3845 9.93633L14.3812 9.93989Z" fill="#1F6437"/>
<path d="M22.5221 12.3906C22.6043 12.238 22.7221 12.1752 22.8663 12.1739C22.9948 12.1733 23.1075 12.2309 23.1627 12.3485C23.2323 12.4969 23.2919 12.6535 23.3358 12.8135C23.4447 13.19 23.5484 13.5693 23.6467 13.9462C23.8148 14.5891 24.1362 15.1414 24.611 15.6084C24.751 15.7458 24.8783 15.8941 25.0582 15.9852C25.1548 16.0357 25.224 16.1162 25.2653 16.2162C25.3272 16.3675 25.3206 16.5115 25.2083 16.6367C25.1384 16.7157 25.0522 16.7796 24.9796 16.8561C24.6462 17.1951 24.3907 17.5776 24.2809 18.0476C24.1445 18.6259 24.2576 19.1537 24.5967 19.6346C24.6667 19.7333 24.752 19.8209 24.8118 19.9253C24.9535 20.1592 24.8604 20.4194 24.6024 20.5147C24.5045 20.5531 24.3978 20.571 24.2968 20.5991C23.4569 20.8148 22.8561 21.3305 22.428 22.0683C22.2165 22.4357 22.0236 22.8102 21.9776 23.2407C21.9684 23.3273 21.9251 23.4129 21.8841 23.4931C21.8139 23.6217 21.6699 23.6856 21.5399 23.6523C21.3967 23.617 21.2959 23.5328 21.2604 23.3855C21.2307 23.251 21.2534 23.1167 21.2814 22.9822C21.3545 22.6263 21.3776 22.2673 21.3742 21.9044C21.3723 21.6302 21.3287 21.3631 21.2358 21.1061C21.0774 20.677 20.8184 20.3439 20.3508 20.2109C20.1622 20.1568 19.9757 20.0921 19.7942 20.0219C19.6822 19.98 19.5698 19.9302 19.4722 19.8615C19.2909 19.7365 19.2757 19.4602 19.4367 19.3093C19.5348 19.216 19.6437 19.1301 19.7556 19.0545C20.0609 18.8474 20.3086 18.5828 20.5154 18.286C20.8429 17.8167 20.9121 17.3172 20.6185 16.7976C20.4988 16.5862 20.3742 16.3828 20.1859 16.2216C20.1178 16.1646 20.0543 16.0943 20.0012 16.0235C19.8364 15.8011 19.8753 15.559 20.1011 15.3921C20.1849 15.3308 20.2824 15.282 20.3744 15.2308C20.7016 15.0436 21.0231 14.8461 21.3164 14.6056C21.673 14.3151 21.9453 13.958 22.1821 13.5685C22.3406 13.3053 22.4033 13.0099 22.4474 12.7101C22.463 12.5918 22.4627 12.469 22.5217 12.3828L22.5221 12.3906Z" fill="#1F6437"/>
<path d="M19.2184 12.8388C19.1098 12.7804 19.0014 12.7262 18.8968 12.6634C17.896 12.0881 17.3435 11.2138 17.1655 10.0904C17.0821 9.55796 17.0918 9.02555 17.1949 8.49313C17.3049 7.92663 17.5542 7.44247 17.9767 7.03914C19.065 5.98924 20.3633 5.55047 21.8628 5.71899C22.4209 5.78238 22.9757 5.86703 23.4687 6.17824C23.8833 6.44233 24.2658 6.74588 24.5833 7.11148C25.2092 7.83043 25.4425 8.67693 25.3497 9.62263C25.2021 11.1366 24.54 12.3318 23.1378 13.0033C21.8185 13.633 20.4912 13.6171 19.2184 12.8388Z" fill="#DB0007"/>
<path d="M19.0892 11.4806C19.0457 11.4572 19.0025 11.438 18.9631 11.4103C18.5713 11.1831 18.3567 10.8424 18.2859 10.4023C18.251 10.1928 18.2586 9.9856 18.2958 9.77703C18.3366 9.55564 18.4382 9.36527 18.6005 9.20593C19.0268 8.79398 19.5362 8.62314 20.1198 8.68959C20.3371 8.71353 20.5549 8.75011 20.7467 8.86808C20.9082 8.97054 21.0577 9.09043 21.1828 9.23253C21.4286 9.51272 21.52 9.84634 21.4816 10.2154C21.4238 10.8091 21.1652 11.2768 20.6176 11.538C20.1032 11.7851 19.5816 11.7791 19.0846 11.4723L19.0892 11.4806Z" fill="white"/>
</g>
<defs>
<clipPath id="clip0_16606_7424">
<rect width="24.9593" height="29.7135" fill="white" transform="translate(26.3677 29.8545) rotate(177.407)"/>
</clipPath>
</defs>
</svg>
