<svg width="18" height="24" viewBox="0 0 18 24" fill="none" xmlns="http://www.w3.org/2000/svg">
<g clip-path="url(#clip0_16606_7553)">
<path d="M3.58817 8.89916C4.91321 11.0471 6.23824 13.195 7.56327 15.3429C7.70342 15.5695 7.84579 15.8062 7.86969 16.0716C7.89524 16.3625 7.77241 16.6452 7.62709 16.9016C7.1379 17.7681 6.39358 18.4826 5.92996 19.3628C5.46373 20.2429 5.35099 21.4338 6.0653 22.1372C6.90045 22.957 8.32264 22.6674 9.38751 22.1684C12.5052 20.7068 14.8155 18.0323 17.0239 15.4353C17.1739 15.2604 17.3271 15.0729 17.3566 14.8452C17.3897 14.5896 17.2529 14.3428 17.1179 14.119C14.9387 10.4792 12.3542 7.07335 9.42419 3.97485C7.25066 5.09569 5.2479 6.53068 3.50154 8.222" fill="#1F6437"/>
<path d="M1.85525 6.43824C1.30971 6.23965 0.681984 6.7678 0.69719 7.33291C0.712396 7.89803 1.23987 8.36803 1.81278 8.46338C1.38668 8.97116 1.40041 9.78289 1.84608 10.2778C2.29175 10.7727 3.11406 10.8952 3.68801 10.5481C4.02212 11.3033 5.16417 11.4557 5.85231 10.9858C6.54315 10.5134 6.82405 9.63652 6.83424 8.81299C8.18245 8.96301 9.51612 7.7698 9.47996 6.4461C9.70663 6.59197 10.0054 6.55492 10.2665 6.48085C11.1737 6.22008 11.9767 5.46968 12.0532 4.54946C12.1296 3.62925 11.2681 2.67874 10.334 2.82152C10.1808 2.31986 9.89297 1.8589 9.50754 1.49597C9.40429 1.39799 9.28781 1.30459 9.14849 1.26373C8.81552 1.1698 8.46663 1.42874 8.34516 1.74457C8.22368 2.0604 8.27047 2.41056 8.31784 2.74547C7.92747 2.30607 7.22854 2.16273 6.6922 2.41206C6.15585 2.66138 5.82993 3.27975 5.93361 3.85074C5.71041 3.33627 5.0348 3.05903 4.50268 3.26529C3.97057 3.47154 3.67717 4.12673 3.87915 4.65058C3.48071 4.35582 2.85825 4.39846 2.50861 4.74637C2.15898 5.09429 2.12306 5.7007 2.43199 6.08617" fill="white"/>
<path d="M14.6154 10.6829C13.5302 11.5142 13.0822 12.8781 13.1163 14.189C13.1503 15.4999 13.6036 17.0377 14.8323 17.7275C15.1337 17.8965 15.4244 17.4523 15.123 17.2832C14.0372 16.6752 13.6654 15.26 13.6537 14.1178C13.642 12.9755 14.0255 11.7999 14.9817 11.068C15.2557 10.8596 14.8867 10.4744 14.6154 10.6829Z" fill="white"/>
<path d="M10.8167 7.86262C10.9044 7.82016 10.9648 7.80972 11.0144 7.80905C11.0666 7.80847 11.1052 7.82264 11.1382 7.84678C11.1686 7.87081 11.1908 7.90471 11.2019 7.95598C11.2131 8.00472 11.2135 8.06323 11.1891 8.1564C11.1014 8.19886 11.0409 8.21184 10.9914 8.20997C10.9392 8.21055 10.9007 8.19638 10.8677 8.17224C10.8373 8.14821 10.8152 8.11178 10.8039 8.06304C10.7927 8.0143 10.7923 7.95579 10.8167 7.86262Z" fill="white"/>
<path d="M12.8194 10.6462C12.9165 10.6295 12.9763 10.6343 13.0253 10.6489C13.0771 10.661 13.11 10.6877 13.1323 10.719C13.1546 10.7504 13.166 10.7915 13.1615 10.8422C13.1596 10.893 13.1418 10.9508 13.0917 11.0328C12.9946 11.0495 12.9348 11.0447 12.8857 11.0302C12.834 11.018 12.8011 10.9914 12.7788 10.96C12.7565 10.9287 12.745 10.8875 12.7496 10.8368C12.7515 10.7861 12.7693 10.7282 12.8193 10.6488L12.8194 10.6462Z" fill="white"/>
<path d="M10.1416 10.5455C10.2639 10.5552 10.3538 10.5917 10.433 10.6353C10.5122 10.679 10.5753 10.7348 10.6303 10.7979C10.6826 10.8634 10.727 10.9338 10.755 11.0188C10.7832 11.1012 10.8005 11.1959 10.7856 11.3149C10.6634 11.3052 10.5734 11.2713 10.4942 11.2251C10.415 11.1814 10.3519 11.1256 10.2969 11.0625C10.2446 10.997 10.2003 10.9266 10.1749 10.8392C10.1468 10.7542 10.1294 10.662 10.1443 10.5431L10.1416 10.5455Z" fill="white"/>
<path d="M7.54952 10.7275C7.65169 10.7161 7.71904 10.7288 7.77558 10.7513C7.83482 10.7713 7.87535 10.8033 7.90517 10.8426C7.93499 10.8819 7.95662 10.931 7.95963 10.9896C7.96524 11.0483 7.95493 11.114 7.91492 11.2066C7.81275 11.218 7.74541 11.2053 7.68887 11.1828C7.63223 11.1629 7.58909 11.1307 7.55937 11.0889C7.52964 11.0471 7.51053 11.0006 7.50752 10.942C7.50191 10.8833 7.51221 10.8176 7.55223 10.725L7.54952 10.7275Z" fill="white"/>
<path d="M9.83196 13.7071C9.96395 13.7349 10.0636 13.7895 10.15 13.8513C10.2391 13.9106 10.3093 13.9844 10.3716 14.0631C10.4311 14.1442 10.4827 14.23 10.5154 14.3304C10.5508 14.4284 10.5728 14.536 10.5627 14.6679C10.4307 14.64 10.3309 14.5879 10.2445 14.5262C10.1555 14.4669 10.0852 14.393 10.023 14.3144C9.96341 14.2333 9.91187 14.1475 9.87914 14.0471C9.8437 13.9491 9.82167 13.8414 9.83187 13.7096L9.83196 13.7071Z" fill="white"/>
<path d="M9.30455 17.2453C9.43374 17.2781 9.52561 17.3324 9.60406 17.3964C9.68521 17.458 9.75026 17.5316 9.80209 17.6099C9.85382 17.6906 9.89755 17.7762 9.92257 17.8738C9.95019 17.9715 9.96198 18.0736 9.94147 18.2025C9.81228 18.1697 9.72042 18.1154 9.64196 18.0514C9.56081 17.9898 9.49576 17.9162 9.44393 17.8379C9.3922 17.7572 9.34847 17.6716 9.32606 17.5741C9.29844 17.4764 9.28664 17.3743 9.30716 17.2453L9.30455 17.2453Z" fill="white"/>
<path d="M11.8791 17.8023C12.0218 17.8204 12.1372 17.8757 12.2364 17.9404C12.3383 18.0053 12.4239 18.0874 12.4961 18.1791C12.5683 18.2708 12.6245 18.3721 12.662 18.4854C12.6994 18.5987 12.7236 18.7192 12.7027 18.8582C12.569 18.8049 12.4698 18.7401 12.3813 18.6656C12.2927 18.5936 12.2174 18.5144 12.1527 18.4306C12.0882 18.3443 12.0289 18.2556 11.9833 18.1521C11.9349 18.0511 11.8947 17.9403 11.8792 17.7998L11.8791 17.8023Z" fill="white"/>
<path d="M7.85501 20.5398C7.95216 20.5231 8.01197 20.5279 8.06099 20.5425C8.1127 20.5546 8.14561 20.5812 8.1679 20.6126C8.1902 20.644 8.20179 20.6825 8.19717 20.7358C8.19526 20.7866 8.17742 20.8444 8.12737 20.9264C8.03013 20.9456 7.97041 20.9383 7.92139 20.9237C7.86968 20.9116 7.83677 20.8849 7.81448 20.8536C7.79218 20.8222 7.78069 20.7811 7.78521 20.7304C7.78713 20.6796 7.80496 20.6218 7.85491 20.5423L7.85501 20.5398Z" fill="white"/>
</g>
<defs>
<clipPath id="clip0_16606_7553">
<rect width="16.9362" height="21.4525" fill="white" transform="translate(0.937988 0.941406) rotate(2.16004)"/>
</clipPath>
</defs>
</svg>
