<svg width="22" height="25" viewBox="0 0 22 25" fill="none" xmlns="http://www.w3.org/2000/svg">
<g filter="url(#filter0_d_16606_7519)">
<path d="M16.6342 11.5602H14.9644V6.03936C14.9644 3.62949 13.0041 1.66916 10.5942 1.66916C8.18433 1.66916 6.22399 3.62949 6.22399 6.03936V11.5602H4.5542V6.03936C4.55548 2.70935 7.26482 0 10.5948 0C13.9248 0 16.6342 2.70935 16.6342 6.03936V11.5602Z" fill="#6F6F6F"/>
<path d="M18.5428 8.94043H2.64748C2.28989 8.94043 2 9.23032 2 9.58791V19.9157C2 20.2733 2.28989 20.5632 2.64748 20.5632H18.5428C18.9004 20.5632 19.1903 20.2733 19.1903 19.9157V9.58791C19.1903 9.23032 18.9004 8.94043 18.5428 8.94043Z" fill="#FFDF65"/>
<path d="M19.1902 19.9159V13.5879C13.9535 18.0181 6.40267 19.6828 2.12378 20.2939C2.24127 20.4561 2.43156 20.5634 2.64739 20.5634H18.5427C18.9003 20.5634 19.1902 20.2735 19.1902 19.9159Z" fill="#FFCE4E"/>
<path d="M12.0156 13.0018C12.0156 12.217 11.3796 11.5811 10.5948 11.5811C9.81006 11.5811 9.17407 12.217 9.17407 13.0018C9.17407 13.4692 9.40139 13.883 9.75004 14.1423L9.29795 17.3548H11.8917L11.4396 14.1423C11.7883 13.8836 12.0156 13.4699 12.0156 13.0018Z" fill="#292929"/>
<path d="M9.29785 17.3533C9.29785 17.3533 11.3246 16.5781 11.4734 14.3809L11.8916 17.3533H9.29785Z" fill="#5C5A5A"/>
</g>
<defs>
<filter id="filter0_d_16606_7519" x="0" y="0" width="21.1902" height="24.5635" filterUnits="userSpaceOnUse" color-interpolation-filters="sRGB">
<feFlood flood-opacity="0" result="BackgroundImageFix"/>
<feColorMatrix in="SourceAlpha" type="matrix" values="0 0 0 0 0 0 0 0 0 0 0 0 0 0 0 0 0 0 127 0" result="hardAlpha"/>
<feOffset dy="2"/>
<feGaussianBlur stdDeviation="1"/>
<feComposite in2="hardAlpha" operator="out"/>
<feColorMatrix type="matrix" values="0 0 0 0 0 0 0 0 0 0 0 0 0 0 0 0 0 0 0.3 0"/>
<feBlend mode="normal" in2="BackgroundImageFix" result="effect1_dropShadow_16606_7519"/>
<feBlend mode="normal" in="SourceGraphic" in2="effect1_dropShadow_16606_7519" result="shape"/>
</filter>
</defs>
</svg>
