<svg width="79" height="75" viewBox="0 0 79 75" fill="none" xmlns="http://www.w3.org/2000/svg">
<g clip-path="url(#clip0_16606_7481)">
<path d="M37.5212 19.4311C34.6498 26.1139 31.7784 32.7967 28.907 39.4794C28.6049 40.1852 28.2822 40.9131 27.6959 41.409C27.0522 41.951 26.182 42.1296 25.3364 42.2116C22.4825 42.493 19.5646 41.9208 16.7207 42.2852C13.8728 42.6432 10.8771 44.3499 10.4013 47.1996C9.85094 50.5272 12.8897 53.4018 15.8302 55.087C24.4412 60.0193 34.5759 61.0387 44.3587 61.9458C45.0197 62.0101 45.7156 62.0607 46.3016 61.753C46.9592 61.4078 47.3147 60.6765 47.6188 59.9874C52.5942 48.8191 56.3465 37.0822 58.8015 25.0396C52.558 21.7697 45.8563 19.4228 38.9748 18.1053" fill="#DB0007"/>
<path d="M40.4542 11.268C40.019 9.65242 37.7336 9.04665 36.4259 10.0185C35.1183 10.9904 34.8834 13.0129 35.6074 14.5221C33.704 14.3581 31.8123 15.735 31.3832 17.6058C30.9541 19.4766 32.0271 21.6191 33.7963 22.3979C32.5686 24.4366 34.1007 27.3827 36.3488 28.2274C38.6071 29.0744 41.1406 28.2845 43.0998 26.9445C44.979 30.3729 50.0022 31.5421 53.0644 29.2644C53.0957 30.0406 53.678 30.6839 54.2851 31.1769C56.4027 32.8847 59.5027 33.5359 61.7997 32.192C64.0967 30.8482 64.9116 27.242 63.0277 25.2754C63.9571 24.0831 64.5676 22.6407 64.7852 21.1306C64.8453 20.7247 64.8726 20.2953 64.7382 19.8991C64.4083 18.9582 63.2197 18.5642 62.2736 18.8008C61.3275 19.0374 60.5792 19.7277 59.8677 20.3941C60.2575 18.7456 59.4379 16.8598 57.9615 16.0077C56.4851 15.1557 54.4869 15.4111 53.3119 16.6014C54.1556 15.2229 53.6905 13.1702 52.3227 12.2568C50.9549 11.3434 48.9236 11.7366 48.0226 13.0806C48.0579 11.6527 46.9264 10.2552 45.5267 10.0068C44.127 9.75841 42.6373 10.6781 42.2398 12.0452" fill="white"/>
<path d="M51.5777 48.394C47.8195 47.2112 43.8607 48.4138 40.8252 50.6653C37.7897 52.9168 34.9135 56.533 35.3219 60.5734C35.4225 61.5643 36.9516 61.5141 36.851 60.5231C36.4868 56.9553 39.2088 53.7343 41.8834 51.8149C44.5581 49.8954 47.9661 48.8526 51.2762 49.8958C52.2213 50.1968 52.5188 48.6886 51.5777 48.394Z" fill="white"/>
<path d="M51.9394 34.762C52.1848 34.8985 52.3094 35.0237 52.3932 35.1395C52.481 35.2617 52.5115 35.3761 52.5092 35.494C52.5029 35.6055 52.4597 35.714 52.3572 35.8251C52.2608 35.9322 52.1234 36.0301 51.8633 36.1269C51.6179 35.9904 51.4871 35.8692 51.4096 35.7494C51.3218 35.6273 51.2913 35.5128 51.2935 35.395C51.2998 35.2835 51.3492 35.171 51.4456 35.0638C51.542 34.9567 51.6793 34.8588 51.9394 34.762Z" fill="white"/>
<path d="M48.6908 44.0965C48.891 44.298 48.9788 44.447 49.0256 44.5867C49.0827 44.7288 49.0743 44.8506 49.0372 44.9551C49.0002 45.0596 48.9222 45.1548 48.7952 45.2281C48.6722 45.3077 48.5063 45.3614 48.23 45.3792C48.0297 45.1777 47.942 45.0287 47.8951 44.889C47.8381 44.7469 47.8465 44.6251 47.8835 44.5206C47.9205 44.4161 47.9985 44.3209 48.1255 44.2476C48.2485 44.168 48.4144 44.1143 48.6846 44.1004L48.6908 44.0965Z" fill="white"/>
<path d="M44.4938 37.6136C44.6734 37.918 44.7363 38.1904 44.7645 38.4496C44.7927 38.7088 44.7657 38.9501 44.708 39.1843C44.64 39.4163 44.5475 39.6372 44.3936 39.8443C44.2459 40.0473 44.0511 40.245 43.7458 40.4069C43.5662 40.1025 43.4971 39.834 43.475 39.5708C43.4468 39.3116 43.4739 39.0704 43.5316 38.8361C43.5996 38.6042 43.6921 38.3832 43.8562 38.1785C44.0101 37.9715 44.1987 37.7778 44.504 37.6159L44.4938 37.6136Z" fill="white"/>
<path d="M39.7716 31.8013C39.9677 32.0234 40.0492 32.2033 40.0899 32.3739C40.1407 32.5468 40.1323 32.6955 40.0891 32.8308C40.0458 32.9662 39.9658 33.0986 39.8325 33.2027C39.7034 33.3132 39.5313 33.3978 39.2467 33.4567C39.0506 33.2347 38.969 33.0548 38.9284 32.8842C38.8816 32.7176 38.8859 32.5626 38.9353 32.4232C38.9847 32.2839 39.0627 32.1618 39.1959 32.0576C39.3251 31.9472 39.4972 31.8626 39.7818 31.8036L39.7716 31.8013Z" fill="white"/>
<path d="M36.5233 42.1207C36.6761 42.4782 36.7124 42.8038 36.7098 43.1097C36.7175 43.418 36.6597 43.706 36.5773 43.9831C36.4847 44.2578 36.3675 44.5216 36.1849 44.7651C36.0126 45.011 35.7952 45.2412 35.4673 45.4355C35.3144 45.0781 35.272 44.7565 35.2746 44.4505C35.267 44.1423 35.3248 43.8542 35.4071 43.5772C35.4997 43.3024 35.6169 43.0386 35.7995 42.7951C35.9719 42.5493 36.1893 42.3191 36.5171 42.1247L36.5233 42.1207Z" fill="white"/>
<path d="M27.3058 46.7361C27.4423 47.0952 27.4664 47.4018 27.4454 47.6928C27.4346 47.9862 27.3686 48.2616 27.2699 48.5135C27.1651 48.7693 27.0357 49.0141 26.847 49.2347C26.6624 49.4617 26.4409 49.6587 26.1029 49.8238C25.9664 49.4647 25.9424 49.1581 25.9634 48.8671C25.9741 48.5737 26.0401 48.2983 26.1388 48.0465C26.2436 47.7906 26.373 47.5458 26.5658 47.3315C26.7504 47.1046 26.9719 46.9075 27.3099 46.7424L27.3058 46.7361Z" fill="white"/>
<path d="M30.2556 53.7315C30.4494 54.0983 30.5102 54.4617 30.5218 54.8032C30.5376 55.1509 30.4858 55.4887 30.389 55.8109C30.2923 56.1331 30.1464 56.4334 29.9412 56.7094C29.736 56.9854 29.492 57.2419 29.1294 57.4229C29.0339 57.0194 29.0222 56.6779 29.0514 56.3457C29.0745 56.0175 29.1365 55.7089 29.2271 55.4176C29.3238 55.1223 29.4348 54.8356 29.6032 54.5566C29.7613 54.2752 29.9562 53.9969 30.2617 53.7275L30.2556 53.7315Z" fill="white"/>
<path d="M17.1351 48.7742C17.3353 48.9757 17.4231 49.1247 17.4699 49.2645C17.527 49.4065 17.5186 49.5283 17.4816 49.6328C17.4445 49.7373 17.3727 49.8286 17.2395 49.9058C17.1166 49.9854 16.9507 50.0391 16.6743 50.057C16.4679 49.8594 16.3863 49.7064 16.3395 49.5667C16.2824 49.4247 16.2908 49.3029 16.3278 49.1983C16.3649 49.0938 16.4428 48.9986 16.5699 48.9253C16.6928 48.8457 16.8587 48.792 17.1289 48.7782L17.1351 48.7742Z" fill="white"/>
</g>
<defs>
<clipPath id="clip0_16606_7481">
<rect width="48.8106" height="61.8267" fill="white" transform="translate(51.9004) rotate(57.0817)"/>
</clipPath>
</defs>
</svg>
