<svg width="16" height="18" viewBox="0 0 16 18" fill="none" xmlns="http://www.w3.org/2000/svg">
<g clip-path="url(#clip0_16606_7857)">
<path d="M15.8649 11.575C16.6737 7.30413 13.8089 3.19706 9.46626 2.40164C5.1236 1.60621 0.947535 4.42366 0.13875 8.69457C-0.670034 12.9655 2.19474 17.0726 6.53739 17.868C10.8801 18.6634 15.0561 15.846 15.8649 11.575Z" fill="#56AFD1"/>
<path d="M6.87976 16.1883C4.91021 15.9082 3.13282 15.3582 1.43091 14.6191C1.43777 14.6293 1.44806 14.6428 1.45493 14.6563C3.99406 18.2097 8.98313 19.0702 12.5997 16.573C12.6649 16.5258 12.7301 16.4785 12.7918 16.4313C10.8189 16.5123 8.84931 16.4718 6.87976 16.1883Z" fill="#DB0007"/>
<path d="M14.2362 5.21048C11.6182 1.99788 6.87615 1.29597 3.40371 3.69867C3.12234 3.89102 2.85814 4.10024 2.61108 4.32296C6.1247 5.74366 10.304 5.69304 14.2362 5.21385V5.21048Z" fill="#DB0007"/>
<path d="M0.59704 7.15723C0.226464 8.05486 0.0240189 9.00987 0 9.975C2.31267 11.3147 4.62192 12.371 7.39781 12.759C10.0845 13.1336 12.8261 13.0256 15.5265 12.7759C16.0206 11.4092 16.1235 9.92438 15.8147 8.49019C10.6541 9.1786 5.23954 9.23934 0.593609 7.1606L0.59704 7.15723Z" fill="#DB0007"/>
<path d="M1.17323 2.35126L3.13015 0.99914C3.78152 0.549079 4.68299 0.70155 5.14259 1.34492L5.96907 2.50188L1.64812 5.48742L0.821636 4.33045C0.364015 3.68984 0.519046 2.80326 1.17323 2.35126Z" fill="#FFF6DE" stroke="#FFF6DE" stroke-width="0.7" stroke-miterlimit="10"/>
<path d="M1.8147 2.09863C1.91434 2.17009 1.97713 2.26518 1.9895 2.37012C1.96394 2.39751 1.93926 2.42139 1.91626 2.4375C1.87334 2.45649 1.81132 2.47135 1.75708 2.48242L1.65649 2.42773L1.74438 2.30762C1.72592 2.29429 1.70845 2.27962 1.69067 2.2666L1.8147 2.09863ZM1.8147 2.09863L1.6897 2.2666C1.66397 2.24777 1.63976 2.22821 1.61548 2.20996L1.71606 2.05859C1.72201 2.05262 1.72718 2.04614 1.73267 2.04004C1.75921 2.05944 1.78837 2.07923 1.8147 2.09863ZM1.59985 2.39746L1.65161 2.4248L1.73755 2.30273C1.71964 2.29027 1.70256 2.28142 1.68677 2.27539M1.59985 2.39746L1.68677 2.27539M1.59985 2.39746L1.68677 2.27539M1.59985 2.39746L1.59595 2.39551L1.68481 2.27441L1.68677 2.27539M1.08325 1.33203C1.09678 1.34261 1.11114 1.35302 1.12622 1.36328H1.03442C1.03593 1.35115 1.03605 1.3386 1.03833 1.32617C1.03991 1.32482 1.0416 1.3236 1.04321 1.32227M1.08325 1.33203L1.04321 1.32227M1.08325 1.33203C1.07384 1.32468 1.0653 1.31696 1.05688 1.30957C1.05192 1.31339 1.04794 1.31835 1.04321 1.32227M1.08325 1.33203L1.04321 1.32227M1.38599 1.05957L1.38403 1.0625C1.37973 1.05779 1.37459 1.05384 1.37036 1.04883L1.38599 1.05957ZM1.38599 1.05957C1.39509 1.04524 1.40573 1.03093 1.41626 1.0166C1.41063 1.0092 1.40517 1.00133 1.39966 0.993164C1.37358 0.984485 1.34586 0.976953 1.31567 0.972656C1.32858 0.995563 1.34321 1.01743 1.35962 1.03809C1.36308 1.04244 1.36782 1.04566 1.37134 1.0498L1.38599 1.05957ZM1.42603 0.964844L1.43579 0.97168L1.44556 0.976562L1.44653 0.975586L1.4231 0.957031C1.42449 0.959478 1.42466 0.962533 1.42603 0.964844ZM1.42603 0.964844C1.42677 0.966112 1.42724 0.967523 1.42798 0.96875C1.42055 0.965732 1.41334 0.960757 1.40552 0.958008C1.40454 0.957667 1.40356 0.957366 1.40259 0.957031C1.39981 0.952161 1.39842 0.946483 1.39575 0.941406M1.42603 0.964844L1.39575 0.941406M1.39575 0.941406C1.39447 0.938965 1.39408 0.936083 1.39282 0.933594L1.36548 0.912109M1.39575 0.941406L1.35376 0.90918M1.37817 0.859375L1.47192 0.948242M1.37817 0.859375C1.38611 0.884819 1.39894 0.905974 1.40845 0.925781C1.42827 0.932992 1.44767 0.942089 1.46704 0.952148L1.47192 0.948242M1.37817 0.859375C1.37738 0.856838 1.37698 0.854153 1.37622 0.851562M1.37817 0.859375L1.35571 0.836914M1.47192 0.948242C1.48593 0.933484 1.50169 0.920434 1.51587 0.90625C1.50665 0.878626 1.49887 0.847974 1.49438 0.814453C1.49425 0.812337 1.49447 0.80987 1.49438 0.807617M1.47192 0.948242L1.37622 0.851562M1.35376 0.90918C1.3297 0.903478 1.30547 0.900497 1.28149 0.898438C1.2857 0.909991 1.29013 0.921428 1.29517 0.932617C1.32086 0.93549 1.34685 0.940878 1.37329 0.948242C1.36663 0.93575 1.35964 0.922969 1.35376 0.90918ZM1.35376 0.90918C1.35767 0.910106 1.36158 0.911083 1.36548 0.912109M1.35376 0.90918C1.35284 0.907021 1.3527 0.904534 1.35181 0.902344M1.35376 0.90918L1.28247 0.854492C1.28335 0.853429 1.28453 0.852621 1.2854 0.851562M1.3606 0.766602C1.40314 0.77395 1.44847 0.785022 1.49438 0.807617M1.3606 0.766602C1.36405 0.797339 1.36866 0.825869 1.37622 0.851562M1.3606 0.766602C1.35555 0.771883 1.35002 0.776786 1.34497 0.782227M1.3606 0.766602C1.35398 0.765459 1.34755 0.764523 1.34106 0.763672C1.34175 0.769934 1.34404 0.775948 1.34497 0.782227M1.49438 0.807617C1.50437 0.812533 1.51461 0.817446 1.52466 0.823242C1.54138 0.832906 1.55703 0.843841 1.57153 0.854492C1.57461 0.851714 1.57722 0.848457 1.58032 0.845703L1.50122 0.723633C1.49767 0.755583 1.49354 0.784847 1.49438 0.807617ZM1.37622 0.851562L1.35376 0.828125M1.36548 0.912109C1.37241 0.913933 1.37907 0.916799 1.38599 0.918945C1.37693 0.899449 1.36651 0.879656 1.35962 0.857422C1.35758 0.850829 1.35746 0.84352 1.35571 0.836914M1.36548 0.912109L1.35181 0.902344M1.35571 0.836914L1.32349 0.807617C1.33006 0.841939 1.33995 0.873403 1.35181 0.902344M1.35571 0.836914C1.35494 0.833996 1.35448 0.831045 1.35376 0.828125M1.35181 0.902344L1.2854 0.851562M1.2854 0.851562C1.298 0.836308 1.30986 0.820891 1.32251 0.806641L1.27173 0.757812C1.26575 0.757871 1.25994 0.758532 1.25415 0.758789C1.25527 0.776684 1.25565 0.795311 1.25903 0.814453C1.26018 0.820953 1.26154 0.827555 1.26294 0.833984L1.2854 0.851562ZM1.35376 0.828125L1.32739 0.800781C1.33313 0.794386 1.33923 0.788417 1.34497 0.782227M1.35376 0.828125C1.34999 0.812761 1.34724 0.797563 1.34497 0.782227M1.57544 0.708984L1.62329 0.806641L1.62231 0.805664L1.6106 0.791016L1.50806 0.662109C1.50998 0.650842 1.51362 0.639941 1.51587 0.628906M1.57544 0.708984L1.51587 0.628906M1.57544 0.708984L1.63892 0.795898C1.6458 0.7911 1.65257 0.786091 1.6604 0.782227M1.57544 0.708984L1.53052 0.619141M1.51587 0.628906C1.52065 0.625418 1.52575 0.622487 1.53052 0.619141M1.51587 0.628906C1.51771 0.619851 1.52067 0.611231 1.52271 0.602539L1.53052 0.619141M1.6604 0.782227L1.54028 0.611328C1.53686 0.613659 1.53394 0.616737 1.53052 0.619141M1.6604 0.782227L1.73657 0.738281M1.6604 0.782227L1.56665 0.592773C1.58704 0.579971 1.60806 0.569759 1.62817 0.55957C1.62908 0.560035 1.6302 0.560079 1.6311 0.560547M1.6311 0.560547L1.73462 0.734375L1.73657 0.738281M1.6311 0.560547C1.66039 0.575682 1.68916 0.593429 1.71704 0.611328L1.76392 0.728516M1.6311 0.560547L1.73657 0.738281M1.73657 0.738281C1.78199 0.711355 1.70035 0.74016 1.74438 0.731445L1.76392 0.728516M1.90356 0.59082L1.88403 0.691406V0.717773C1.91366 0.72418 1.94309 0.732464 1.96997 0.741211L2.0061 0.649414L2.03735 0.55957C2.03333 0.552179 2.03098 0.544586 2.02759 0.539062C2.02531 0.535847 2.02168 0.533066 2.0188 0.529297C1.98701 0.518691 1.95554 0.510657 1.92407 0.505859L1.90356 0.59082ZM1.90356 0.59082L1.91919 0.504883C1.91759 0.504654 1.91591 0.505097 1.91431 0.504883M1.90356 0.59082L1.88403 0.669922V0.658203L1.91431 0.504883M1.76392 0.728516L1.8186 0.714844M1.76392 0.728516L1.73755 0.624023C1.76486 0.642545 1.78929 0.662447 1.81079 0.681641L1.8186 0.714844M1.8186 0.714844C1.82155 0.715108 1.82598 0.714844 1.83228 0.714844H1.84595L1.84497 0.711914C1.83584 0.701604 1.82349 0.693139 1.81177 0.682617L1.8186 0.714844ZM1.91431 0.504883L1.92896 0.431641C1.91432 0.419438 1.89871 0.410108 1.88403 0.400391V0.500977C1.89413 0.501722 1.90412 0.503522 1.91431 0.504883ZM1.75513 2.48242C1.71565 2.49041 1.68015 2.49771 1.65845 2.49805C1.64499 2.4971 1.6284 2.49261 1.61157 2.49023L1.65552 2.42871L1.75513 2.48242ZM1.59497 2.39648L1.65063 2.42676L1.60669 2.48926C1.58376 2.48591 1.56103 2.48432 1.54907 2.48145C1.54458 2.48026 1.5406 2.4778 1.53638 2.47656L1.59497 2.39648ZM1.59399 2.39648L1.5354 2.47656C1.52324 2.47296 1.51267 2.46837 1.50317 2.46484C1.50226 2.46223 1.50011 2.45991 1.49927 2.45703C1.49358 2.4376 1.49203 2.41661 1.49341 2.39648L1.51978 2.35645L1.59399 2.39648ZM1.68384 2.27441L1.59497 2.39453L1.52075 2.35449L1.57349 2.27441C1.58009 2.27092 1.58575 2.26809 1.59106 2.2666C1.5973 2.26489 1.63401 2.25624 1.68384 2.27441ZM1.60669 2.20312C1.59218 2.19218 1.57771 2.18165 1.56372 2.1709L1.57446 2.15723C1.60502 2.14284 1.63657 2.12624 1.66626 2.10352C1.68273 2.0909 1.69631 2.07608 1.71021 2.0625L1.60669 2.20312ZM2.74927 1.50391L2.74536 1.49512C2.72653 1.45639 2.70676 1.4179 2.68579 1.38086L2.61841 1.27148C2.59629 1.24136 2.58046 1.22154 2.56177 1.2002L2.48462 1.12012C2.48288 1.11841 2.4805 1.11693 2.47876 1.11523C2.48166 1.11327 2.48457 1.11131 2.48755 1.10938C2.55951 1.06271 2.63301 1.04009 2.70044 1.03223C2.80018 1.14436 2.88278 1.27442 2.94653 1.41504L2.74927 1.50391ZM1.28638 1.22852H1.26099L1.24634 1.2207C1.26472 1.21632 1.28266 1.21312 1.30005 1.21094C1.29682 1.21729 1.29246 1.22307 1.28931 1.22949L1.28638 1.22852ZM1.25708 1.22852H1.21997C1.22758 1.22625 1.23493 1.22353 1.24243 1.22168L1.25708 1.22852ZM1.36646 1.09375C1.36046 1.10341 1.35469 1.1132 1.34888 1.12305L1.24048 1.09766C1.23816 1.09448 1.23598 1.09116 1.23364 1.08789C1.23525 1.08772 1.23691 1.08804 1.23853 1.08789C1.28597 1.0834 1.32911 1.08763 1.36646 1.09375ZM1.18481 1.0752C1.17912 1.07626 1.1738 1.07884 1.16821 1.08008L1.13208 1.07129C1.14051 1.05579 1.15091 1.04104 1.1604 1.02539C1.16873 1.04273 1.17683 1.06087 1.18481 1.0752ZM1.24146 0.967773L1.32153 1.01855C1.33637 1.03993 1.35154 1.05926 1.36743 1.07617C1.32636 1.06857 1.27728 1.06513 1.22192 1.07129C1.21044 1.05455 1.19835 1.03921 1.19165 1.02734C1.18753 1.01882 1.18388 1.00725 1.17896 0.995117C1.1844 0.986706 1.18981 0.978166 1.19556 0.969727C1.20632 0.968793 1.2175 0.967072 1.22876 0.966797C1.23302 0.966695 1.23726 0.967779 1.24146 0.967773ZM0.94165 1.02539L0.911377 1.01855C0.918974 1.01199 0.926523 1.00408 0.935791 0.99707C0.936714 1.00569 0.93986 1.01493 0.94165 1.02539ZM1.29224 0.970703C1.29407 0.974106 1.29521 0.978093 1.29712 0.981445C1.30406 0.993629 1.31207 1.00465 1.31958 1.01562L1.24731 0.967773C1.2628 0.96792 1.27768 0.969318 1.29224 0.970703ZM1.25903 0.898438C1.26279 0.909229 1.26826 0.91926 1.27271 0.929688C1.25622 0.928612 1.2399 0.929134 1.22388 0.929688C1.23098 0.920041 1.23785 0.910056 1.24536 0.900391L1.24634 0.898438C1.25058 0.898504 1.25478 0.898263 1.25903 0.898438ZM1.23853 0.814453L1.177 0.766602C1.19363 0.763319 1.21198 0.761507 1.23169 0.759766C1.23261 0.777516 1.23545 0.795674 1.23853 0.814453ZM1.31567 0.759766C1.31594 0.762654 1.31633 0.765656 1.31665 0.768555C1.31765 0.777571 1.3201 0.786229 1.32153 0.794922L1.28345 0.756836C1.29398 0.756978 1.30464 0.758901 1.31567 0.759766ZM1.05493 0.666016C1.05363 0.667589 1.053 0.668717 1.052 0.669922H1.05103C1.05146 0.669412 1.05267 0.668479 1.05396 0.666992C1.05403 0.666902 1.05838 0.661147 1.0647 0.654297C1.06093 0.658806 1.05733 0.663118 1.05493 0.666016ZM2.03931 0.563477L2.00903 0.641602L2.03735 0.560547C2.03791 0.561565 2.03875 0.562434 2.03931 0.563477ZM1.92407 0.273438C1.93378 0.277495 1.94421 0.283919 1.9563 0.290039L1.93481 0.397461C1.91811 0.38488 1.90074 0.374907 1.88403 0.365234V0.260742C1.89634 0.264704 1.91016 0.267624 1.92407 0.273438ZM1.35474 0.385742C1.3556 0.385156 1.35631 0.383713 1.35767 0.382812C1.36009 0.381387 1.3631 0.379807 1.36646 0.37793C1.3603 0.382114 1.35575 0.385031 1.35474 0.385742ZM1.95923 0.273438C1.94295 0.265953 1.92759 0.2598 1.91333 0.254883C1.91948 0.253937 1.92434 0.252409 1.92798 0.251953C1.9404 0.250402 1.95291 0.252536 1.96411 0.251953L1.95923 0.273438Z" fill="#FFF6DE" stroke="#FFF6DE"/>
<path d="M4.20683 7.17698C4.89308 7.17698 4.89308 6.13086 4.20683 6.13086C3.52058 6.13086 3.52058 7.17698 4.20683 7.17698Z" fill="#FFBC0D"/>
<path d="M8.29325 7.34202C8.97951 7.34202 8.97951 6.2959 8.29325 6.2959C7.607 6.2959 7.607 7.34202 8.29325 7.34202Z" fill="#FFBC0D"/>
<path d="M12.3731 7.67014C13.0593 7.67014 13.0593 6.62402 12.3731 6.62402C11.6868 6.62402 11.6868 7.67014 12.3731 7.67014Z" fill="#FFBC0D"/>
<path d="M3.72978 14.0578C4.41603 14.0578 4.41603 13.0117 3.72978 13.0117C3.04352 13.0117 3.04352 14.0578 3.72978 14.0578Z" fill="#FFBC0D"/>
<path d="M7.63456 14.8742C8.32082 14.8742 8.32082 13.8281 7.63456 13.8281C6.94831 13.8281 6.94831 14.8742 7.63456 14.8742Z" fill="#FFBC0D"/>
<path d="M11.2957 15.2795C11.9819 15.2795 11.9819 14.2334 11.2957 14.2334C10.6094 14.2334 10.6094 15.2795 11.2957 15.2795Z" fill="#FFBC0D"/>
</g>
<defs>
<clipPath id="clip0_16606_7857">
<rect width="16" height="18" fill="white"/>
</clipPath>
</defs>
</svg>
