<svg width="23" height="26" viewBox="0 0 23 26" fill="none" xmlns="http://www.w3.org/2000/svg">
<g clip-path="url(#clip0_16606_7510)">
<path d="M3.11116 9.66439C3.7256 10.0266 4.5168 9.80152 4.91542 9.15386C4.95895 9.07891 5.00248 9.00396 5.03602 8.92332C5.1426 8.68992 5.21621 8.43523 5.30877 8.19897C5.42071 7.90471 5.52563 7.60902 5.63757 7.31475C5.66499 7.25109 5.69242 7.18744 5.71686 7.11953C5.84788 6.81822 6.08734 6.66294 6.40958 6.58285C6.47683 6.5674 6.54408 6.55195 6.61029 6.54358C7.20929 6.44702 7.77791 6.58117 8.31868 6.85542C8.42262 6.90942 8.53254 6.97191 8.63843 7.03724C9.01903 7.27155 9.37637 7.54121 9.68138 7.84759C9.89168 8.06176 10.0748 8.28862 10.2258 8.53807C10.4287 8.82727 10.5995 9.11357 10.7512 9.40691C10.9752 9.84621 11.1552 10.2911 11.3241 10.7374C11.6193 11.5265 11.8624 12.3268 12.0753 13.1356C12.2295 13.7065 12.3675 14.2886 12.4956 14.865C12.5014 14.899 12.5083 14.9259 12.5181 14.9571C12.8153 16.297 13.1154 17.6411 13.3464 18.9893C13.4522 19.594 13.547 20.2001 13.6157 20.8119C13.6858 21.3655 13.7378 21.9192 13.7707 22.4799C13.7907 22.8339 13.8458 23.195 13.9442 23.5321C14.1938 24.4103 14.9158 24.7288 15.6689 24.3211C16.1988 24.0319 16.5311 23.5894 16.6499 22.9794C16.688 22.794 16.7021 22.6001 16.7082 22.4118C16.7146 22.1725 16.6959 21.9318 16.6702 21.6897C16.6198 21.1983 16.5585 20.7084 16.4931 20.2212C16.3149 18.9312 16.0776 17.6509 15.8292 16.372C15.7269 15.8409 15.6217 15.3056 15.5194 14.7745C15.4805 14.5733 15.4445 14.3765 15.4015 14.1782C15.1157 12.786 14.7616 11.4163 14.3402 10.0621C14.2083 9.63426 14.0683 9.21211 13.9244 8.79278C13.8178 8.48678 13.7013 8.17509 13.5757 7.87614C13.3254 7.29663 13.0409 6.72838 12.696 6.20249C11.8473 4.90691 10.8081 3.77661 9.51776 2.9304C9.36295 2.82959 9.20412 2.73161 9.04126 2.63645C8.66156 2.42054 8.29051 2.26836 7.91113 2.17279C6.99519 1.94597 6.09332 2.06462 5.16051 2.5159C4.16134 3.00104 3.35069 3.65218 2.73543 4.49622C2.46872 4.86098 2.2399 5.26262 2.05194 5.7054C1.99098 5.84969 1.933 5.99823 1.89008 6.14256C1.6491 6.92076 1.66059 7.72493 2.05785 8.55671C2.29759 9.06117 2.66956 9.40306 3.11116 9.66439Z" fill="#DB0007"/>
<path d="M10.2277 8.54935C10.4306 8.83854 10.6014 9.12484 10.7531 9.41819C11.8047 9.23895 12.8718 9.32165 13.9593 9.87866C14.0802 9.93976 14.2042 10.0051 14.3241 10.0733C14.1922 9.6455 14.0522 9.22335 13.9082 8.80402C13.8017 8.49801 13.6852 8.18633 13.5596 7.88737C12.2997 7.49568 11.0404 7.54145 9.79171 7.83358C9.75458 7.84059 9.71342 7.85042 9.67928 7.86168C9.88958 8.07586 10.0727 8.30272 10.2237 8.55217L10.2277 8.54935Z" fill="white"/>
<path d="M6.61318 6.54786C7.21218 6.4513 7.7808 6.58545 8.32157 6.8597C8.28373 6.28342 8.32806 5.71296 8.49765 5.14982C8.74176 4.35038 9.08773 3.61909 9.51468 2.92618C9.35987 2.82537 9.20104 2.72738 9.03818 2.63222C8.65848 2.41632 8.28744 2.26414 7.90806 2.16857C7.4829 2.89829 7.12769 3.66779 6.87733 4.50969C6.68211 5.17331 6.60007 5.85271 6.61422 6.54079L6.61318 6.54786Z" fill="white"/>
<path d="M1.89289 6.147C2.82765 7.29975 3.88017 8.19223 5.03883 8.92776C5.14541 8.69437 5.21903 8.43967 5.31159 8.20341C5.42352 7.90915 5.52845 7.61346 5.64038 7.31919C5.07126 6.91888 4.53851 6.46768 4.0159 5.99667C3.51223 5.5441 3.09505 5.04356 2.73526 4.49641C2.46855 4.86117 2.23973 5.26281 2.05177 5.70558C1.99081 5.84988 1.93283 5.99842 1.88991 6.14275L1.89289 6.147Z" fill="white"/>
<path d="M12.516 14.9712C12.7573 15.024 13.0035 15.0925 13.2447 15.1708C14.1623 15.4599 15.015 15.8706 15.8201 16.3847C15.7178 15.8536 15.6126 15.3182 15.5104 14.7871C15.4714 14.586 15.4354 14.3892 15.3924 14.1909C14.3348 13.6764 13.227 13.3303 12.0733 13.1497C12.2274 13.7206 12.3655 14.3027 12.4935 14.8791C12.4993 14.9131 12.5062 14.94 12.516 14.9712Z" fill="white"/>
<path d="M13.6147 20.8186C14.6995 21.1491 15.7228 21.7003 16.7002 22.4171C16.7065 22.1779 16.6879 21.9372 16.6622 21.695C16.6118 21.2037 16.5504 20.7137 16.485 20.2266C15.4868 19.6513 14.4335 19.2543 13.3453 18.996C13.4512 19.6008 13.546 20.2069 13.6147 20.8186Z" fill="white"/>
</g>
<defs>
<clipPath id="clip0_16606_7510">
<rect width="10.1053" height="24.0001" fill="white" transform="matrix(-0.818666 0.574269 0.574269 0.818666 8.42798 0.109375)"/>
</clipPath>
</defs>
</svg>
