<svg width="24" height="54" viewBox="0 0 24 54" fill="none" xmlns="http://www.w3.org/2000/svg">
<g clip-path="url(#clip0_16606_7630)">
<path d="M1.08979 10.7833C1.73274 12.2419 3.46222 12.8652 5.0303 12.2095C5.20704 12.1302 5.38379 12.0509 5.54981 11.9483C6.0476 11.6637 6.51335 11.2974 6.98942 10.9893C7.57631 10.6011 8.15234 10.2013 8.73923 9.81315C8.87202 9.73338 9.00481 9.6536 9.13773 9.56222C9.76844 9.18619 10.4056 9.21661 11.0949 9.49144C11.2371 9.5511 11.3793 9.61076 11.5104 9.68191C12.7235 10.2878 13.5806 11.2727 14.2045 12.4757C14.3227 12.7092 14.4407 12.966 14.5477 13.2226C14.933 14.1442 15.2299 15.0997 15.384 16.0535C15.4864 16.7164 15.523 17.367 15.4717 18.0167C15.4628 18.8061 15.3995 19.5484 15.2923 20.2787C15.1261 21.3682 14.8726 22.4103 14.5971 23.4406C14.104 25.2579 13.5015 27.0275 12.8333 28.7731C12.3688 30.0102 11.8602 31.2468 11.3409 32.4601C11.3072 32.5293 11.2845 32.5871 11.2618 32.6565C10.0539 35.4759 8.84594 38.3068 7.50701 41.0551C6.91054 42.2907 6.29223 43.5144 5.61924 44.7143C5.02435 45.8106 4.39675 46.8833 3.72533 47.9439C3.30014 48.6125 2.92923 49.3398 2.66808 50.0799C1.97597 51.9994 2.87102 53.5189 4.76966 53.761C6.10864 53.9271 7.28882 53.5572 8.29973 52.605C8.6107 52.3182 8.88924 51.9847 9.14579 51.6509C9.46933 51.2249 9.74931 50.7637 10.0184 50.2907C10.5678 49.3332 11.0953 48.3639 11.6118 47.3944C12.9708 44.8206 14.2095 42.1873 15.4264 39.5423C15.9333 38.445 16.4404 37.3361 16.9474 36.2388C17.139 35.823 17.3304 35.4188 17.5109 35.0028C18.8076 32.1032 19.951 29.1554 20.9521 26.148C21.2706 25.1995 21.567 24.2508 21.8525 23.3019C22.0582 22.6076 22.2531 21.89 22.415 21.1835C22.7163 19.8053 22.941 18.4029 23.0008 16.9987C23.1498 13.5404 22.7377 10.1339 21.4991 6.91533C21.3496 6.53049 21.1891 6.14552 21.0176 5.76043C20.61 4.87342 20.135 4.11336 19.571 3.44518C18.2043 1.83909 16.4127 0.878383 14.1312 0.481065C11.685 0.0586671 9.36459 0.183389 7.14723 0.913028C6.18749 1.22728 5.24843 1.65788 4.32989 2.21642C4.03109 2.39881 3.73215 2.59282 3.46605 2.7988C2.01387 3.89702 0.986069 5.37156 0.622449 7.39932C0.39975 8.62753 0.629052 9.73313 1.08979 10.7833Z" fill="#DB0007"/>
<path d="M15.4601 18.0407C15.4512 18.8301 15.3879 19.5725 15.2807 20.3028C17.4231 21.3487 19.2521 22.8903 20.4995 25.3195C20.6394 25.5881 20.7791 25.8683 20.9078 26.1484C21.2263 25.1999 21.5227 24.2512 21.8082 23.3024C22.0139 22.6081 22.2088 21.8904 22.3707 21.184C20.5948 18.8302 18.2495 17.2711 15.6021 16.173C15.5256 16.1373 15.4381 16.1015 15.3614 16.0774C15.4638 16.7404 15.5004 17.391 15.4491 18.0406L15.4601 18.0407Z" fill="white"/>
<path d="M11.5099 9.69377C12.723 10.2996 13.5801 11.2846 14.204 12.4875C14.8868 11.3922 15.7111 10.4147 16.7533 9.61369C18.2388 8.48102 19.8204 7.60487 21.4989 6.90397C21.3494 6.51913 21.1889 6.13417 21.0174 5.74908C20.6097 4.86207 20.1347 4.10201 19.5708 3.43383C17.8475 4.20388 16.1994 5.13733 14.6471 6.33891C13.4274 7.28882 12.3926 8.41497 11.521 9.68229L11.5099 9.69377Z" fill="white"/>
<path d="M3.46545 2.81088C3.65885 6.1221 4.40537 9.11446 5.54922 11.9604C6.04701 11.6757 6.51276 11.3095 6.98883 11.0014C7.57572 10.6132 8.15175 10.2134 8.73864 9.82523C8.22768 8.35651 7.84912 6.84286 7.51478 5.30647C7.19077 3.82826 7.08629 2.37575 7.14677 0.913497C6.18704 1.22775 5.24797 1.65835 4.32944 2.21689C4.03063 2.39928 3.73169 2.59329 3.46559 2.79927L3.46545 2.81088Z" fill="white"/>
<path d="M11.2392 32.6795C11.6082 33.0901 11.9659 33.5353 12.3014 33.9919C13.5899 35.7132 14.602 37.5708 15.3929 39.5535C15.8999 38.4562 16.407 37.3473 16.914 36.25C17.1055 35.8342 17.2969 35.43 17.4775 35.0141C16.2287 32.7011 14.6695 30.6284 12.8108 28.7961C12.3462 30.0332 11.8376 31.2698 11.3183 32.483C11.2846 32.5523 11.262 32.6101 11.2392 32.6795Z" fill="white"/>
<path d="M5.60772 44.7264C7.14563 46.7408 8.28425 49.0758 9.12341 51.6513C9.44695 51.2253 9.72693 50.7641 9.99605 50.2911C10.5454 49.3336 11.0729 48.3643 11.5894 47.3948C10.5279 45.0491 9.13374 42.955 7.49548 41.0672C6.89902 42.3028 6.28071 43.5265 5.60772 44.7264Z" fill="white"/>
</g>
<defs>
<clipPath id="clip0_16606_7630">
<rect width="22.5843" height="53.6377" fill="white" transform="matrix(-0.999936 -0.0112975 -0.0112975 0.999936 23.1992 0.375)"/>
</clipPath>
</defs>
</svg>
