<svg width="57" height="55" viewBox="0 0 57 55" fill="none" xmlns="http://www.w3.org/2000/svg">
<path d="M37.8004 24.9241C37.8004 24.9241 42.3375 32.4935 41.2982 38.8448C40.0876 46.228 36.5674 43.8141 36.5674 43.8141C36.5674 43.8141 35.2598 52.624 28.5323 54.6095C23.6822 56.0437 22.1214 52.0578 22.1214 52.0578C22.1214 52.0578 18.6272 56.7365 11.6203 54.2929C5.5335 52.1695 6.65848 46.7979 6.65848 46.7979C6.65848 46.7979 4.85553 49.0703 2.52361 46.3621C-1.4697 41.7206 2.43794 34.8813 2.43794 34.8813C2.43794 34.8813 -0.653903 35.008 1.49921 28.6157C3.25746 23.3931 9.71307 17.5484 9.71307 17.5484C9.71307 17.5484 29.5679 16.9934 37.8004 24.9241Z" fill="#F3EFE9"/>
<path d="M34.7123 23.8478C34.7123 23.8478 34.8166 33.7156 30.2123 34.0955C27.2434 34.3414 25.7646 31.1192 21.0896 30.1059C16.1612 29.0368 16.2395 31.1564 12.9837 29.4764C11.49 28.7053 10.1489 26.2952 13.1551 18.8747C13.1551 18.8747 23.2948 16.4683 34.7123 23.8515V23.8478Z" fill="#FFCEC4"/>
<path d="M18.2137 28.6198C17.9306 29.8007 18.9625 31.0561 20.5159 31.4286C22.0692 31.8011 23.5593 31.1417 23.8387 29.9646C24.118 28.7875 23.0899 27.5284 21.5365 27.1559C19.9832 26.7834 18.4931 27.4427 18.2137 28.6198Z" fill="#DA8492"/>
<path d="M27.2361 25.6362C26.9567 25.1818 27.2025 24.1089 28.4914 24.4405C29.594 24.7236 30.5141 25.6884 30.6818 26.6495C30.7861 27.2492 30.2459 27.6329 29.9815 27.6031C29.486 27.5509 29.3407 27.2753 28.7335 26.791C28.063 26.262 27.4745 26.0311 27.2323 25.6362H27.2361Z" fill="white"/>
<path d="M19.0108 23.1362C19.4876 22.8941 19.8415 21.8511 18.5675 21.4562C17.4798 21.1172 16.1909 21.4562 15.5427 22.1863C15.1404 22.6408 15.3975 23.2517 15.6359 23.3672C16.0866 23.5833 16.3548 23.4231 17.1222 23.3337C17.9715 23.2331 18.5936 23.3448 19.0071 23.14L19.0108 23.1362Z" fill="white"/>
<path d="M10.175 12.0094C10.175 12.0094 15.7962 -1.66551 32.1383 0.219392C44.3305 1.62376 53.1479 13.9092 53.308 21.676C53.3453 23.4901 51.5237 22.8978 51.5237 22.8978C51.5237 22.8978 48.8044 17.5411 45.4443 17.5411C42.4941 17.5411 40.557 21.9368 40.557 21.9368C40.557 21.9368 34.8054 21.5754 21.8086 18.1595C8.81166 14.7436 10.1713 12.0056 10.1713 12.0056L10.175 12.0094Z" fill="#DB0007"/>
<path d="M40.9147 20.2527C42.3712 21.5117 41.3245 27.9338 39.6556 28.7645C38.7653 29.2078 36.3552 24.6297 23.0156 21.3516C12.4065 18.744 8.03318 19.787 7.67557 18.9712C7.32169 18.1554 8.09651 12.4299 10.1751 12.0053C17.2714 10.5599 33.6284 13.9386 40.9147 20.2489V20.2527Z" fill="white"/>
<path d="M49.1584 23.5092C49.6315 21.5312 51.617 20.3093 53.595 20.7824C55.573 21.2555 56.7949 23.241 56.3218 25.219C55.8487 27.197 53.8632 28.4189 51.8852 27.9458C49.9071 27.4727 48.6853 25.4872 49.1584 23.5092Z" fill="white"/>
<g style="mix-blend-mode:multiply" opacity="0.53">
<path d="M26.9119 32.8924C26.9119 32.9892 26.897 32.8924 26.9119 32.9892C27.9438 33.5853 28.8937 34.2036 30.2086 34.0956C31.0952 34.0211 31.8067 33.5964 32.3804 32.9594C32.3804 32.9185 32.3841 32.8775 32.3804 32.8328C32.3692 31.6296 31.1362 30.6611 29.6238 30.676C28.1114 30.6946 26.897 31.6817 26.9119 32.8924Z" fill="#DA8291"/>
</g>
<g style="mix-blend-mode:multiply" opacity="0.53">
<path d="M11.408 26.9176C11.408 26.9176 11.6464 28.9031 12.9837 29.4767C14.1869 30.1622 15.323 30.3149 16.1426 30.0839C16.4667 28.8211 15.9787 27.5993 14.6078 26.8431C12.9278 25.9193 11.408 26.9139 11.408 26.9176Z" fill="#DA8291"/>
</g>
<path d="M25.3549 51.0035C28.1673 52.1881 29.3817 47.9303 29.8287 45.8889C29.9069 45.5313 30.3577 45.4866 30.5179 45.807C30.7451 46.2652 31.0468 47.1406 31.7844 46.9357C32.3618 46.7755 32.8051 45.3749 32.9094 44.9167C33.0994 44.086 33.0956 43.2218 33.2186 42.3799C33.226 42.3352 33.2893 42.3277 33.3042 42.3687C33.9189 43.9146 33.6879 46.2391 32.3506 47.3715C31.4491 48.1352 30.7898 47.6286 30.2981 46.8835C29.5717 49.3086 27.6905 53.6819 25.1425 51.3425C24.9786 51.1898 25.1314 50.9067 25.3511 50.9998L25.3549 51.0035Z" fill="#E2DFDA"/>
<path d="M5.19087 41.4746C5.24302 41.6981 5.31379 41.9179 5.3734 42.1376C5.58573 42.9274 5.5373 43.0205 6.3829 43.3818C7.20242 43.732 7.42593 43.6165 8.00332 42.946C8.30878 42.5921 8.49131 42.1488 8.52856 41.6869C8.56209 41.2436 9.23633 41.3479 9.21025 41.7875C9.09105 43.6649 9.39651 45.5014 10.0298 47.2671C10.5066 48.5932 10.9275 49.938 12.3244 50.5229C12.4027 50.5564 12.3803 50.6756 12.2984 50.6868C10.8009 50.9028 10.1713 49.5171 9.69452 48.3437C9.04262 46.7456 8.60679 45.1289 8.50621 43.4452C7.9996 44.1008 7.26575 44.5739 6.46485 44.5068C5.00461 44.3802 4.62837 42.6554 4.796 41.4671C4.82953 41.2362 5.13499 41.2697 5.18342 41.4708L5.19087 41.4746Z" fill="#E2DFDA"/>
<path d="M5.2652 36.3973C5.34715 36.2781 5.56321 36.3079 5.60791 36.4495C5.73456 36.8481 5.63771 37.1982 5.54086 37.5931C5.47008 37.8837 5.41048 38.2711 5.1609 38.4648C5.146 38.476 5.12365 38.4722 5.11247 38.4573C4.92994 38.204 4.98582 37.8129 5.00072 37.5149C5.02307 37.1088 5.03424 36.7438 5.2652 36.4011V36.3973Z" fill="#E2DFDA"/>
<path d="M4.69903 34.3715C4.73628 34.2225 4.82568 34.1331 4.97468 34.1033C5.03428 34.0884 5.08644 34.0995 5.14231 34.1293C5.23171 34.1778 5.32857 34.2709 5.32857 34.3826C5.32857 34.8855 5.19446 35.7721 4.70647 36.0478C4.66922 36.0664 4.62825 36.0552 4.6208 36.0105C4.57982 35.7646 4.61335 35.5076 4.63197 35.2618C4.65432 34.9712 4.62452 34.6583 4.69903 34.3752V34.3715Z" fill="#E2DFDA"/>
<path d="M7.42574 22.6746C7.57847 22.5331 7.83923 22.7491 7.74238 22.9279C7.44809 23.4681 7.15009 24.0082 6.87815 24.5595C6.63975 25.0438 6.44977 25.5094 6.03255 25.8671C5.8761 26.0012 5.64514 25.8373 5.67122 25.651C5.8165 24.608 6.6621 23.3712 7.42947 22.6746H7.42574Z" fill="#E2DFDA"/>
<path d="M5.08636 27.4683C5.10871 27.4572 5.14224 27.4683 5.15714 27.487C5.44397 27.8818 5.11616 28.381 4.8703 28.7013C4.766 28.8354 4.5723 28.7274 4.58347 28.5747C4.60955 28.1798 4.68777 27.662 5.08636 27.4646V27.4683Z" fill="#E2DFDA"/>
<path d="M37.8898 30.437C37.9084 30.437 37.9308 30.4296 37.9494 30.4296C38.0351 30.4184 38.1319 30.4594 38.1804 30.5301C38.8546 31.5136 38.8732 33.0073 38.7578 34.1509C38.7317 34.4117 38.3592 34.434 38.2623 34.2105C37.9345 33.4357 37.9941 32.6236 37.9122 31.8004C37.8898 31.5843 37.5322 30.4966 37.8898 30.4407V30.437Z" fill="#E2DFDA"/>
<path d="M38.9292 36.4052C38.9552 36.3792 39.0037 36.3717 39.026 36.4052C39.2905 36.8038 39.2495 37.4148 39.283 37.8804C39.324 38.4578 39.2905 38.9681 39.0558 39.5008C38.9664 39.7057 38.6423 39.6647 38.62 39.4375C38.5641 38.8713 38.5678 38.3349 38.6014 37.7686C38.6274 37.3216 38.6014 36.7442 38.9292 36.4052Z" fill="#E2DFDA"/>
<path d="M36.396 35.4292C36.4221 35.3734 36.4966 35.392 36.5115 35.4479C36.7126 36.2897 36.7015 37.0906 36.5078 37.9325C36.4556 38.1523 36.1054 38.1821 36.0868 37.9288C36.0235 37.0608 36.0309 36.2376 36.3997 35.433L36.396 35.4292Z" fill="#E2DFDA"/>
<path d="M25.705 40.2717C25.8242 39.9178 25.9061 39.5267 26.0812 39.1989C26.1929 38.9903 26.5282 39.0089 26.558 39.2696C26.6437 40.0407 26.2525 41.0279 25.7161 41.568C25.6044 41.6798 25.3809 41.6165 25.4107 41.4339C25.4777 41.0353 25.5746 40.6554 25.705 40.2717Z" fill="#E2DFDA"/>
<path d="M24.6433 39.717C24.6917 39.6835 24.7476 39.7021 24.7736 39.7543C25.1275 40.4062 24.5203 41.3486 24.2559 41.9335C24.1664 42.1272 23.8498 42.0452 23.8871 41.8254C23.9951 41.1885 24.0398 40.1119 24.6433 39.7133V39.717Z" fill="#E2DFDA"/>
<path d="M19.5362 32.7432C19.5362 32.7432 19.5511 32.7581 19.5846 32.7917C19.6181 32.8252 19.6777 32.8699 19.7522 32.9295C19.9049 33.045 20.1396 33.1903 20.4414 33.3206C20.5941 33.3802 20.7617 33.4436 20.9442 33.492C21.1268 33.5367 21.3242 33.5814 21.5328 33.6075C21.7377 33.6335 21.9612 33.6522 22.1773 33.6596C22.3076 33.6671 22.4008 33.6596 22.5051 33.6559C22.6094 33.6447 22.7211 33.641 22.8254 33.6224C23.2538 33.5665 23.6561 33.4212 23.9988 33.2163C24.3453 33.0152 24.6284 32.7507 24.8444 32.4974C25.0605 32.2441 25.2169 32.002 25.3175 31.8269C25.4181 31.6555 25.4665 31.5512 25.4628 31.5587C25.4963 31.4357 25.623 31.3612 25.7496 31.3948C25.8763 31.4283 25.9471 31.5549 25.9135 31.6816C25.9135 31.689 25.8949 31.8231 25.8279 32.0467C25.7608 32.2664 25.6379 32.5793 25.4255 32.9183C25.2132 33.261 24.8966 33.6298 24.4682 33.9316C24.2559 34.0806 24.0137 34.2109 23.7604 34.3115C23.5034 34.4121 23.2352 34.4829 22.9632 34.5239C22.8254 34.5499 22.6913 34.5574 22.5535 34.5648C22.4119 34.5648 22.2667 34.5723 22.1512 34.5648C21.8867 34.5537 21.6334 34.5276 21.3875 34.4717C21.1417 34.4233 20.907 34.3562 20.6909 34.2705C20.4749 34.1849 20.2737 34.088 20.1024 33.98C19.7559 33.7639 19.5064 33.5181 19.3611 33.3281C19.2866 33.2312 19.2344 33.153 19.2009 33.0934C19.1674 33.0338 19.145 32.9928 19.1487 32.9966C19.0817 32.8885 19.1115 32.7432 19.2232 32.6762C19.3313 32.6091 19.4766 32.6389 19.5436 32.7507L19.5362 32.7432Z" fill="#292929"/>
<path d="M16.0495 24.8352C16.0495 24.8352 16.0495 24.9023 16.0533 25.0215C16.057 25.1407 16.0682 25.312 16.098 25.5057C16.1278 25.6994 16.1799 25.9192 16.2805 26.1055C16.3811 26.288 16.5226 26.4147 16.7126 26.4631C16.7983 26.4854 16.8169 26.4854 16.8653 26.4929C16.9138 26.4966 16.9585 26.4966 17.0032 26.4929C17.0926 26.478 17.1783 26.4482 17.2602 26.3923C17.4241 26.2843 17.5657 26.1129 17.6737 25.9527C17.7817 25.7888 17.8599 25.6398 17.9121 25.5355C17.9642 25.4312 17.9903 25.3716 17.9903 25.3716V25.3642C18.0313 25.2859 18.1244 25.2524 18.2027 25.2897C18.2623 25.3195 18.2958 25.3791 18.2921 25.4387C18.2921 25.4387 18.2883 25.5206 18.2623 25.651C18.2362 25.7814 18.1952 25.9676 18.0984 26.1837C18.0052 26.396 17.8637 26.6531 17.5917 26.8617C17.4576 26.966 17.2863 27.0516 17.1 27.0852C17.0069 27.1038 16.91 27.1075 16.8169 27.1001C16.7275 27.1001 16.6046 27.074 16.5524 27.0554C16.3699 27.0032 16.1985 26.9138 16.057 26.7872C15.9192 26.6605 15.8223 26.5041 15.7553 26.355C15.6286 26.0533 15.61 25.7702 15.6137 25.5393C15.6174 25.3083 15.651 25.1183 15.6808 24.9917C15.7106 24.865 15.7366 24.7868 15.7366 24.7868C15.7664 24.7048 15.8558 24.6601 15.9378 24.6899C16.0011 24.7123 16.0421 24.7719 16.0421 24.8352V24.8427L16.0495 24.8352Z" fill="#292929"/>
<path d="M28.2493 27.9303C28.2381 27.8408 28.2083 27.744 28.1822 27.6471C28.1561 27.5503 28.1003 27.4497 28.0518 27.3491C27.9922 27.256 27.9214 27.1554 27.8395 27.0735C27.7501 26.9952 27.6607 26.917 27.5564 26.8649C27.4558 26.8015 27.3478 26.7755 27.2472 26.7382C27.1466 26.7159 27.0423 26.6935 26.9492 26.6935C26.8561 26.6861 26.7704 26.6935 26.6884 26.701C26.532 26.7196 26.4053 26.7531 26.3197 26.7866C26.234 26.8164 26.1818 26.8462 26.1855 26.8425C26.1036 26.8649 26.0514 26.9468 26.0738 27.0325C26.0961 27.1145 26.1781 27.1666 26.2638 27.1443C26.2638 27.1443 26.3048 27.1443 26.3793 27.1517C26.4538 27.1517 26.5618 27.1666 26.681 27.1815C26.7406 27.1927 26.8076 27.2039 26.871 27.2225C26.938 27.2337 26.9976 27.2672 27.0647 27.2858C27.1243 27.3193 27.1913 27.3417 27.2435 27.3827C27.2696 27.3938 27.2882 27.4125 27.3105 27.4311C26.7704 27.3678 26.2451 27.8073 26.1148 28.4518C25.9769 29.126 26.3234 29.7667 26.8896 29.8822C27.4558 29.9977 28.022 29.5432 28.1599 28.869C28.171 28.8205 28.171 28.7758 28.1748 28.7274C28.1822 28.7125 28.1897 28.7013 28.1934 28.6864C28.1934 28.6864 28.2046 28.638 28.2195 28.5523C28.2306 28.4667 28.2642 28.3437 28.253 28.1873C28.253 28.1091 28.2455 28.0271 28.2381 27.9377L28.2493 27.9303Z" fill="#292929"/>
</svg>
