<svg width="23" height="22" viewBox="0 0 23 22" fill="none" xmlns="http://www.w3.org/2000/svg">
<g clip-path="url(#clip0_16606_7445)">
<path d="M3.87167 8.26869C4.00591 7.90321 4.12904 7.53365 4.27439 7.17225C4.44251 6.77169 4.69615 6.61857 5.11689 6.67373C5.35712 6.70579 5.59635 6.76342 5.82489 6.83872C7.57741 7.396 9.32804 7.96987 11.0833 8.51954C12.7633 9.04583 14.4464 9.55172 16.1305 10.0666C16.9578 10.3186 17.7589 10.6647 18.6118 10.8354C18.7446 10.8625 18.8727 10.9139 18.993 10.9754C19.5012 11.2268 19.5752 11.4485 19.4534 12.0432C19.272 12.9487 18.9559 13.8091 18.6769 14.6831C18.187 16.2228 17.7281 17.7695 17.2544 19.3109C17.224 19.4164 17.1774 19.5202 17.1508 19.6271C17.0072 20.2354 16.488 20.4941 15.9615 20.2921C15.8616 20.2554 15.7552 20.2249 15.6539 20.192C14.1831 19.7253 12.7198 19.2267 11.2402 18.7956C10.0932 18.465 8.96858 18.0736 7.83368 17.7215C6.2315 17.2238 4.62372 16.7413 3.01874 16.2511C2.75779 16.1726 2.49964 16.0864 2.25219 15.9825C1.84979 15.8088 1.69175 15.4959 1.76415 15.0472C1.7834 14.9376 1.81515 14.8283 1.85291 14.7255C2.09679 14.0157 2.30368 13.2924 2.52166 12.5731C2.95022 11.1319 3.4357 9.70721 3.89387 8.27684C3.88647 8.27412 3.87537 8.27005 3.86797 8.26733L3.87167 8.26869Z" fill="#DB0007"/>
<path d="M11.0905 11.7028C11.2993 10.9629 11.4964 10.2662 11.6972 9.57086C11.7681 9.32041 11.6973 9.14748 11.5004 8.99739C11.2647 8.81577 11.0318 8.62653 10.8105 8.42859C10.3425 8.01041 9.92367 7.54981 9.6357 6.97308C9.44081 6.57745 9.42604 6.18316 9.60206 5.77254C9.91824 5.03749 10.8009 4.76113 11.4453 5.21383C11.5793 5.30627 11.7055 5.40877 11.8251 5.51753C12.2012 5.85441 12.216 5.85985 12.3988 5.33937C12.5466 4.91406 12.7753 4.53144 13.0161 4.16187C13.2219 3.85295 13.4864 3.61308 13.8446 3.507C14.1319 3.4224 14.3771 3.48655 14.5863 3.70598C14.7618 3.89141 14.852 4.11466 14.8986 4.36509C14.9895 4.89534 14.9118 5.41554 14.7582 5.92514C14.6924 6.13861 14.597 6.3412 14.5275 6.55331C14.5037 6.61803 14.5007 6.72925 14.6197 6.72543C14.7563 6.71944 14.8897 6.6993 15.0254 6.68433C15.2463 6.66609 15.4582 6.71801 15.6603 6.79658C16.3255 7.06681 16.4967 7.88148 16.0022 8.4387C15.7575 8.71609 15.4506 8.88852 15.115 9.02451C14.5723 9.24428 14.0031 9.30742 13.4317 9.33086C12.6473 9.36248 12.6565 9.18872 12.4467 10.1832C12.3656 10.5639 12.23 10.9332 12.1193 11.303C12.0937 11.3843 12.0694 11.4618 12.0475 11.5445C11.7463 12.7646 11.5858 12.71 12.7982 12.9652C13.1407 13.0391 13.4704 13.1819 13.8087 13.2672C15.1464 13.616 16.4515 14.0651 17.7579 14.5104C17.985 14.5895 18.2299 14.6319 18.4682 14.6805C18.6357 14.7161 18.7582 14.8173 18.8657 14.9475C18.9853 15.0908 18.9942 15.2496 18.9179 15.4117C18.8415 15.5738 18.7089 15.6719 18.5325 15.6719C18.4274 15.6722 18.3181 15.6494 18.2154 15.6203C17.6412 15.4569 17.0609 15.3216 16.5021 15.1163C15.0514 14.5835 13.5489 14.226 12.0837 13.7441C11.5068 13.5538 11.4182 13.6465 11.2872 14.186C11.115 14.9178 10.9318 15.6455 10.7522 16.3745C10.6114 16.9407 10.4707 17.5068 10.3174 18.0727C10.2665 18.2571 10.1943 18.4423 10.1101 18.6144C10.0244 18.7904 9.78948 18.8812 9.62015 18.8277C9.45452 18.7755 9.31842 18.5743 9.34254 18.3714C9.36484 18.1506 9.39594 17.9287 9.44554 17.7136C9.58868 17.1181 9.73922 16.5253 9.89345 15.9338C10.0902 15.1808 10.3032 14.4295 10.5037 13.6779C10.5779 13.407 10.5365 13.314 10.2982 13.2308C9.68203 13.0218 9.06442 12.8165 8.44631 12.6241C8.05814 12.5031 7.66668 12.4025 7.27431 12.293C6.12823 11.9714 4.98074 11.6536 3.83605 11.3282C3.57741 11.2548 3.31646 11.1763 3.06111 11.0825C2.96119 11.0458 2.87246 10.9786 2.78882 10.909C2.65897 10.8052 2.60495 10.552 2.66878 10.3897C2.72982 10.2349 2.96306 10.0916 3.14308 10.1275C3.2995 10.159 3.45773 10.2085 3.60946 10.2642C4.85661 10.7223 6.15699 11.0012 7.4345 11.3537C8.0596 11.5272 8.67162 11.7476 9.29483 11.9377C9.60388 12.0339 9.91853 12.1149 10.2304 12.2035C10.9147 12.3987 10.8721 12.4003 11.0942 11.7042L11.0905 11.7028ZM11.7855 7.70653C11.7425 7.49199 11.6931 7.24916 11.6386 7.00879C11.5401 6.57943 11.2598 6.29067 10.933 6.03672C10.8383 5.96304 10.7239 5.97719 10.6265 6.03648C10.5291 6.09577 10.4715 6.19557 10.4744 6.31331C10.4738 6.39516 10.4893 6.47864 10.5164 6.55342C10.5436 6.6282 10.5934 6.69835 10.6395 6.76714C10.8946 7.15896 11.2133 7.49204 11.5788 7.77753C11.6116 7.80254 11.6769 7.79628 11.7283 7.79356C11.7408 7.79383 11.7534 7.75956 11.7855 7.70653ZM13.2118 5.89293C13.1386 6.13821 13.0327 6.44931 12.9527 6.76991C12.9167 6.92519 12.9302 7.09432 12.9238 7.26047C12.9242 7.28222 12.9482 7.30833 12.9662 7.3279C12.9699 7.32926 13.0056 7.31213 13.0149 7.29826C13.417 6.63799 13.8103 5.9788 13.9752 5.20978C14.0028 5.07735 13.992 4.93514 13.9873 4.79945C13.9879 4.75213 13.9584 4.67219 13.9297 4.67029C13.8862 4.66295 13.8199 4.69477 13.786 4.72985C13.4853 5.03416 13.3991 5.45185 13.2053 5.89919L13.2118 5.89293ZM15.3019 7.78397C15.2878 7.66215 15.2189 7.63252 15.1374 7.63715C14.6901 7.65432 14.3137 7.84443 13.9888 8.15718C13.9368 8.20722 13.9362 8.25453 13.9908 8.30048C14.0102 8.31625 14.0319 8.33719 14.0532 8.33637C14.4584 8.30805 14.8448 8.21665 15.1834 7.96944C15.2413 7.92592 15.2721 7.84217 15.3042 7.78914L15.3019 7.78397Z" fill="white"/>
<path d="M16.175 11.6729C15.9936 11.6063 15.9071 11.3844 15.9914 11.2123C16.0467 11.1073 16.2215 11.0203 16.3279 11.0508C16.4838 11.0951 16.5758 11.3363 16.5036 11.5214C16.4617 11.6357 16.2897 11.7151 16.175 11.6729Z" fill="#FFBC0D"/>
<path d="M14.3098 12.8632C14.196 12.8301 14.1061 12.6631 14.1333 12.5435C14.1651 12.3996 14.3622 12.2862 14.5093 12.3316C14.618 12.3672 14.7176 12.542 14.6895 12.6527C14.6554 12.7914 14.4495 12.9059 14.3098 12.8632Z" fill="#FFBC0D"/>
<path d="M8.76755 9.07372C8.7117 9.19147 8.56802 9.25103 8.43849 9.20346C8.28306 9.14637 8.18167 8.95358 8.24402 8.82958C8.30636 8.70557 8.52595 8.65661 8.66189 8.73246C8.77332 8.79499 8.8234 8.95597 8.76755 9.07372Z" fill="#FFBC0D"/>
<path d="M12.0045 16.8304C11.9681 16.9639 11.8331 17.0569 11.7049 17.04C11.5531 17.0188 11.4591 16.8288 11.5229 16.6664C11.5691 16.5408 11.7272 16.4649 11.847 16.5046C11.9617 16.5467 12.0433 16.702 12.0045 16.8304Z" fill="#FFBC0D"/>
<path d="M14.821 17.7262C14.7743 17.8992 14.6022 18.0131 14.4695 17.9514C14.3687 17.9057 14.2904 17.7301 14.3198 17.6156C14.3596 17.4617 14.5441 17.348 14.6838 17.3907C14.7902 17.4211 14.8551 17.5875 14.8173 17.7248L14.821 17.7262Z" fill="#FFBC0D"/>
<path d="M5.59942 7.81924C5.72566 7.88721 5.74875 8.09877 5.64421 8.24616C5.57545 8.34189 5.47717 8.3922 5.36895 8.34381C5.22742 8.28318 5.16731 8.05804 5.24866 7.92805C5.31931 7.81574 5.49539 7.75943 5.59942 7.81924Z" fill="#FFBC0D"/>
<path d="M17.5782 13.239C17.54 13.3546 17.3763 13.4457 17.2611 13.4163C17.1496 13.3883 17.0884 13.2233 17.1351 13.0849C17.1854 12.9478 17.3329 12.8551 17.436 12.9059C17.5465 12.9595 17.6128 13.1221 17.5768 13.2428L17.5782 13.239Z" fill="#FFBC0D"/>
<path d="M13.6031 11.0134C13.4833 10.9737 13.4022 10.8057 13.4395 10.6812C13.4741 10.5642 13.6581 10.4979 13.7806 10.5645C13.886 10.6205 13.9312 10.7148 13.9165 10.8347C13.8977 10.9661 13.7326 11.061 13.6054 11.0186L13.6031 11.0134Z" fill="#FFBC0D"/>
<path d="M4.43446 14.8103C4.38971 14.9322 4.22744 15.0195 4.12382 14.9814C4.0202 14.9434 3.94472 14.7601 3.98897 14.651C4.03092 14.5368 4.19689 14.4509 4.307 14.4827C4.41712 14.5145 4.482 14.6809 4.43446 14.8103Z" fill="#FFBC0D"/>
<path d="M9.20039 14.4476C9.11724 14.5596 8.96995 14.5833 8.8618 14.5004C8.75366 14.4175 8.7341 14.2763 8.82005 14.1567C8.9009 14.0395 9.04819 14.0158 9.15633 14.0987C9.26448 14.1816 9.28355 14.3356 9.20549 14.4451L9.20039 14.4476Z" fill="#FFBC0D"/>
<path d="M16.979 16.4365C16.9208 16.5491 16.7628 16.625 16.6475 16.5956C16.5138 16.5595 16.4551 16.3305 16.5444 16.1905C16.6201 16.0757 16.786 16.0243 16.8849 16.0866C16.995 16.1529 17.0399 16.3163 16.979 16.4365Z" fill="#FFBC0D"/>
<path d="M9.87723 11.2445C9.83108 11.3701 9.67581 11.4384 9.55648 11.3859C9.43946 11.3386 9.37318 11.176 9.42023 11.0593C9.46958 10.9478 9.64015 10.8722 9.74747 10.9116C9.8585 10.9524 9.92568 11.124 9.87723 11.2445Z" fill="#FFBC0D"/>
<path d="M6.53295 10.0802C6.4734 10.1966 6.30332 10.2594 6.19789 10.2034C6.08876 10.146 6.03458 9.96194 6.09873 9.85588C6.16428 9.74602 6.32786 9.68944 6.44119 9.73539C6.54942 9.78378 6.59669 9.95237 6.53435 10.0764L6.53295 10.0802Z" fill="#FFBC0D"/>
<path d="M6.37104 13.2311C6.49596 13.2683 6.57794 13.4453 6.50729 13.5576C6.44454 13.6599 6.34765 13.7064 6.23013 13.6719C6.11261 13.6373 6.06517 13.5378 6.07101 13.419C6.07735 13.2874 6.23732 13.1949 6.37104 13.2311Z" fill="#FFBC0D"/>
<path d="M13.2212 15.358C13.3521 15.4018 13.4205 15.4787 13.4132 15.6013C13.4046 15.7278 13.2214 15.8377 13.1072 15.7827C12.9967 15.7292 12.9696 15.6199 12.9903 15.5065C13.0081 15.4007 13.1384 15.3319 13.2212 15.358Z" fill="#FFBC0D"/>
<path d="M7.20767 15.6644C7.17912 15.7879 7.01077 15.9032 6.91134 15.8537C6.81562 15.8056 6.75888 15.7199 6.76982 15.5987C6.78357 15.4698 6.93522 15.3656 7.05686 15.4233C7.15028 15.4662 7.22881 15.5383 7.20257 15.6669L7.20767 15.6644Z" fill="#FFBC0D"/>
</g>
<defs>
<clipPath id="clip0_16606_7445">
<rect width="17" height="16" fill="white" transform="translate(6.2793 0.55957) rotate(20.1682)"/>
</clipPath>
</defs>
</svg>
