<svg width="32" height="60" viewBox="0 0 32 60" fill="none" xmlns="http://www.w3.org/2000/svg">
<g clip-path="url(#clip0_16606_7605)">
<path d="M16.2255 60C12.2224 59.8901 9.18553 59.0722 6.3369 57.5096C3.7518 56.0935 1.96984 54.0549 1.09141 51.3082C0.0749409 48.122 -0.401922 44.8992 0.426314 41.5788C1.38004 37.7945 3.2122 34.6083 6.58788 32.3743C7.32828 31.886 7.37847 31.6297 6.77612 31.1292C4.64279 29.3102 3.71416 26.9298 3.61377 24.3051C3.48827 20.472 4.60514 16.9928 8.01847 14.6978C11.3565 12.4638 15.0083 11.9878 18.7228 13.7578C21.9855 15.3204 23.8553 17.9328 24.3447 21.473C24.784 24.647 24.1189 27.4669 21.7973 29.8474C21.3204 30.3357 21.4083 30.6286 21.9981 30.8972C23.3659 31.5198 24.7338 32.1058 25.9761 32.9603C28.3479 34.5717 30.2302 36.5615 31.1965 39.2716C31.9746 41.4689 32.2255 43.6663 31.7863 46.0101C31.184 49.1475 30.042 52.004 27.9463 54.4455C24.7212 58.1932 20.3918 59.707 16.2381 60.0122L16.2255 60Z" fill="white"/>
<path d="M22.1365 16.5655C19.8275 16.6876 17.4431 16.0528 15.0086 15.8697C11.8337 15.6256 8.67138 15.2105 5.49648 14.8687C5.12001 14.8321 4.75608 14.7954 4.37961 14.7222C3.9404 14.6367 3.52628 14.1118 3.55138 13.7334C3.57648 13.3427 4.05334 12.7934 4.44236 12.7934C5.28314 12.7934 6.12393 12.83 6.96471 12.8667C7.66746 12.9033 7.98118 12.708 8.18197 12.0732C8.26981 11.8168 8.33256 11.5482 8.3953 11.2797C8.79687 9.41193 9.18589 7.53197 9.60001 5.66422C9.86354 4.5045 10.1773 3.35699 10.4533 2.20948C10.7294 1.11081 11.4949 0.524846 12.5867 0.280696C14.7451 -0.207605 16.8784 -0.0367001 18.9741 0.573676C19.7773 0.805619 20.1914 1.416 20.2792 2.19728C20.48 4.10165 20.6557 6.00603 20.8565 7.92261C21.0447 9.82698 21.258 11.7314 21.4588 13.6357C21.4965 14.0508 21.7475 14.2827 22.149 14.3682C23.0651 14.5513 23.9937 14.6978 24.8973 14.9297C25.2737 15.0274 25.4745 15.3936 25.4369 15.7843C25.4118 16.1749 25.1733 16.5167 24.7718 16.5411C23.931 16.6022 23.0902 16.5533 22.0988 16.5533L22.1365 16.5655Z" fill="#1F6437"/>
<path d="M15.2094 38.9664C15.247 37.8311 15.2847 36.9277 15.5984 36.0366C15.8996 35.1698 16.1255 34.2909 16.3639 33.3997C16.4643 33.0457 16.138 32.6795 15.7741 32.7527C14.0047 33.1068 12.2227 33.0946 10.4408 33.0213C9.48704 32.9847 8.57096 32.7772 7.83057 32.1546C7.5294 31.9104 7.41645 31.5564 7.5043 31.1658C7.59214 30.7629 8.18195 30.3967 8.58351 30.4577C8.67136 30.4699 8.7592 30.4944 8.84704 30.531C11.9467 31.6052 14.9459 30.946 17.92 29.9694C18.811 29.6765 19.6768 29.3102 20.5804 29.0905C21.6219 28.8463 22.2243 29.4811 21.898 30.4577C21.7474 30.9094 21.5467 31.2634 21.9733 31.6419C22.9521 32.5208 23.7176 33.5462 24.3325 34.6937C24.6337 35.2675 24.8721 35.8535 24.8596 36.5249C24.8345 37.6236 24.1318 38.4292 22.9898 38.5391C22.5255 38.5879 22.0486 38.5391 21.5843 38.5391C21.258 38.5391 21.0823 38.7955 21.0321 39.0518C20.8565 39.8575 20.8188 40.6632 20.5302 41.4567C19.7772 43.4954 17.0917 43.2756 16.138 42.0915C15.7239 41.5788 15.4102 41.0172 15.3223 40.3702C15.2596 39.8331 15.247 39.2716 15.2219 38.9542L15.2094 38.9664ZM18.7859 38.1607C18.7231 37.416 18.6604 36.6103 18.5725 35.8046C18.5725 35.6948 18.4094 35.5971 18.2965 35.5239C18.2714 35.5117 18.1208 35.5971 18.0831 35.6703C17.3302 37.1841 17.1796 38.7466 17.6816 40.358C17.7192 40.4679 17.9576 40.59 18.0957 40.59C18.2337 40.59 18.4345 40.4557 18.4972 40.3336C18.8486 39.6622 18.7482 38.9298 18.7859 38.1607ZM21.3208 34.2543C21.258 34.2787 21.1702 34.2787 21.1325 34.3275C21.0698 34.3886 21.007 34.4862 21.0196 34.5595C21.1451 35.1943 21.4463 35.7314 22.011 36.1098C22.0863 36.1586 22.1741 36.1831 22.2619 36.2197C22.3247 36.061 22.4753 35.8779 22.4251 35.768C22.1992 35.182 21.898 34.6327 21.3208 34.2787V34.2543Z" fill="#DB0007"/>
<path d="M11.1937 24.7931C9.06038 24.6222 6.9145 24.4513 4.78116 24.2682C4.51763 24.2438 4.24156 24.1217 4.00312 24.0118C3.57646 23.8165 3.46352 22.9009 3.81489 22.5835C3.95293 22.4615 4.07842 22.3028 4.22901 22.2295C6.21175 21.4238 8.25724 20.789 10.3655 20.3862C11.5074 20.1664 12.1349 20.6303 12.411 21.729C12.549 22.2539 12.6619 22.7911 12.7121 23.3404C12.7874 24.2804 12.1474 24.8786 11.1937 24.8053V24.7931Z" fill="#DB0007"/>
<path d="M15.2469 19.4831C15.7364 19.4709 16.0375 19.6296 16.163 20.0202C16.2885 20.4231 15.8242 20.9602 15.385 20.9236C14.9583 20.8869 14.745 20.5817 14.6697 20.2033C14.6069 19.8615 14.9458 19.5075 15.2469 19.4831Z" fill="#23221E"/>
<path d="M8.2196 19.4831C8.70901 19.4709 9.01019 19.6296 9.13568 20.0202C9.26117 20.4231 8.79685 20.9602 8.35764 20.9236C7.93097 20.8869 7.71764 20.5817 7.64234 20.2033C7.5796 19.8615 7.91842 19.5075 8.2196 19.4831Z" fill="#23221E"/>
</g>
<defs>
<clipPath id="clip0_16606_7605">
<rect width="32" height="60" fill="white"/>
</clipPath>
</defs>
</svg>
