<svg width="11" height="24" viewBox="0 0 11 24" fill="none" xmlns="http://www.w3.org/2000/svg">
<g clip-path="url(#clip0_16606_7582)">
<path d="M9.90757 4.98905C9.67642 5.64321 8.91578 5.98351 8.17627 5.77394C8.09017 5.75016 8.00894 5.71622 7.92772 5.68227C7.69413 5.58027 7.46508 5.44795 7.23627 5.33075C6.95665 5.18919 6.67695 5.04258 6.39229 4.9011C6.33131 4.87186 6.26529 4.8427 6.20431 4.81347C5.90461 4.67728 5.61288 4.7174 5.31786 4.86345C5.25284 4.89477 5.19286 4.92601 5.13801 4.96221C4.60886 5.2785 4.2635 5.7329 4.03052 6.27619C3.98187 6.38286 3.94339 6.49441 3.90499 6.611C3.76568 7.0267 3.67181 7.44669 3.63842 7.86567C3.61798 8.15337 3.6277 8.43552 3.67773 8.71701C3.70853 9.05427 3.76923 9.37087 3.84992 9.67705C3.96849 10.1389 4.12191 10.5749 4.29037 11.0057C4.59026 11.762 4.93021 12.5025 5.30512 13.2222C5.56572 13.7372 5.84631 14.2417 6.13194 14.7461C6.14748 14.7711 6.1631 14.8011 6.17864 14.826C6.83809 15.9847 7.49762 17.1484 8.21697 18.2708C8.53284 18.7747 8.86879 19.2733 9.21969 19.7615C9.53456 20.205 9.85934 20.6382 10.2092 21.066C10.4254 21.3346 10.6219 21.6288 10.7732 21.9389C11.1544 22.7341 10.8129 23.4204 9.95893 23.6059C9.35614 23.7369 8.80982 23.6249 8.30972 23.2602C8.1566 23.1468 8.01843 23.023 7.8901 22.884C7.72598 22.7153 7.58169 22.5261 7.43739 22.3369C7.14864 21.9485 6.86997 21.5599 6.60121 21.161C5.88312 20.1142 5.21493 19.0364 4.55665 17.9483C4.28201 17.4991 4.00729 17.0449 3.73266 16.5957C3.62902 16.426 3.53042 16.2563 3.42678 16.0866C2.72651 14.8983 2.08622 13.6789 1.51599 12.428C1.33307 12.0378 1.16016 11.6424 0.992199 11.2418C0.871436 10.9515 0.75563 10.6559 0.64982 10.3552C0.443658 9.77886 0.287645 9.18657 0.207064 8.58294C0.00107421 7.1042 0.0521213 5.6212 0.487124 4.18729C0.539725 4.01501 0.597366 3.84265 0.660046 3.6702C0.809771 3.2745 0.995528 2.92357 1.22731 2.6122C1.77447 1.86206 2.55277 1.37023 3.57179 1.10632C4.66608 0.821 5.72397 0.773224 6.75605 0.993067C7.20628 1.08643 7.64734 1.23541 8.08924 1.43478C8.23153 1.503 8.37382 1.57122 8.5062 1.64969C9.20873 2.06152 9.73274 2.65276 9.98382 3.50563C10.1335 4.02241 10.076 4.50733 9.90236 4.97905L9.90757 4.98905Z" fill="white"/>
<path d="M3.67269 8.71697C3.70349 9.05423 3.76419 9.37083 3.84488 9.67701C2.91622 10.2217 2.14705 10.9604 1.67621 12.0572C1.62277 12.1791 1.56942 12.306 1.52111 12.4328C1.3382 12.0426 1.16528 11.6472 0.997321 11.2467C0.876558 10.9563 0.760752 10.6608 0.654942 10.36C1.36283 9.26946 2.36846 8.50164 3.52837 7.91778C3.5634 7.90208 3.59835 7.88134 3.63338 7.86563C3.61294 8.15333 3.62266 8.43548 3.67269 8.71697Z" fill="#9D0005"/>
<path d="M5.13283 4.96254C4.60369 5.27883 4.25833 5.73323 4.02534 6.27652C3.67528 5.83868 3.26053 5.45233 2.75144 5.15324C2.03362 4.73158 1.27732 4.42146 0.492116 4.19249C0.544717 4.02021 0.602357 3.84785 0.665037 3.67541C0.814763 3.2797 1.00052 2.92877 1.2323 2.61741C2.04816 2.87108 2.83008 3.20598 3.57864 3.65738C4.16929 4.01057 4.68072 4.45077 5.13283 4.96254Z" fill="#9D0005"/>
<path d="M8.51133 1.65933C8.55521 3.09034 8.33509 4.40978 7.93261 5.67679C7.69902 5.57479 7.46996 5.44247 7.24116 5.32527C6.96154 5.1837 6.68184 5.0371 6.39718 4.89561C6.57288 4.24237 6.68282 3.57509 6.77251 2.9031C6.86262 2.25632 6.85218 1.62632 6.76623 1.00262C7.21646 1.09599 7.65752 1.24496 8.09942 1.44433C8.24171 1.51255 8.384 1.58078 8.51637 1.65924L8.51133 1.65933Z" fill="#9D0005"/>
<path d="M6.1735 14.8213C6.02043 15.0154 5.87761 15.2194 5.74496 15.4283C5.2287 16.2183 4.84449 17.0666 4.56166 17.9485C4.28703 17.4993 4.01231 17.0451 3.73768 16.5959C3.63404 16.4262 3.53544 16.2564 3.4318 16.0868C3.90348 15.0404 4.53289 14.0822 5.29997 13.2175C5.56057 13.7325 5.84117 14.237 6.1268 14.7414C6.14234 14.7664 6.15796 14.7964 6.1735 14.8213Z" fill="#9D0005"/>
<path d="M9.20954 19.7616C8.59483 20.6943 8.1686 21.745 7.89012 22.8889C7.726 22.7202 7.58171 22.5311 7.43741 22.3419C7.14866 21.9534 6.86999 21.5648 6.60123 21.166C6.98706 20.111 7.53583 19.1541 8.20682 18.2708C8.52269 18.7748 8.85864 19.2734 9.20954 19.7616Z" fill="#9D0005"/>
</g>
<defs>
<clipPath id="clip0_16606_7582">
<rect width="10.5703" height="22.8594" fill="white" transform="translate(10.9424 23.6348) rotate(179.051)"/>
</clipPath>
</defs>
</svg>
