<svg width="19" height="25" viewBox="0 0 19 25" fill="none" xmlns="http://www.w3.org/2000/svg">
<g clip-path="url(#clip0_16606_7967)">
<path d="M14.8806 9.94452C15.2842 10.0242 15.6877 10.1039 16.0913 10.1835C16.2401 10.2129 16.3969 10.2439 16.5363 10.3004C16.7737 10.397 16.9428 10.6747 16.8924 10.9298C16.7814 11.4918 16.6634 12.0482 16.5329 12.6064C16.4315 13.0377 16.2947 13.4621 16.1972 13.8943C16.0321 14.6071 15.8865 15.3238 15.6555 16.0194C15.6147 16.1439 15.5895 16.2714 15.5565 16.3974C15.1673 17.9978 14.782 19.5989 14.3849 21.1977C14.2843 21.6044 14.157 22.0017 14.0446 22.406C13.9534 22.7235 13.7252 22.8689 13.4203 22.9081C13.32 22.9214 13.2166 22.9093 13.1131 22.8971C12.1226 22.7596 11.129 22.6172 10.1377 22.4836C8.93948 22.3258 7.74364 22.1766 6.54467 22.0228C6.49374 22.0127 6.44123 22.0106 6.38951 22.0045C5.24462 21.8448 4.09895 21.689 2.95485 21.5252C2.65001 21.4816 2.34363 21.4253 2.0443 21.3537C1.70658 21.2705 1.52574 21.0319 1.51035 20.6768C1.50651 20.5726 1.51913 20.4674 1.53489 20.367C1.72792 19.1006 1.92486 17.835 2.11005 16.5671C2.32362 15.0935 2.5176 13.6162 2.739 12.1442C2.89422 11.1105 3.07766 10.0783 3.25247 9.04855C3.27214 8.9489 3.30436 8.84759 3.34441 8.74783C3.41665 8.56745 3.55311 8.45359 3.73811 8.40315C3.96622 8.34052 4.19584 8.35272 4.42858 8.39038C5.85007 8.61305 7.27077 8.8397 8.69462 9.0504C10.2689 9.28253 11.8456 9.5027 13.4246 9.73162C13.9073 9.80207 14.3877 9.88448 14.8735 9.95969C14.8751 9.95172 14.8767 9.94375 14.8783 9.93578L14.8806 9.94452Z" fill="white"/>
<path d="M7.84275 11.6524C7.95921 11.0625 8.06392 10.4702 8.19606 9.88342C8.28099 9.51506 8.20831 9.26466 7.90913 9.00682C6.65527 7.91447 5.59881 5.96658 5.30858 4.3232C5.19 3.64548 5.20856 2.97413 5.40894 2.30968C5.5826 1.73935 5.90195 1.27646 6.38813 0.937621C6.9786 0.524122 7.67767 0.529619 8.26199 0.951429C8.66851 1.24289 8.96601 1.63292 9.20156 2.0687C9.56624 2.73703 9.79059 3.45634 9.90676 4.20813C10.0331 5.03232 10.1343 5.85984 10.0905 6.70014C10.0889 6.74952 10.1085 6.79479 10.1155 6.84173C10.179 6.80871 10.2683 6.78909 10.3076 6.73471C10.4174 6.59075 10.5061 6.43019 10.6128 6.28146C11.1628 5.51625 11.7606 4.79774 12.4656 4.17496C12.8201 3.86396 13.2114 3.61405 13.6449 3.43874C13.8841 3.34101 14.1318 3.28224 14.3928 3.25923C15.3874 3.16985 16.0922 3.80595 16.0757 4.81729C16.0667 5.31659 15.9511 5.799 15.678 6.23375C15.4826 6.54303 15.252 6.82465 14.9932 7.08414C14.0668 8.02353 12.9793 8.70746 11.8048 9.27484C11.5531 9.39494 11.2185 9.41998 11.0733 9.6812C10.9524 9.90166 10.9263 10.1781 10.8838 10.4348C10.69 11.6223 10.5088 12.8082 10.3268 13.9981C10.2937 14.2069 10.3673 14.3291 10.5421 14.3304C11.2153 14.3433 11.8664 14.5091 12.527 14.6064C13.4415 14.7372 14.3599 14.8688 15.2705 15.0196C16.1803 15.1744 16.3376 15.3877 16.2954 16.3235C16.2906 16.3474 16.293 16.3769 16.2922 16.4016C16.217 17.215 15.8531 17.5324 15.0727 17.4032C14.2373 17.2631 13.3949 17.1589 12.5533 17.0507C11.8151 16.9547 11.0738 16.8746 10.3324 16.7945C10.2047 16.7817 10.073 16.7888 9.95074 16.8102C9.88725 16.8225 9.80178 16.8843 9.78214 16.9426C9.73264 17.0902 9.70979 17.2472 9.6791 17.4026C9.38166 18.8886 9.08344 20.3785 8.78208 21.8637C8.76163 21.9673 8.74195 22.067 8.72149 22.1706C8.65382 22.5134 8.4538 22.7224 8.11908 22.8095C7.71617 22.9122 7.3047 22.9345 6.8956 22.9241C6.47476 22.9114 6.21947 22.6581 6.21745 22.2353C6.21306 21.8452 6.22592 21.4501 6.28579 21.0644C6.49536 19.6936 6.64537 18.3152 6.9333 16.9599C6.95376 16.8563 6.97422 16.7527 6.98214 16.6507C7.00029 16.4969 6.93532 16.393 6.78957 16.3683C6.41187 16.3021 6.03105 16.2103 5.64783 16.1926C4.92526 16.1618 4.22083 15.9979 3.51636 15.8753C3.05951 15.7976 2.60109 15.7278 2.15289 15.6269C1.62319 15.5057 1.38913 15.1655 1.40604 14.6056C1.41887 14.2313 1.52417 13.8835 1.68353 13.5506C1.80129 13.3046 1.98553 13.2168 2.25666 13.2662C2.8381 13.3727 3.41481 13.5031 4.00175 13.5817C4.94133 13.7092 5.88721 13.8049 6.83072 13.9124C6.95846 13.9252 7.08621 13.9173 7.21631 13.9182C7.42478 13.9138 7.50006 13.8624 7.5394 13.6631C7.64723 13.0963 7.74251 12.5312 7.8425 11.9629C7.86296 11.8593 7.86304 11.7558 7.87175 11.6498C7.86391 11.6483 7.85216 11.6459 7.84432 11.6444L7.84275 11.6524ZM9.16233 7.99945C9.30614 6.52872 9.2603 5.04954 8.87901 3.59938C8.76103 3.1454 8.57328 2.71492 8.32281 2.31347C8.17175 2.0683 7.99167 1.8464 7.74963 1.69094C7.39949 1.46445 7.07423 1.48306 6.76129 1.76914C6.39974 2.09531 6.20269 2.51608 6.15214 2.99891C6.09765 3.52236 6.13799 4.0397 6.26532 4.54936C6.56765 5.7603 7.1836 6.8054 7.94147 7.77084C8.11371 7.9912 8.33692 8.18021 8.55466 8.35571C8.76455 8.52967 9.08365 8.37733 9.14344 8.09511C9.14816 8.07119 9.15367 8.04329 9.16311 7.99546L9.16233 7.99945ZM15.2095 5.1225C15.2025 5.01346 15.1995 4.88448 15.1886 4.75396C15.1458 4.33139 14.9516 4.13983 14.5425 4.15016C14.3662 4.15676 14.1875 4.19602 14.0173 4.25354C13.5948 4.39375 13.2419 4.65537 12.9133 4.95906C12.107 5.70267 11.4371 6.56015 10.8618 7.49431C10.7253 7.71168 10.6318 7.95827 10.5313 8.19932C10.4866 8.3023 10.5155 8.40326 10.6118 8.47197C10.8053 8.60542 10.9902 8.69989 11.2427 8.5551C11.7343 8.27117 12.2556 8.0428 12.741 7.74935C13.4098 7.35132 13.9957 6.83752 14.5486 6.2841C14.8687 5.96215 15.0492 5.56297 15.2095 5.1225Z" fill="#DB0007"/>
</g>
<defs>
<clipPath id="clip0_16606_7967">
<rect width="15" height="22" fill="white" transform="translate(4.26123) rotate(11.1681)"/>
</clipPath>
</defs>
</svg>
