<svg width="19" height="22" viewBox="0 0 19 22" fill="none" xmlns="http://www.w3.org/2000/svg">
<g clip-path="url(#clip0_16606_7688)">
<path d="M18.4121 6.16554L18.1451 7.25151C18.0423 7.66943 17.9295 8.0881 17.8113 8.50221C17.7488 8.72947 17.6825 8.95901 17.6169 9.18551C17.2966 10.2745 16.9397 11.3513 16.5487 12.4198C16.5405 12.4533 16.5268 12.4823 16.5162 12.5121C16.2593 13.2091 15.952 13.897 15.6034 14.5521C14.7669 16.1353 13.442 17.1358 11.8249 17.7734C11.6537 17.8412 11.4808 17.9023 11.3048 17.9625C10.8926 18.1005 10.4781 18.2348 10.0588 18.3484C9.66723 18.4559 9.27261 18.5627 8.87298 18.6229C7.63236 18.8128 6.38207 18.8548 5.12961 18.7183C4.46039 18.6443 3.82502 18.446 3.1992 18.1822C1.12218 17.3059 0.661035 14.6467 1.92577 13.0879C2.2753 12.6563 2.6835 12.307 3.18376 12.0515C4.01546 11.6252 4.8994 11.3476 5.79755 11.1058C5.96668 11.0601 6.1358 11.0143 6.30343 10.9747C7.07748 10.7962 7.66937 10.3821 8.096 9.7171C8.44086 9.18403 8.72904 8.62732 8.9923 8.05154C9.03491 7.9585 9.07752 7.86546 9.11778 7.76861C9.21126 7.54898 9.29617 7.324 9.37178 7.09674C9.54507 6.59265 9.68263 6.07331 9.81014 5.55473L9.83939 5.43576C9.88064 5.26799 9.92734 5.10479 9.97715 4.94235C10.0881 4.58468 10.22 4.2354 10.3582 3.88765C10.598 3.28671 11.0244 2.98394 11.6883 2.9725C12.3051 2.96563 12.9092 3.03656 13.5165 3.10824C14.4422 3.22263 15.3642 3.35227 16.2877 3.48877C16.7735 3.55969 17.2618 3.64739 17.7471 3.76025C18.3379 3.89905 18.6304 4.28798 18.5972 4.89121C18.581 5.19778 18.5261 5.50131 18.4813 5.80406C18.4717 5.86965 18.4622 5.93523 18.4526 6.00082C18.4453 6.05725 18.4249 6.11369 18.4114 6.1686L18.4121 6.16554Z" fill="#FFBC0D"/>
<path d="M16.5488 12.4199C16.5406 12.4534 16.5268 12.4824 16.5162 12.5122C16.2593 13.2092 15.9521 13.8971 15.6035 14.5522C14.7669 16.1354 13.4421 17.1359 11.825 17.7735C11.7339 17.3014 11.6837 16.8233 11.7263 16.3291C11.7425 16.1293 11.7719 15.9295 11.7885 15.7815C12.0741 14.9945 12.4279 14.3181 13.0593 13.8102C14.0929 12.9774 15.2524 12.5023 16.5488 12.4199Z" fill="white"/>
<path d="M17.8106 8.50476C17.7481 8.73202 17.6818 8.96157 17.6163 9.18807C17.4808 9.19035 17.3244 9.17129 17.1243 9.11562C16.8791 9.04241 16.563 8.78998 16.2989 8.47274C16.1692 8.31793 16.0603 8.14558 15.9229 7.99534C15.7614 7.82299 15.4871 7.77495 15.279 7.88553C15.101 7.98086 14.9417 8.10669 14.7731 8.21727C14.5575 8.35835 14.3491 8.52384 14.1202 8.639C13.6546 8.87389 13.2152 8.80144 12.8424 8.43157C12.6778 8.27142 12.5648 8.06247 12.421 7.88478C12.2959 7.72463 12.1701 7.56753 12.0312 7.4234C11.9446 7.33417 11.8137 7.31816 11.7058 7.38222C11.4593 7.52864 11.2215 7.69337 10.9742 7.84284C10.5298 8.11205 10.0608 8.21348 9.55703 8.0152C9.40175 7.95114 9.23556 7.87793 9.11164 7.76659C9.20512 7.54696 9.29003 7.32198 9.36565 7.09472C9.38126 7.1115 9.39997 7.12904 9.41633 7.14277C9.82241 7.51111 10.1215 7.55229 10.5976 7.28766C10.7995 7.17555 10.9873 7.04057 11.1821 6.91702C11.3539 6.80721 11.5335 6.71874 11.7414 6.689C11.9532 6.65697 12.1438 6.68442 12.3236 6.80949C12.5173 6.94447 12.6896 7.10004 12.8196 7.29375C12.9159 7.43712 13.0037 7.58812 13.1031 7.73225C13.4083 8.16313 13.6865 8.20888 14.1298 7.89087C14.3407 7.74216 14.5327 7.56294 14.7467 7.415C15.0154 7.23197 15.3125 7.12062 15.6495 7.1679C15.9803 7.21366 16.2653 7.33873 16.4748 7.61022C16.6312 7.81689 16.7869 8.0266 16.9671 8.21649C17.22 8.4857 17.5 8.57721 17.8191 8.5101L17.8106 8.50476Z" fill="white"/>
<path d="M18.4121 6.16484L18.3438 6.44244C17.5872 6.37609 16.8352 6.30441 16.0801 6.23196C14.7797 6.10309 13.4821 5.93608 12.1809 5.79729C11.3893 5.71265 10.5939 5.63029 9.80153 5.54869L9.83078 5.42972C9.87203 5.26195 9.91874 5.09875 9.96855 4.93631C10.0971 4.94851 10.228 4.96452 10.3566 4.97673C10.8469 5.02934 11.3387 5.07586 11.8313 5.13229C12.6671 5.22456 13.5037 5.32675 14.3433 5.41674C15.3246 5.51892 16.3075 5.62797 17.2933 5.71185C17.6898 5.74464 18.084 5.77362 18.4812 5.80336C18.4717 5.86895 18.4621 5.93453 18.4526 6.00012C18.4453 6.05655 18.4248 6.11298 18.4113 6.16789L18.4121 6.16484Z" fill="white"/>
<path d="M13.8834 6.75324C14.009 6.77765 14.1163 6.94313 14.0871 7.07507C14.0423 7.28402 13.8414 7.41901 13.6522 7.37249C13.5344 7.34351 13.4145 7.16201 13.4361 7.04761C13.4703 6.8684 13.6974 6.72045 13.8834 6.75324Z" fill="white"/>
<path d="M2.63237 14.2802C2.4866 14.2444 2.38964 14.117 2.40093 13.9775C2.41437 13.8158 2.61005 13.7022 2.77303 13.7617C2.89955 13.8089 2.98665 13.963 2.9544 14.0942C2.92365 14.2192 2.76574 14.313 2.63237 14.2802Z" fill="white"/>
<path d="M4.52966 16.4095C4.37158 16.3836 4.25936 16.1845 4.30991 16.019C4.34837 15.8894 4.51484 15.8009 4.64595 15.8429C4.78017 15.8856 4.86258 16.032 4.83353 16.1769C4.80523 16.3187 4.65907 16.4316 4.52966 16.4095Z" fill="white"/>
<path d="M10.3673 6.43243C10.4999 6.45531 10.6119 6.62842 10.5665 6.75959C10.5279 6.87627 10.4503 6.95101 10.311 6.94262C10.1515 6.93576 10.0352 6.80688 10.0573 6.66351C10.0801 6.51708 10.2255 6.40727 10.3642 6.43167L10.3673 6.43243Z" fill="white"/>
<path d="M4.13721 14.916C4.08325 15.0418 3.90427 15.1143 3.78001 15.0578C3.64954 14.9999 3.57088 14.8382 3.61244 14.7093C3.65175 14.5896 3.82997 14.5202 3.96739 14.5766C4.10246 14.6292 4.18657 14.7955 4.13721 14.916Z" fill="white"/>
<path d="M4.01127 17.8091C3.86155 17.7626 3.78139 17.6071 3.83846 17.482C3.90012 17.3516 4.06209 17.2814 4.19171 17.3295C4.32208 17.3745 4.41324 17.5521 4.36848 17.6673C4.31837 17.7908 4.15405 17.8572 4.01052 17.8122L4.01127 17.8091Z" fill="white"/>
<path d="M17.6991 7.70137C17.6467 7.83406 17.4747 7.90499 17.3512 7.8455C17.2277 7.78602 17.1629 7.6213 17.2122 7.48784C17.2622 7.35133 17.4373 7.28117 17.557 7.34294C17.6876 7.41386 17.7538 7.57249 17.7029 7.69908L17.6991 7.70137Z" fill="white"/>
</g>
<defs>
<clipPath id="clip0_16606_7688">
<rect width="14.6569" height="17.5883" fill="white" transform="translate(4.69897 0.551758) rotate(13.8137)"/>
</clipPath>
</defs>
</svg>
