<svg width="239" height="297" viewBox="0 0 239 297" fill="none" xmlns="http://www.w3.org/2000/svg">
<path d="M204.291 290.617C204.291 287.094 167.095 284.232 121.298 284.232C75.4999 284.232 38.3044 287.094 38.3044 290.617C38.3044 294.139 75.4999 297.001 121.298 297.001C167.095 297.001 204.291 294.139 204.291 290.617Z" fill="#D9D9D9"/>
<path d="M102.43 261.986C102.854 269.782 103.268 277.577 103.692 285.372C103.723 286.004 104.302 286.635 104.095 287.163C102.326 291.708 105.461 291.604 105.885 291.708C111.182 293.012 137.18 292.422 137.739 288.84C136.673 275.393 135.608 261.955 134.542 248.508C128.604 250.464 106.526 255.547 101.799 260.755" fill="#AF6150"/>
<path d="M64.8547 193.052C58.8646 209.046 48.5088 223.374 35.1941 234.068C39.8703 241.935 46.5431 248.913 55.0368 252.308C63.5305 255.694 73.9691 254.948 80.9316 249.016C86.094 256.222 92.8393 262.733 101.302 265.383C109.765 268.034 120.1 265.953 125.304 258.779C125.873 257.992 126.452 257.102 127.373 256.781C128.635 256.356 129.949 257.184 131.025 257.971C136.384 261.905 142.384 266.077 148.995 265.435C157.861 264.566 163.396 255.683 167.534 247.795C179.649 255.714 197.288 253.675 207.281 243.209C190.842 224.399 177.683 202.7 168.599 179.418C155.212 184.646 140.263 182.327 125.893 181.903C104.799 181.281 83.5904 185.008 63.965 192.783" fill="#66881E"/>
<path d="M61.4305 192.11C55.4611 207.628 45.5294 221.055 32.6803 231.562C31.5009 232.525 31.3664 234.627 32.1216 235.869C42.7672 253.23 64.9997 266.077 83.4354 251.532L77.8592 250.818C83.7458 258.841 91.1738 266.263 101.023 269.007C109.506 271.377 119.583 269.721 125.997 263.396C128.294 261.128 127.683 260.042 130.57 262.029C132.897 263.634 135.184 265.249 137.729 266.491C141.939 268.541 146.636 269.659 151.292 268.665C160.768 266.636 166.365 257.526 170.576 249.596L165.713 250.869C179.649 259.472 198.167 257.257 209.764 245.724C211.192 244.306 211.016 242.142 209.764 240.693C193.77 222.235 180.973 201.199 172.003 178.476C171.341 176.799 169.593 175.277 167.638 175.991C150.619 182.203 132.018 177.648 114.368 178.445C96.719 179.242 79.4213 182.979 63.003 189.356C58.7924 190.992 60.6235 197.866 64.8962 196.209C81.9353 189.584 99.9055 185.795 118.207 185.422C135.339 185.07 152.968 188.88 169.52 182.844L165.155 180.36C174.6 204.294 187.894 226.272 204.747 245.714V240.683C195.353 250.031 180.559 251.667 169.303 244.72C167.72 243.747 165.331 244.327 164.441 245.993C160.965 252.536 155.978 262.143 147.329 261.936C142.353 261.822 138.06 258.603 134.139 255.88C131.542 254.079 128.79 252.194 125.552 253.706C122.314 255.217 120.71 259.234 117.234 260.984C113.489 262.868 109.041 263.344 104.944 262.63C96.0569 261.077 89.1047 254.203 83.9734 247.215C82.5043 245.217 80.3214 244.979 78.3971 246.501C63.7582 258.044 46.1605 245.196 38.2358 232.277L37.6772 236.583C51.4988 225.268 61.8443 210.651 68.2482 193.994C69.8931 189.718 63.0237 187.876 61.3995 192.099L61.4305 192.11Z" fill="#A9C141"/>
<path d="M86.6218 124.779C75.3142 145.659 64.0065 166.54 52.7092 187.42C62.8271 197.369 81.0042 197.369 91.1221 187.42C92.2084 186.354 93.574 185.081 95.0327 185.536C96.2638 185.919 96.7811 187.327 97.2674 188.518C100.071 195.381 107.385 200.133 114.793 199.895C122.2 199.657 129.194 194.45 131.552 187.42C131.956 186.209 132.546 184.687 133.828 184.646C134.491 184.625 135.07 185.039 135.587 185.443C139.28 188.362 142.446 191.965 146.429 194.491C150.412 197.007 155.637 198.311 159.816 196.127C165.424 193.207 166.593 185.629 165.713 179.356C169.976 182.907 174.507 186.582 179.969 187.513C185.432 188.445 191.981 185.453 192.891 179.987C174.124 164.345 159.609 143.63 151.323 120.627C130.28 118.743 109.01 119.478 88.153 122.801" fill="#66881E"/>
<path d="M83.5491 122.988C72.2414 143.868 60.9338 164.749 49.6365 185.629C48.9019 186.975 49.0157 188.849 50.1951 189.936C56.6093 195.899 65.1961 198.973 73.9691 198.373C78.0142 198.093 81.9455 197.141 85.6389 195.433C87.6459 194.501 89.4771 193.383 91.2254 192.017C91.8565 191.52 92.9842 190.164 93.6359 189.936L93.6773 189.108C93.936 189.749 94.2153 190.371 94.505 191.002C98.8397 198.922 106.992 204.263 116.262 203.363C120.617 202.938 124.807 201.096 128.159 198.29C129.721 196.986 130.52 195.01 131.679 193.343C132.393 192.308 134.189 187.526 135.275 187.049H132.578C134.937 187.66 137.915 192.317 139.705 193.839C141.67 195.505 143.708 197.172 145.995 198.383C150.019 200.505 154.881 201.551 159.32 200.185C168.072 197.493 170.172 187.379 169.251 179.387L163.189 181.902C168.9 186.633 175.324 191.706 183.176 191.199C189.291 190.795 194.774 187.027 196.295 180.971C196.584 179.811 196.346 178.321 195.384 177.513C177.073 162.057 163.003 142.243 154.737 119.727C154.147 118.132 152.988 117.263 151.312 117.118C129.876 115.285 108.44 116.124 87.1907 119.416C82.6904 120.11 84.6043 126.963 89.0839 126.269C109.692 123.07 130.549 122.449 151.312 124.23L147.888 121.621C156.578 145.286 171.093 166.281 190.367 182.544L189.456 179.087C186.652 190.205 172.727 180.619 168.217 176.892C166.148 175.184 161.761 176.022 162.154 179.408C162.858 185.577 161.813 195.112 153.205 193.549C146.129 192.265 142.808 185.381 136.953 182.141C132.535 179.697 129.835 182.627 128.118 186.52C125.221 193.073 118.703 197.628 111.327 196.075C108.099 195.402 105.026 193.538 102.885 191.033C101.116 188.952 100.588 186.105 98.8294 184.097C95.0326 179.791 90.9668 183.103 87.6045 185.867C78.3142 193.507 64.0271 193.114 55.2127 184.936L55.7714 189.242C67.079 168.362 78.3867 147.481 89.684 126.6C91.8669 122.573 85.732 118.981 83.5491 123.008V122.988Z" fill="#A9C141"/>
<path d="M51.209 189.283C53.9299 192.243 57.2921 194.531 60.9234 196.032C64.5547 197.544 68.4653 198.268 72.3138 198.082C76.1624 197.916 79.9385 196.84 83.2904 195.049C86.6631 193.279 89.6426 190.794 91.8772 187.782L93.7601 185.256L94.8567 188.299C96.1809 192.005 98.788 195.246 102.078 197.451C105.347 199.676 109.299 200.857 113.148 200.712C116.996 200.556 120.803 198.993 123.824 196.509C126.845 194.024 129.173 190.66 130.125 186.922L131.242 182.543L133.859 186.208C136.094 189.345 138.804 192.15 141.918 194.293C145.001 196.457 148.54 197.937 152.212 198.206C155.761 198.476 159.506 197.316 162.475 195.173C165.455 193.041 167.586 189.738 167.731 186.136L167.844 182.999L170.038 185.121C171.879 186.912 174.248 188.165 176.804 188.817C179.369 189.459 182.1 189.583 184.78 189.127C187.449 188.672 190.056 187.709 192.363 186.208C194.65 184.697 196.657 182.657 197.96 180.142C196.946 182.771 195.167 185.152 192.891 186.943C190.635 188.744 187.956 190.038 185.111 190.732C182.276 191.426 179.255 191.591 176.317 191.022C173.39 190.463 170.524 189.19 168.186 187.181L170.493 186.167C170.555 188.454 169.934 190.742 168.848 192.73C167.762 194.728 166.251 196.446 164.513 197.834C161.027 200.608 156.568 202.192 151.995 201.964C147.515 201.747 143.243 200.07 139.642 197.668C136.032 195.225 132.99 192.109 130.476 188.651L134.201 187.937C133.032 192.647 130.218 196.829 126.504 199.79C122.8 202.761 118.155 204.666 113.313 204.811C108.461 204.987 103.744 203.31 99.9053 200.577C96.0775 197.834 93.0152 193.92 91.6289 189.345L94.5981 189.862C91.8876 193.185 88.4218 195.825 84.6043 197.616C80.7661 199.376 76.5555 200.298 72.3656 200.225C68.1756 200.122 64.0685 199.024 60.4268 197.13C56.7852 195.235 53.5988 192.533 51.24 189.262L51.209 189.283Z" fill="#1F6437"/>
<path d="M80.5075 115.451C95.5705 89.177 109.754 62.406 123.038 35.2002C128.862 64.3936 143.512 90.9473 157.964 116.973C149.647 124.489 135.09 123.433 127.952 114.778C125.428 119.437 121.848 123.826 116.903 125.731C111.968 127.636 105.523 126.311 102.885 121.714C98.3845 125.576 91.6496 124.903 85.8871 123.536C84.0249 123.091 82.08 122.553 80.7144 121.197C79.3591 119.84 78.8625 117.428 80.1661 116.021" fill="#66881E"/>
<path d="M83.5801 117.242C98.6225 90.9574 112.806 64.1968 126.111 36.991L119.624 36.1421C125.748 65.8014 140.346 92.531 154.902 118.764L155.461 114.457C148.043 120.679 136.766 119.333 130.476 112.262C128.956 110.554 125.976 111.082 124.9 112.977C121.724 118.557 111.927 128.671 105.968 119.913C104.985 118.463 102.73 117.428 101.105 118.639C98.3121 120.72 95.3016 121.238 91.8669 120.969C90.7496 120.886 82.1628 119.602 83.2491 117.811C85.6285 113.888 79.4833 110.316 77.1142 114.219C73.4932 120.182 78.6453 125.234 84.2526 126.766C91.0082 128.619 98.8192 128.502 104.706 124.113L101.109 123.214C104.596 128.328 109.185 130.959 115.289 129.83C122.521 128.495 127.559 122.646 131.035 116.559L125.459 117.273C134.49 127.429 150.236 128.07 160.489 119.468C161.699 118.453 161.761 116.455 161.047 115.161C146.771 89.4356 132.483 63.3272 126.483 34.2372C125.883 31.3282 121.31 30.6864 119.996 33.3884C106.692 60.5942 92.5083 87.3548 77.4659 113.639C75.1899 117.615 81.3248 121.196 83.6008 117.232L83.5801 117.242Z" fill="#A9C141"/>
<path d="M78.2212 118.174C79.5558 120.182 81.2835 121.859 83.2388 123.081C85.1734 124.333 87.3666 125.11 89.5495 125.41C91.7428 125.71 93.9774 125.451 96.0569 124.81C98.1363 124.168 100.03 123.039 101.581 121.621L103.071 120.275L104.302 121.983C106.889 125.565 111.565 127.584 115.837 127.149C120.121 126.714 124.228 123.795 126.017 119.82L127.011 117.625L128.956 118.909C131.283 120.441 133.859 121.662 136.57 122.47C139.26 123.35 142.105 123.774 144.97 123.867C146.398 123.909 147.847 123.857 149.274 123.691C150.671 123.505 152.078 123.226 153.412 122.729C154.737 122.221 156.03 121.569 157.116 120.627C158.213 119.706 159.051 118.464 159.475 117.004C159.402 118.505 158.802 120.047 157.778 121.259C156.795 122.511 155.492 123.474 154.106 124.23C152.719 124.986 151.229 125.565 149.678 125.928C148.157 126.28 146.605 126.528 145.043 126.663C141.908 126.89 138.722 126.642 135.639 125.928C132.556 125.182 129.576 123.961 126.804 122.335L129.742 121.424C128.614 124.157 126.711 126.507 124.362 128.236C122.024 129.965 119.21 131.104 116.251 131.363C113.292 131.642 110.334 131.011 107.727 129.748C105.13 128.454 102.864 126.497 101.281 124.054L104.002 124.416C101.923 126.145 99.4295 127.253 96.8742 127.843C94.3085 128.433 91.629 128.381 89.115 127.75C86.5907 127.128 84.3147 125.834 82.4215 124.188C80.5489 122.522 79.0799 120.441 78.2419 118.174H78.2212Z" fill="#1F6437"/>
<path d="M91.8979 110.699C91.66 109.964 91.6703 109.385 91.7427 108.846C91.8255 108.318 92.0117 107.842 92.2704 107.418C92.529 106.993 92.8807 106.631 93.3152 106.32C93.7601 106.02 94.2877 105.761 95.0533 105.647C95.2912 106.382 95.2912 106.962 95.2085 107.501C95.1257 108.028 94.9395 108.505 94.6809 108.919C94.4119 109.343 94.0705 109.706 93.636 110.016C93.1911 110.316 92.6635 110.575 91.9083 110.689L91.8979 110.699Z" fill="#FFE4C7"/>
<path d="M102.575 91.7748C102.492 90.605 102.637 89.5698 102.844 88.5553C103.061 87.5511 103.361 86.5987 103.733 85.667C104.106 84.7353 104.551 83.845 105.089 82.9754C105.637 82.1058 106.258 81.2569 107.127 80.4805C107.375 81.6296 107.334 82.7062 107.178 83.7414C107.023 84.7767 106.744 85.7808 106.351 86.7333C105.958 87.6857 105.471 88.607 104.861 89.4559C104.24 90.3048 103.526 91.1123 102.554 91.7645L102.575 91.7748Z" fill="#FFE4C7"/>
<path d="M125.283 75.3975C126.059 76.0807 126.576 76.795 127.031 77.5197C127.476 78.2443 127.849 78.9793 128.149 79.7351C128.459 80.4908 128.697 81.2776 128.862 82.1161C129.028 82.9546 129.142 83.8242 129.049 84.8594C128.107 84.4143 127.424 83.7828 126.845 83.0892C126.276 82.3853 125.831 81.6192 125.5 80.791C125.169 79.9732 124.962 79.1036 124.9 78.2029C124.838 77.3023 124.9 76.3706 125.273 75.4078L125.283 75.3975Z" fill="#FFE4C7"/>
<path d="M136.622 106.289C137.511 106.413 138.174 106.672 138.784 106.962C139.394 107.262 139.922 107.604 140.418 107.997C140.915 108.391 141.36 108.836 141.784 109.364C142.198 109.902 142.591 110.492 142.912 111.331C142.032 111.538 141.267 111.434 140.553 111.227C139.849 111.01 139.198 110.658 138.639 110.213C138.08 109.757 137.594 109.208 137.232 108.567C136.87 107.914 136.611 107.19 136.611 106.289H136.622Z" fill="#FFE4C7"/>
<path d="M116.468 103.764C117.11 104.23 117.462 104.726 117.731 105.234C117.989 105.741 118.144 106.259 118.196 106.776C118.248 107.304 118.207 107.832 118.051 108.381C117.886 108.929 117.638 109.488 117.1 110.068C116.458 109.602 116.096 109.105 115.827 108.609C115.568 108.101 115.413 107.584 115.372 107.066C115.32 106.538 115.372 106.01 115.517 105.461C115.682 104.913 115.931 104.354 116.468 103.774V103.764Z" fill="#FFE4C7"/>
<path d="M108.264 154.821C108.678 155.639 108.813 156.394 108.864 157.119C108.906 157.854 108.833 158.558 108.678 159.231C108.523 159.914 108.264 160.577 107.902 161.208C107.53 161.84 107.064 162.451 106.33 162.999C105.916 162.181 105.781 161.426 105.73 160.691C105.688 159.956 105.761 159.252 105.916 158.579C106.081 157.896 106.34 157.233 106.702 156.602C107.075 155.97 107.54 155.359 108.275 154.811L108.264 154.821Z" fill="#FFE4C7"/>
<path d="M78.1422 179.184C78.4216 180.136 78.3285 181.057 78.0802 181.917C77.8112 182.765 77.3663 183.552 76.787 184.225C76.2076 184.888 75.4834 185.436 74.6765 185.819C73.8592 186.182 72.9591 186.399 71.9763 186.244C72.4108 185.354 72.8557 184.691 73.2902 184.07C73.7351 183.459 74.1799 182.9 74.6455 182.362C75.111 181.823 75.6076 181.316 76.1663 180.788C76.7249 180.271 77.3249 179.743 78.1422 179.194V179.184Z" fill="#FFE4C7"/>
<path d="M98.5011 136.751C98.6563 137.714 98.5529 138.542 98.377 139.329C98.1908 140.115 97.9114 140.84 97.5493 141.523C97.1872 142.207 96.732 142.848 96.1837 143.428C95.6251 144.008 94.9837 144.546 94.0939 144.95C93.9388 143.987 94.0319 143.159 94.2077 142.372C94.394 141.586 94.6733 140.861 95.0457 140.178C95.4182 139.494 95.863 138.863 96.4217 138.273C96.9803 137.693 97.6218 137.155 98.5011 136.751Z" fill="#FFE4C7"/>
<path d="M146.088 176.239C146.998 176.809 147.681 177.409 148.333 178.009C148.974 178.61 149.543 179.231 150.091 179.873C150.64 180.515 151.147 181.177 151.643 181.912C152.129 182.647 152.616 183.424 153.019 184.418C151.933 184.397 150.991 184.045 150.143 183.569C149.295 183.082 148.55 182.451 147.929 181.716C147.308 180.981 146.801 180.142 146.46 179.221C146.129 178.299 145.932 177.316 146.088 176.25V176.239Z" fill="#FFE4C7"/>
<path d="M135.719 132.942C136.298 133.532 136.65 134.009 136.96 134.475C137.26 134.93 137.488 135.365 137.674 135.82C137.861 136.276 137.995 136.742 138.098 137.28C138.192 137.829 138.274 138.419 138.264 139.247C137.436 139.247 136.774 138.936 136.236 138.512C135.698 138.077 135.295 137.518 135.047 136.887C134.798 136.265 134.695 135.572 134.778 134.889C134.871 134.205 135.129 133.522 135.729 132.953L135.719 132.942Z" fill="#FFE4C7"/>
<path d="M167.492 169.302C168.289 169.126 168.93 169.189 169.53 169.323C170.12 169.468 170.648 169.696 171.113 170.017C171.589 170.327 172.003 170.731 172.365 171.218C172.717 171.715 173.017 172.284 173.162 173.091C172.365 173.267 171.724 173.205 171.124 173.081C170.534 172.936 170.006 172.708 169.541 172.387C169.065 172.067 168.651 171.673 168.289 171.187C167.937 170.69 167.637 170.12 167.492 169.313V169.302Z" fill="#FFE4C7"/>
<path d="M125.148 158.65C125.924 159.157 126.421 159.747 126.845 160.368C127.259 160.99 127.559 161.642 127.776 162.325C127.993 163.008 128.107 163.723 128.117 164.458C128.117 165.203 128.035 165.979 127.683 166.839C126.907 166.331 126.4 165.741 125.986 165.12C125.572 164.499 125.272 163.847 125.066 163.164C124.859 162.48 124.734 161.766 124.724 161.021C124.724 160.275 124.807 159.499 125.159 158.64L125.148 158.65Z" fill="#FFE4C7"/>
<path d="M112.217 179.252C112.682 180.111 112.951 180.908 113.106 181.726C113.262 182.534 113.313 183.341 113.262 184.149C113.22 184.956 113.065 185.753 112.806 186.55C112.527 187.337 112.186 188.155 111.472 188.88C111.006 188.01 110.737 187.223 110.572 186.405C110.417 185.598 110.365 184.79 110.417 183.983C110.468 183.175 110.613 182.378 110.872 181.581C111.151 180.794 111.493 179.977 112.196 179.252H112.217Z" fill="#FFE4C7"/>
<path d="M121.017 207.317C121.307 208.435 121.411 209.471 121.4 210.506C121.39 211.531 121.276 212.535 121.059 213.529C120.852 214.512 120.542 215.485 120.128 216.438C119.693 217.369 119.186 218.322 118.338 219.15C118.048 218.032 117.945 216.997 117.945 215.962C117.955 214.937 118.069 213.933 118.286 212.939C118.503 211.955 118.804 210.982 119.228 210.04C119.662 209.108 120.169 208.156 121.017 207.328V207.317Z" fill="#FFE4C7"/>
<path d="M68.7423 202.334C68.6484 203.543 68.3118 204.614 67.8892 205.605C67.4509 206.596 66.9109 207.489 66.2769 208.282C65.6508 209.075 64.9307 209.749 64.148 210.294C63.3575 210.819 62.5044 211.226 61.5496 211.325C62.027 210.274 62.5592 209.432 63.0914 208.619C63.6315 207.816 64.1872 207.062 64.7663 206.349C65.3455 205.625 65.9403 204.931 66.5821 204.257C67.2318 203.583 67.9048 202.929 68.7423 202.334Z" fill="#FFE4C7"/>
<path d="M66.3205 238.416C66.2274 239.648 65.8239 240.735 65.2963 241.749C64.7687 242.754 64.0962 243.675 63.3203 244.493C62.5444 245.311 61.6547 246.025 60.6719 246.594C59.689 247.164 58.6131 247.619 57.3923 247.764C57.9303 246.656 58.5614 245.756 59.2028 244.907C59.8546 244.058 60.5374 243.271 61.2616 242.526C61.9754 241.77 62.7306 241.056 63.5479 240.362C64.3756 239.679 65.2342 239.006 66.3205 238.416Z" fill="#FFE4C7"/>
<path d="M141.516 211.401C142.675 212.177 143.616 213.057 144.495 213.958C145.375 214.869 146.171 215.811 146.937 216.763C147.702 217.716 148.416 218.699 149.13 219.641C149.482 220.118 149.844 220.583 150.227 221.018C150.62 221.463 150.982 221.867 151.675 222.022C151.406 222.261 151.023 222.364 150.63 222.385C150.247 222.385 149.875 222.312 149.523 222.219C148.82 222.002 148.189 221.66 147.62 221.277C146.482 220.501 145.54 219.548 144.723 218.523C143.906 217.498 143.223 216.391 142.664 215.211C142.116 214.02 141.671 212.778 141.516 211.391V211.401Z" fill="#FFE4C7"/>
<path d="M122.342 239.724C123.356 240.656 124.173 241.588 124.98 242.499C125.776 243.42 126.532 244.321 127.276 245.232C128.032 246.143 128.766 247.064 129.511 248.016C130.256 248.979 131.011 249.963 131.725 251.143C130.349 250.946 129.128 250.387 128.021 249.673C126.914 248.948 125.921 248.058 125.094 247.033C124.256 246.008 123.573 244.869 123.076 243.637C122.59 242.405 122.28 241.101 122.352 239.714L122.342 239.724Z" fill="#FFE4C7"/>
<path d="M163.907 201.918C164.827 202.332 165.51 202.839 166.141 203.367C166.762 203.895 167.31 204.465 167.817 205.065C168.314 205.666 168.769 206.318 169.173 207.032C169.566 207.757 169.938 208.523 170.166 209.517C169.152 209.423 168.324 209.051 167.569 208.595C166.824 208.129 166.172 207.55 165.624 206.877C165.076 206.214 164.631 205.458 164.31 204.641C164 203.812 163.803 202.932 163.896 201.918H163.907Z" fill="#FFE4C7"/>
<path d="M185.101 237.432C186.114 237.411 186.973 237.629 187.78 237.919C188.587 238.219 189.322 238.602 190.015 239.068C190.698 239.534 191.329 240.082 191.898 240.724C192.456 241.376 192.974 242.091 193.325 243.053C192.311 243.074 191.453 242.857 190.635 242.577C189.828 242.277 189.094 241.894 188.411 241.428C187.728 240.962 187.097 240.413 186.528 239.772C185.97 239.119 185.452 238.405 185.101 237.453V237.432Z" fill="#FFE4C7"/>
<path d="M89.4738 98.4086C92.6049 98.4086 95.1431 95.8687 95.1431 92.7356C95.1431 89.6024 92.6049 87.0625 89.4738 87.0625C86.3427 87.0625 83.8044 89.6024 83.8044 92.7356C83.8044 95.8687 86.3427 98.4086 89.4738 98.4086Z" fill="#BD0006"/>
<path d="M136.162 179.856C136.162 177.375 134.147 175.36 131.666 175.36C129.185 175.36 127.171 177.375 127.171 179.856C127.171 182.337 129.185 184.351 131.666 184.351C134.147 184.351 136.162 182.337 136.162 179.856Z" fill="#DB0007"/>
<path d="M175.882 238.448C175.882 234.535 172.706 231.356 168.795 231.356C164.884 231.356 161.708 234.535 161.708 238.448C161.708 242.361 164.884 245.539 168.795 245.539C172.706 245.539 175.882 242.361 175.882 238.448Z" fill="#DB0007"/>
<path d="M99.1401 125.687C99.1401 122.82 96.8123 120.49 93.9466 120.49C91.0809 120.49 88.7532 122.82 88.7532 125.687C88.7532 128.555 91.0809 130.884 93.9466 130.884C96.8123 130.884 99.1401 128.555 99.1401 125.687Z" fill="#BD0006"/>
<path d="M124.473 150.185C126.956 150.185 128.969 148.173 128.969 145.69C128.969 143.207 126.956 141.194 124.473 141.194C121.991 141.194 119.978 143.207 119.978 145.69C119.978 148.173 121.991 150.185 124.473 150.185Z" fill="#DB0007"/>
<path d="M135.04 112.613C135.04 109.745 132.713 107.416 129.847 107.416C126.981 107.416 124.654 109.745 124.654 112.613C124.654 115.48 126.981 117.81 129.847 117.81C132.713 117.81 135.04 115.48 135.04 112.613Z" fill="#FFBC0D"/>
<g style="mix-blend-mode:multiply">
<path fill-rule="evenodd" clip-rule="evenodd" d="M157.873 274.373C163.268 272.503 167.247 269.846 166.759 268.439C166.271 267.031 161.502 267.406 156.106 269.276C150.711 271.146 146.732 273.803 147.22 275.211C147.708 276.618 152.477 276.243 157.873 274.373Z" fill="#F1F1F1"/>
</g>
<path d="M147.796 263.83L159.052 259.929L160.732 267.74C161.111 269.504 160.268 271.318 158.634 272.085C158.058 272.355 157.522 272.592 157.178 272.711C156.834 272.83 156.266 272.976 155.646 273.12C153.889 273.53 152.104 272.626 151.31 271.005L147.796 263.83Z" fill="#E5AF71"/>
<g style="mix-blend-mode:multiply" opacity="0.5">
<path fill-rule="evenodd" clip-rule="evenodd" d="M159.052 259.929L161.243 270.148C161.33 270.55 161.134 270.961 160.766 271.148C159.897 271.591 159.161 271.952 158.558 272.233C158.816 269.998 158.183 266.174 156.659 260.76L159.052 259.929Z" fill="#D6D6D6"/>
</g>
<path d="M145.398 261.411C144.483 259.869 145.286 257.87 147.002 257.347C148.271 256.96 149.766 256.486 151.257 255.969C153.156 255.311 155.058 254.581 156.492 254.013C157.718 253.527 159.089 254.317 159.263 255.624L159.357 256.332C159.544 257.745 158.712 259.095 157.365 259.561L148.622 262.592C147.403 263.014 146.056 262.521 145.398 261.411Z" fill="#E5AF71"/>
<path opacity="0.05" fill-rule="evenodd" clip-rule="evenodd" d="M153.502 255.666C154.383 255.361 155.816 257.142 156.846 259.741L156.078 260.007C155.169 257.606 154.122 255.884 153.635 256.053C153.126 256.229 153.363 258.263 154.156 260.673L153.377 260.943C152.509 258.559 151.437 256.815 150.927 256.992C150.441 257.16 150.684 259.161 151.455 261.609L150.687 261.875C149.888 259.197 149.912 256.911 150.793 256.605C151.34 256.416 152.08 256.974 152.794 258.002C152.719 256.753 152.955 255.856 153.502 255.666Z" fill="#292929"/>
<path fill-rule="evenodd" clip-rule="evenodd" d="M153.289 255.741C154.171 255.435 155.604 257.216 156.634 259.815L155.866 260.081C154.957 257.68 153.909 255.959 153.423 256.127C152.914 256.304 153.151 258.337 153.944 260.747L153.165 261.017C152.297 258.634 151.224 256.889 150.715 257.066C150.229 257.234 150.471 259.235 151.243 261.683L150.475 261.95C149.676 259.271 149.7 256.985 150.581 256.679C151.128 256.49 151.868 257.048 152.582 258.076C152.507 256.827 152.742 255.93 153.289 255.741Z" fill="#EDC8A3"/>
<path d="M158.495 253.206C158.421 253.331 157.595 253.688 156.017 254.277C155.934 254.445 155.947 254.635 156.062 254.932C156.568 256.245 157.302 257.59 157.381 257.818C157.556 258.323 157.337 258.858 156.892 259.012C156.869 259.02 156.846 259.027 156.822 259.033C156.801 259.043 156.778 259.052 156.755 259.06C156.31 259.214 155.807 258.93 155.632 258.425C155.553 258.197 155.297 256.685 154.882 255.341C154.795 255.057 154.696 254.901 154.546 254.816C153.411 255.225 152.032 255.709 150.409 256.269C151.07 255.673 151.617 255.177 151.84 254.947C152.948 253.798 154.1 252.547 155.298 251.192C155.362 251.119 155.424 251.046 155.485 250.971C156.241 250.04 156.729 248.953 156.936 247.816C158.8 248.926 159.512 251.499 158.495 253.206Z" fill="#F1F1F1"/>
<g style="mix-blend-mode:multiply" opacity="0.5">
<path d="M158.657 249.883C159.091 250.986 159.073 252.236 158.495 253.207C158.426 253.324 157.685 253.646 156.278 254.177C156.736 253.771 158.24 252.283 158.657 249.883Z" fill="#D6D6D6"/>
</g>
<path d="M152.501 241.503C154.76 241.99 155.645 243.74 155.948 244.825C155.962 244.874 155.975 244.924 155.987 244.973C156.179 245.741 156.219 246.542 156.103 247.327L156.108 247.328C155.957 248.371 155.531 249.385 154.818 250.259C154.766 250.323 154.712 250.386 154.657 250.448C153.459 251.797 152.307 253.043 151.201 254.184C150.012 255.411 148.917 256.159 147.826 257.131C147.817 257.134 147.808 257.137 147.799 257.14C147.192 257.682 146.587 258.295 145.967 259.1C144.446 261.076 144.454 261.746 144.524 262.008L144.524 262.011C144.533 262.046 144.543 262.074 144.551 262.097L144.553 262.099C143.499 261.183 142.807 260.003 142.491 258.741C142.045 256.951 142.357 254.998 143.468 253.406L143.472 253.41L144.018 252.694L144.023 252.689C144.088 252.611 144.153 252.534 144.218 252.457L144.204 252.45C145.44 250.841 146.685 249.506 149.057 247.147C149.273 246.933 149.564 246.603 149.923 246.176C149.954 246.138 149.987 246.099 150.019 246.06C150.351 245.663 151.013 244.841 150.956 244.908L150.953 244.911L151.016 244.834C151.801 243.853 152.303 242.707 152.501 241.503Z" fill="#F1F1F1"/>
<g style="mix-blend-mode:multiply" opacity="0.5">
<path d="M155.968 244.882C155.982 244.931 155.995 244.98 156.007 245.029C156.198 245.793 156.238 246.59 156.123 247.371L156.128 247.373C155.978 248.41 155.555 249.419 154.847 250.288C154.795 250.352 154.741 250.415 154.687 250.477C153.497 251.819 152.352 253.057 151.253 254.193C150.071 255.413 148.983 256.157 147.9 257.124L147.872 257.133C147.269 257.672 146.668 258.282 146.053 259.082C144.542 261.048 144.55 261.715 144.619 261.976L144.619 261.978C144.628 262.013 144.638 262.041 144.646 262.064L144.648 262.066C144.609 262.032 144.57 261.997 144.532 261.962C144.034 260.107 144.709 258.016 146.485 256.182C148.057 254.558 149.714 253.082 151.027 251.756C152.23 250.541 155.525 247.736 155.521 243.786C155.736 244.176 155.878 244.559 155.968 244.882Z" fill="#D6D6D6"/>
</g>
<path d="M148.089 235.703L148.088 235.715C150.316 236.153 151.175 237.607 151.485 238.837C151.554 239.117 151.596 239.384 151.619 239.626C151.671 240.173 151.65 240.727 151.554 241.272L151.559 241.273C151.38 242.308 150.932 243.313 150.205 244.181C150.149 244.248 148.925 245.778 148.365 246.329C146.562 248.102 144.834 249.832 143.29 251.831L143.295 251.825C143.292 251.823 143.29 251.821 143.287 251.819L143.288 251.817L143.287 251.819C142.325 250.993 141.699 249.926 141.419 248.784C140.984 246.996 141.4 245.027 142.712 243.525C142.77 243.459 142.828 243.394 142.889 243.331C143.123 243.085 143.351 242.842 143.573 242.601L143.511 242.653L143.512 242.652L143.761 242.448C144.221 242.071 145.565 240.617 146.344 239.693C147.228 238.644 147.856 237.088 148.098 235.654L148.089 235.703Z" fill="#F1F1F1"/>
<g style="mix-blend-mode:multiply" opacity="0.5">
<path d="M150.579 237.173L150.619 237.172C151.101 237.717 151.37 238.345 151.515 238.924C151.583 239.201 151.624 239.467 151.646 239.706C151.695 240.249 151.671 240.799 151.572 241.341L151.578 241.341C151.392 242.37 150.936 243.37 150.201 244.235C150.145 244.302 148.907 245.827 148.341 246.376C146.599 248.069 144.925 249.721 143.416 251.605L143.216 251.857C143.213 251.856 143.21 251.854 143.207 251.852L143.209 251.85L143.208 251.851L143.152 251.803C143.105 250.115 144.135 248.258 145.497 246.705C147.654 244.248 151.187 242.384 150.579 237.173Z" fill="#D6D6D6"/>
</g>
<path d="M142.414 233.579C141.833 229.583 146.121 230.041 146.96 233.321C147.062 233.726 147.112 234.171 147.094 234.653C147.083 234.937 147.047 235.26 146.985 235.603L146.99 235.603C146.786 236.742 146.297 238.112 145.504 239.062C144.906 239.778 143.527 241.31 143.085 241.673L143.094 241.666C143.088 241.66 143.083 241.653 143.077 241.646L143.086 241.657L143.082 241.661C142.367 241.041 141.943 240.248 141.735 239.423C141.341 237.849 141.802 236.261 142.36 235.359C143.094 234.173 144.369 233.067 144.2 232.412C144.186 232.352 144.162 232.296 144.126 232.245C143.665 231.588 143.062 232.061 142.515 233.188C142.446 233.33 142.414 233.579 142.414 233.579Z" fill="#F1F1F1"/>
<g style="mix-blend-mode:multiply" opacity="0.5">
<path d="M146.936 233.252C147.039 233.661 147.089 234.112 147.069 234.6C147.058 234.887 147.02 235.214 146.957 235.561L146.962 235.561C146.753 236.715 146.254 238.103 145.446 239.065C144.85 239.775 143.496 241.274 143.015 241.686L142.991 241.706L142.983 241.697L142.981 241.7L142.914 241.507C142.742 240.572 142.905 239.877 143.402 239.423C145.127 237.846 146.511 234.508 145.886 231.425C146.354 231.866 146.739 232.482 146.936 233.252Z" fill="#D6D6D6"/>
</g>
<path d="M94.7322 187.862C98.9089 187.862 102.295 184.474 102.295 180.294C102.295 176.115 98.9089 172.727 94.7322 172.727C90.5556 172.727 87.1697 176.115 87.1697 180.294C87.1697 184.474 90.5556 187.862 94.7322 187.862Z" fill="#FFBC0D"/>
<path d="M91.452 234.301C90.1376 239.757 84.693 243.17 79.1872 241.937C73.6444 240.697 70.1439 235.177 71.3847 229.634C72.6256 224.091 78.1454 220.591 83.6902 221.832C89.1793 223.092 92.6591 228.493 91.5263 233.969L91.4906 234.135L91.452 234.301Z" fill="white"/>
<path d="M90.7716 233.813C91.8193 228.747 88.599 223.749 83.5197 222.583C78.3923 221.435 73.2844 224.674 72.1366 229.802C70.9887 234.929 74.2279 240.037 79.3554 241.185C84.4498 242.326 89.4867 239.168 90.7028 234.12L90.7385 233.966L90.7716 233.813Z" fill="#292929"/>
<path d="M105.317 223.654C104.111 229.04 98.7955 232.438 93.4477 231.24C88.0999 230.043 84.7405 224.704 85.9462 219.318C87.152 213.932 92.4673 210.534 97.8151 211.732C103.182 212.959 106.522 218.268 105.317 223.654Z" fill="white"/>
<path d="M105.125 223.704C103.812 229.151 98.3473 232.569 92.86 231.341C87.3173 230.1 83.8168 224.58 85.0576 219.037C86.2984 213.495 91.8183 209.994 97.363 211.235C102.852 212.495 106.332 217.896 105.199 223.372L105.163 223.538L105.125 223.704Z" fill="white"/>
<path d="M104.445 223.216C105.492 218.15 102.272 213.152 97.1928 211.986C92.0654 210.839 86.9575 214.078 85.8097 219.205C84.6618 224.333 87.901 229.441 93.0285 230.588C98.1046 231.725 103.162 228.561 104.376 223.523L104.412 223.37L104.445 223.216Z" fill="#FFBC0D"/>
<path d="M88.5837 217.632C87.3796 223.011 82.2969 226.468 77.2529 225.339C72.2089 224.21 69.0853 218.915 70.2895 213.537C71.4936 208.158 76.5763 204.701 81.6203 205.83C86.6642 206.959 89.7941 212.225 88.5837 217.632Z" fill="#DB0007"/>
<path d="M77.4275 227.204C77.9355 227.343 78.3201 227.582 78.5603 227.866C78.8003 228.149 78.9232 228.508 78.9005 228.911L77.5187 228.602C77.5192 228.449 77.5202 228.296 77.4457 228.177C77.4031 228.066 77.29 227.964 77.1724 227.887L76.9604 228.834L77.3299 228.994C77.6987 229.153 77.9981 229.322 78.2012 229.469C78.4043 229.617 78.538 229.775 78.6017 229.942C78.6654 230.11 78.6651 230.263 78.6215 230.457C78.5399 230.822 78.3137 231.077 77.9435 231.224C77.5734 231.371 77.0969 231.391 76.5135 231.286L76.3666 231.943L75.8205 231.821L75.9619 231.189C75.3893 231.035 74.9718 230.788 74.6996 230.498C74.4273 230.207 74.2996 229.872 74.317 229.493L75.7302 229.81C75.7243 229.987 75.7612 230.123 75.8357 230.242C75.9103 230.361 76.0283 230.438 76.1834 230.499L76.3957 229.551L75.9947 229.384C75.5613 229.21 75.2399 228.986 75.0265 228.734C74.8131 228.482 74.7394 228.21 74.8047 227.918C74.8591 227.675 74.9724 227.471 75.1766 227.312C75.3752 227.178 75.6006 227.076 75.9112 227.043C76.19 227.004 76.5227 227.027 76.8814 227.081L77.0282 226.426L77.5743 226.548L77.4275 227.204ZM76.59 230.641C76.788 230.66 76.9597 230.647 77.0724 230.596C77.1584 230.513 77.2447 230.43 77.2719 230.308C77.2937 230.211 77.2777 230.131 77.1976 230.036C77.1176 229.942 76.9998 229.865 76.7858 229.766L76.59 230.641ZM76.7874 227.801C76.6214 227.789 76.4815 227.809 76.3688 227.86C76.283 227.943 76.1978 228.026 76.1705 228.147C76.1488 228.244 76.1584 228.349 76.2383 228.443C76.3183 228.538 76.4365 228.615 76.5862 228.7L76.7874 227.801Z" fill="white"/>
<path d="M81.3874 237.645C80.1665 237.372 79.2949 236.879 78.7784 236.14C78.2879 235.407 78.0918 234.577 78.2333 233.579L80.5711 234.102C80.4758 234.65 80.5508 235.046 80.7528 235.362C80.9605 235.653 81.2434 235.852 81.659 235.945C82.0746 236.038 82.3834 235.998 82.6692 235.818C82.955 235.639 83.1282 235.352 83.2264 234.913C83.3188 234.501 83.264 234.136 83.0361 233.814C82.8341 233.498 82.3435 233.253 81.5642 233.078L81.2265 233.002L81.5616 231.506L81.8733 231.576C82.4707 231.709 82.9094 231.699 83.2154 231.551C83.4954 231.397 83.6831 231.168 83.7582 230.832C83.8275 230.523 83.8131 230.221 83.6717 230C83.5361 229.753 83.3254 229.597 82.9877 229.522C82.3643 229.382 81.9256 229.636 81.6974 230.29L79.3596 229.766C79.6484 228.964 80.1305 228.394 80.8377 228.038C81.5449 227.681 82.4021 227.629 83.4412 227.862C84.1165 228.013 84.7168 228.256 85.1901 228.578C85.6634 228.901 85.9837 229.298 86.2146 229.729C86.4137 230.18 86.4655 230.68 86.3442 231.222C86.2576 231.609 86.067 231.972 85.8043 232.293C85.5416 232.614 85.1144 232.816 84.5689 232.938C84.97 233.217 85.2615 233.499 85.4433 233.784C85.6193 234.094 85.7433 234.393 85.7577 234.694C85.7721 234.996 85.7605 235.291 85.6969 235.575C85.5583 236.194 85.2869 236.676 84.8828 237.019C84.4729 237.388 83.9879 237.604 83.3904 237.714C82.7872 237.85 82.1407 237.814 81.3874 237.645Z" fill="white"/>
<path d="M91.9338 217.932C92.4419 218.071 92.8265 218.311 93.0666 218.594C93.3067 218.877 93.4296 219.237 93.4069 219.64L92.0251 219.331C92.0256 219.178 92.0265 219.025 91.952 218.906C91.9095 218.794 91.7963 218.693 91.6788 218.616L91.4667 219.563L91.8362 219.723C92.2051 219.882 92.5045 220.05 92.7076 220.198C92.9106 220.345 93.0443 220.503 93.108 220.671C93.1718 220.838 93.1714 220.991 93.1279 221.186C93.0463 221.55 92.82 221.806 92.4498 221.953C92.0798 222.099 91.6032 222.12 91.0199 222.015L90.8729 222.671L90.3268 222.549L90.4683 221.917C89.8956 221.763 89.4782 221.517 89.2059 221.226C88.9336 220.936 88.806 220.601 88.8233 220.222L90.2366 220.538C90.2306 220.716 90.2675 220.852 90.342 220.97C90.4166 221.089 90.5348 221.166 90.69 221.226L90.9021 220.279L90.5011 220.112C90.0677 219.939 89.7463 219.714 89.5328 219.462C89.3195 219.21 89.2457 218.938 89.311 218.647C89.3654 218.404 89.4788 218.199 89.6829 218.041C89.8815 217.907 90.1069 217.804 90.4176 217.772C90.6963 217.732 91.029 217.755 91.3878 217.81L91.5346 217.154L92.0806 217.276L91.9338 217.932ZM91.0965 221.368C91.2947 221.387 91.4663 221.375 91.579 221.323C91.6969 221.248 91.7511 221.158 91.7782 221.037C91.8 220.939 91.784 220.859 91.704 220.765C91.6239 220.67 91.5063 220.592 91.2924 220.494L91.0965 221.368ZM91.3206 218.561C91.1546 218.55 91.0149 218.569 90.9022 218.62C90.7895 218.671 90.7354 218.762 90.7028 218.907C90.681 219.005 90.6919 219.109 90.7717 219.203C90.8517 219.298 90.9697 219.376 91.1194 219.46L91.3206 218.561Z" fill="white"/>
<path d="M92.2896 226.429L92.3604 226.112C92.5434 225.295 92.8677 224.62 93.3274 224.114C93.7872 223.608 94.4413 223.118 95.2722 222.722L96.5215 222.116C96.9635 221.91 97.2876 221.678 97.5116 221.452C97.7356 221.225 97.8712 220.951 97.9479 220.608C98.0364 220.213 98.0365 219.88 97.9188 219.633C97.8011 219.385 97.6126 219.232 97.3062 219.163C96.9763 219.089 96.6876 219.163 96.4577 219.416C96.2279 219.669 96.0097 220.091 95.8327 220.661L93.6648 220.175C93.9598 219.079 94.4844 218.282 95.2329 217.813C95.9813 217.344 96.8533 217.207 97.8195 217.423C98.4322 217.56 98.9447 217.814 99.3393 218.151C99.7339 218.489 100.034 218.916 100.175 219.39C100.34 219.87 100.34 220.424 100.21 221.004C100.074 221.61 99.8386 222.111 99.4731 222.528C99.1077 222.944 98.6067 223.303 97.9408 223.624L96.5266 224.304C96.1966 224.452 95.9373 224.615 95.7605 224.742C95.5837 224.868 95.4304 225 95.3715 225.153L99.1418 225.997L98.7228 227.869L92.2896 226.429Z" fill="white"/>
<path d="M89.4682 217.923C88.1542 223.377 82.7068 226.792 77.2033 225.56C71.653 224.317 68.1563 218.815 69.4009 213.256C70.6434 207.706 76.1452 204.209 81.7043 205.454C87.1991 206.684 90.6811 212.088 89.5426 217.59L89.5067 217.757L89.4682 217.923Z" fill="white"/>
<path d="M88.7881 217.434C89.8414 212.343 86.62 207.343 81.5361 206.205C76.3926 205.054 71.3026 208.289 70.1529 213.424C69.0015 218.568 72.2364 223.658 77.3717 224.807C82.4638 225.947 87.5034 222.788 88.7192 217.742L88.7549 217.588L88.7881 217.434Z" fill="#DB0007"/>
<path d="M76.522 211.069C77.0178 211.204 77.4001 211.432 77.6441 211.725C77.8882 212.018 77.9991 212.352 77.9719 212.751L76.6158 212.447C76.6218 212.282 76.5929 212.133 76.5542 212.029C76.4912 211.896 76.4182 211.808 76.281 211.73L76.0679 212.682L76.4358 212.835C76.8038 212.989 77.1077 213.153 77.2887 213.313C77.4992 213.479 77.6212 213.625 77.6792 213.781C77.7371 213.937 77.7609 214.109 77.7204 214.29C77.6392 214.653 77.4257 214.915 77.0507 215.069C76.6757 215.223 76.208 215.237 75.6133 215.128L75.4661 215.786L74.8763 215.654L75.0132 215.042C74.4633 214.871 74.0466 214.658 73.7731 214.359C73.4995 214.06 73.3834 213.748 73.4056 213.372L74.7912 213.682C74.7801 213.87 74.8142 213.996 74.9118 214.113C74.98 214.224 75.1118 214.326 75.2542 214.381L75.4675 213.428L75.07 213.268C74.6481 213.079 74.3245 212.863 74.1048 212.6C73.9147 212.343 73.8478 212.09 73.9136 211.795C73.9694 211.546 74.1084 211.339 74.2962 211.191C74.4842 211.042 74.7215 210.952 75.0072 210.92C75.2928 210.889 75.6028 210.887 75.9616 210.944L76.1088 210.286L76.6692 210.412L76.522 211.069ZM75.6324 214.489C75.8437 214.512 75.9718 214.494 76.11 214.43C76.1892 214.352 76.2737 214.252 76.2992 214.139C76.3195 214.048 76.3101 213.951 76.2369 213.863C76.1637 213.775 76.0262 213.697 75.8301 213.606L75.6324 214.489ZM75.8337 211.654C75.6519 211.637 75.5239 211.655 75.4203 211.703C75.3117 211.774 75.2616 211.859 75.2311 211.994C75.2057 212.108 75.215 212.206 75.2883 212.293C75.3615 212.381 75.4642 212.475 75.6308 212.56L75.8337 211.654Z" fill="white"/>
<path d="M78.1871 213.593L78.6986 211.308C79.3306 211.333 79.9475 211.295 80.5492 211.196C81.151 211.097 81.7225 210.873 82.2638 210.526L84.4161 211.008L81.9898 221.846L79.1477 221.21L80.8692 213.52C80.4178 213.595 79.979 213.614 79.5125 213.626C79.0461 213.639 78.6135 213.63 78.1871 213.593Z" fill="white"/>
<path d="M168.675 141.377C168.675 141.377 162.427 140.455 159.235 139.782C156.043 139.108 150.109 137.46 150.109 137.46C150.109 137.46 150.019 137.286 149.022 145.013C148.024 152.74 147.004 162.683 147.004 162.683C147.004 162.683 150.148 163.798 154.073 164.626C157.999 165.454 161.325 165.705 161.325 165.705C161.325 165.705 165.449 151.944 166.514 148.42C167.579 144.895 168.675 141.377 168.675 141.377Z" fill="#00A2C4"/>
<g style="mix-blend-mode:multiply" opacity="0.5">
<path d="M168.675 141.377C166.063 140.992 163.852 140.639 162.041 140.319L162.049 140.28C159.11 156.008 156.365 164.128 153.904 164.623L154.067 164.657C156.592 165.189 158.931 165.543 161.084 165.717L161.301 165.686L161.328 165.705L161.401 165.46C164.105 156.435 165.809 150.758 166.512 148.428C167.222 146.076 167.943 143.725 168.675 141.377Z" fill="#D6D6D6"/>
</g>
<path d="M157.663 143.422C160.893 144.103 161.808 152.73 159.707 162.689L157.107 162.141C159.059 152.893 159.185 145.088 157.392 144.71C155.597 144.331 152.682 150.946 150.881 159.482L148.282 158.934C149.712 152.153 150.01 146.198 149.173 143.845C149.265 143.136 149.351 142.485 149.43 141.894C150.757 142.856 151.576 145.337 151.802 148.683C153.674 145.115 155.826 143.034 157.663 143.422Z" fill="#FFBC0D"/>
<path d="M161.177 128.924C163.807 129.479 166.389 130.262 168.922 131.272C169.134 132.934 169.223 134.523 169.191 136.04C169.159 137.556 169.005 139.047 168.727 140.512L150.141 136.59C150.711 134.581 151.255 132.955 151.773 131.712C152.291 130.468 152.932 129.251 153.695 128.059C156.053 128.081 158.547 128.369 161.177 128.924Z" fill="#F1F1F1"/>
<path d="M169.849 121.364L170.929 122.115L169.868 123.628L170.377 123.982L160.405 137.055L157.782 135.231L166.661 121.399L168.788 122.877L169.849 121.364Z" fill="#EAEAEA"/>
<path d="M158.578 139.525L159.712 139.762C164.723 140.806 168.72 141.458 169.226 139.06L169.323 138.593C169.702 136.711 170.051 133.872 166.694 133.164C162.336 132.244 162.221 134.321 158.076 133.489L157.529 133.376C154.743 132.8 152.744 132.528 151.376 132.95C150.222 133.306 150.774 134.387 150.531 135.65L150.519 135.71C149.765 139.287 153.213 138.425 158.578 139.525Z" fill="white"/>
<path d="M154.623 135.745C154.623 135.745 154.462 135.928 154.528 136.037C154.548 136.072 154.304 136.427 154.069 136.558C153.816 136.699 153.455 136.722 153.455 136.722L153.612 136.455C153.608 136.456 153.525 136.476 153.465 136.376C153.406 136.276 153.83 136.048 153.848 136.039L154.554 135.632L154.623 135.745ZM157.294 136.437C157.43 136.135 157.667 136.394 157.67 136.397L157.906 136.421L158.05 136.642C158.048 136.652 157.975 137.031 158.111 137.24C158.249 137.451 158.63 137.431 158.613 137.504C158.583 137.625 158.015 137.628 158.015 137.628L157.673 137.419C157.673 137.419 157.56 137.243 157.431 137.045C157.302 136.847 157.156 136.742 157.294 136.437ZM167.988 138.991C168.211 138.919 168.221 139.108 168.222 139.113L168.285 139.414L168.033 139.497C168.033 139.497 167.867 139.46 167.626 139.539C167.548 139.564 167.163 139.534 167.149 139.432C167.136 139.324 167.404 139.113 167.413 139.106L167.727 139.111C167.727 139.111 167.762 139.065 167.988 138.991ZM152.024 134.606C152.024 134.606 152.325 134.88 152.479 135.116C152.633 135.353 151.763 135.396 151.763 135.396L151.683 135.056C151.68 135.055 151.62 135.027 151.479 134.81C151.335 134.589 151.549 134.521 151.549 134.521L151.863 134.36L152.024 134.606ZM162.348 135.122C162.348 135.122 162.438 134.807 162.943 135.328C163.436 135.837 163.512 135.981 163.516 135.988L164.257 136.531C164.258 136.547 164.339 137.967 163.802 137.412C163.262 136.855 162.65 136.098 162.65 136.098L162.086 135.515L162.348 135.122ZM165.973 137.147C165.999 137.002 167.221 137.652 167.197 137.788C167.173 137.924 166.763 137.822 166.759 137.821L166.082 137.683L166.109 137.531C166.109 137.531 165.947 137.293 165.973 137.147ZM154.854 134.184C155.084 134.172 155.042 134.357 155.042 134.357L155.026 134.654L154.769 134.667C154.762 134.669 154.428 134.772 154.184 134.785C153.938 134.798 154.623 134.197 154.854 134.184ZM160.037 134.769C160.12 134.839 160.062 135.179 160.06 135.188L159.823 135.394C159.823 135.399 159.822 135.46 159.709 135.658C159.59 135.863 159.454 135.722 159.454 135.722L159.205 135.541L159.338 135.312C159.338 135.312 159.486 135.229 159.612 135.008C159.653 134.938 159.959 134.702 160.037 134.769ZM157.004 134.462C157.026 134.424 157.337 134.38 157.479 134.474C157.633 134.574 157.719 134.832 157.719 134.832L157.489 134.885C157.489 134.885 157.524 134.935 157.459 135.046C157.395 135.157 157.134 134.974 157.134 134.974L156.698 134.702L156.77 134.577C156.779 134.578 156.937 134.578 157.004 134.462ZM153.808 133.596C153.798 133.599 153.091 133.833 152.939 133.883C152.522 134.019 152.462 133.882 152.461 133.879L152.42 133.556L152.891 133.403L153.942 132.962L153.808 133.596ZM157.698 133.439L157.942 133.89L157.364 133.927C157.364 133.927 157.257 133.609 157.235 133.541C157.175 133.356 157.313 133.304 157.317 133.303L157.629 133.229L157.698 133.439ZM164.766 134.607C164.809 134.365 165.981 135.297 165.942 135.524C165.903 135.748 165.506 135.631 165.492 135.627L164.817 135.477L164.862 135.223C164.857 135.21 164.724 134.845 164.766 134.607ZM168.219 134.18C168.427 134.291 168.605 134.316 168.638 134.637C168.671 134.954 168.345 134.844 168.336 134.841L168.122 134.927L167.888 134.804L167.37 135.001C167.37 135.001 167 134.393 166.979 134.322C166.945 134.207 167.419 133.954 167.429 133.948L167.825 133.972C167.825 133.972 168.01 134.07 168.219 134.18ZM164.167 133.109C164.453 133.073 164.484 133.215 164.485 133.222L164.484 133.544L164.156 133.585L163.417 133.77L163.562 133.186C163.575 133.184 164.062 133.122 164.167 133.109Z" fill="#73371F"/>
<path d="M149.454 135.292C149.454 135.292 154.543 137.135 159.604 138.202C164.664 139.27 169.88 139.602 169.88 139.602L169.336 142.178C169.336 142.178 162.565 141.326 159.099 140.595C155.633 139.863 148.91 137.868 148.91 137.868L149.454 135.292Z" fill="#F1F1F1"/>
<path d="M161.187 128.878C163.728 129.414 166.228 130.141 168.688 131.058L169.009 131.179L169.238 131.266L169.276 131.508C169.523 133.042 169.645 134.51 169.642 135.909C169.64 137.229 169.527 138.526 169.303 139.799L169.26 140.038L168.428 139.882C168.671 138.583 168.793 137.259 168.796 135.908C168.798 134.705 168.705 133.448 168.516 132.136L168.479 131.884L168.393 131.851C166.077 130.988 163.726 130.296 161.338 129.776L161.012 129.706C158.586 129.194 156.283 128.893 154.102 128.802L153.85 128.792L153.73 128.972C153.159 129.838 152.67 130.72 152.262 131.618L152.176 131.811C151.708 132.877 151.22 134.27 150.713 135.99L150.664 136.157L149.852 135.92L149.951 135.581C150.449 133.907 150.932 132.537 151.401 131.471C151.874 130.394 152.458 129.342 153.152 128.314L153.284 128.121L153.414 127.933L153.644 127.939C156.019 128.005 158.533 128.318 161.187 128.878Z" fill="#F1F1F1"/>
<path fill-rule="evenodd" clip-rule="evenodd" d="M63.7334 155.732L66.6701 154.797C66.6701 154.797 71.3194 160.998 77.9774 158.876C84.6354 156.755 85.0245 148.948 85.0245 148.948L87.9612 148.012C87.9612 148.012 88.9336 153.282 89.5428 158.729C90.152 164.176 90.3847 169.682 90.3847 169.682L89.256 171.255C89.256 171.255 85.946 171.096 82.2471 172.275C78.5482 173.454 76.1249 175.439 76.1249 175.439L74.2944 174.809C74.2944 174.809 71.2697 170.132 68.644 165.389C66.0183 160.646 63.7334 155.732 63.7334 155.732Z" fill="#DB0007"/>
<path fill-rule="evenodd" clip-rule="evenodd" d="M80.5444 160.485C79.7174 160.748 79.318 162.046 79.3643 163.86C78.3528 162.353 77.2762 161.526 76.449 161.79C74.9953 162.253 74.9422 166.163 76.3312 170.521L77.5014 170.148C76.2117 166.101 75.8212 162.611 76.6287 162.354C77.4366 162.096 79.0566 164.917 80.2472 168.653L81.4173 168.28C80.2267 164.544 79.9163 161.306 80.7241 161.049C81.5319 160.791 83.2324 163.864 84.5222 167.911L85.6919 167.538C84.303 163.18 81.9984 160.022 80.5444 160.485Z" fill="#FFBC0D"/>
<path fill-rule="evenodd" clip-rule="evenodd" d="M67.1703 153.829C67.1703 153.829 71.779 160.043 77.8359 158.113C83.8929 156.183 84.0564 148.448 84.0564 148.448C84.0564 148.448 85.7083 147.921 86.9931 147.512C86.9669 144.892 86.8076 143.123 86.4144 140.62C85.3841 140.658 84.2101 141.286 84.2313 141.638C84.2674 142.24 84.2719 142.556 84.2964 143.157C83.7708 142.849 82.8965 142.884 82.0905 143.059C82.5001 145.087 82.5157 145.874 82.6373 148.031C81.9489 145.521 81.6572 144.1 81.2707 141.399C80.3301 141.502 79.2259 142.014 79.0743 142.766C79.3073 144.304 79.4409 145.155 79.7593 146.456C78.9357 144.175 78.4661 142.853 77.5025 140.517C76.4111 140.963 75.5356 141.811 75.5634 142.563C75.6863 142.87 75.8983 143.398 76.0171 143.705C75.2408 143.933 74.5131 144.531 74.2878 144.869C74.4908 146.692 74.8062 147.713 74.8912 149.617C74.8912 149.617 74.2684 148.324 73.1271 142.473C73.0586 142.121 71.5268 141.666 70.5951 141.832C70.9178 143.538 71.2643 145.235 71.6323 146.923C70.9278 145.017 70.1582 143.12 69.3176 141.225C68.5995 141.322 67.5288 142.996 67.6683 143.32C69.2831 147.071 69.4855 147.682 70.3325 150.267C69.2362 148.025 68.8155 147.203 68.0469 145.887C67.1756 146.238 66.2048 147.595 66.3756 147.904C67.1964 149.388 67.479 150.062 68.2429 152.104C66.9966 149.736 66.4234 149.04 65.0415 146.682C64.9575 146.539 63.2382 146.567 62.4407 147.076C63.5572 148.91 64.7309 150.731 65.5664 152.622C64.6603 151.493 63.7803 150.325 62.9303 149.105C62.1417 149.628 61.5696 151.645 61.6669 151.78C62.492 152.923 63.3427 153.704 64.2336 154.765L67.1703 153.829Z" fill="#FFBC0D"/>
<path fill-rule="evenodd" clip-rule="evenodd" d="M121.615 88.2556C121.838 90.2802 123.539 91.8147 125.575 91.7711C128.397 91.7106 132.484 91.5497 136.301 91.1295C139.884 90.7351 143.313 90.1031 145.736 89.5983C147.741 89.1806 149.052 87.2958 148.828 85.26L121.615 88.2556Z" fill="#EC9D47"/>
<path d="M122.956 87.6416L122.997 87.6553C124.743 88.2689 125.084 87.2509 126.34 87.1561C126.855 87.1172 127.29 87.1849 127.629 87.2816L127.666 87.2502C127.707 87.2167 127.753 87.184 127.801 87.1522L128.121 87.116L128.366 87.0869C128.699 87.0467 129.058 87.0007 129.444 86.9478L129.64 86.9202L129.886 86.8842C130.127 86.8504 130.454 86.8103 130.762 86.7989L130.784 86.8028C130.859 86.8339 130.931 86.8697 130.997 86.9104C131.133 86.9933 131.256 87.0757 131.374 87.1507C131.688 87.0712 131.962 87.0171 132.262 86.8972C132.658 86.9273 133.016 86.9748 133.343 87.0387C133.954 87.1581 137.259 86.4178 138.986 86.2226L139.411 86.1168C140.343 85.8885 141.117 85.7197 141.287 85.642L141.297 85.6372C141.373 85.598 141.452 85.5614 141.532 85.5277L141.636 85.5493L141.744 85.5704C142.562 85.7244 143.587 85.7794 144.999 85.435C145.32 85.3569 145.678 85.3404 146.051 85.3681C146.4 85.0747 146.697 85.2497 147.006 85.1608C147.426 85.0401 147.563 84.8485 148.197 84.7323C149.064 84.5736 149.549 85.7808 149.738 86.167C149.927 86.5533 149.867 86.3074 149.62 86.3077C149.372 86.308 149.252 86.1588 148.96 86.168C147.726 86.206 148.011 87.7535 146.545 88.1868C145.755 88.4207 144.785 87.6659 144.44 87.6394C144.094 87.6128 143.802 87.907 143.464 87.95C141.866 88.1531 140.892 87.4081 139.528 87.3846L139.57 87.3182C139.595 87.2793 139.621 87.2406 139.647 87.202C139.694 87.1322 139.448 87.1558 139.056 87.2221L138.815 87.385C137.774 88.0821 136.495 88.8818 136.76 89.2049C136.146 89.3745 135.484 89.4305 134.727 89.4787C133.994 89.5255 133.205 89.0356 132.622 89.0339C131.604 89.031 129.024 90.0431 129.024 90.0431C129.024 90.0431 129.132 89.3714 128.693 89.1928C128.091 88.9477 126.615 89.0804 126.422 89.3136C126.23 89.5468 126.008 89.7203 125.696 89.7565C124.926 89.8457 124.67 89.5011 124.281 89.4591C123.871 89.4149 123.689 89.5747 123.132 89.6935C122.51 89.826 122.383 89.4396 122.401 89.1043L122.402 89.0838C122.474 88.0678 120.921 88.9331 121.064 88.5585C121.208 88.1839 122.148 87.383 122.956 87.6416Z" fill="#9CC93A"/>
<path fill-rule="evenodd" clip-rule="evenodd" d="M131.667 86.6662C136.747 86.8829 138.728 85.4924 141.095 84.9888C142.644 84.6594 144.128 84.596 145.306 84.7483C145.319 84.7499 145.799 84.7653 146.063 84.7518C146.536 84.7277 147.038 84.6725 147.568 84.5862C147.568 84.5862 148.277 84.4235 148.671 84.3363C149.066 84.2491 149.395 84.2801 149.503 84.6645C149.586 84.9615 149.398 85.1215 149.102 85.2051C148.806 85.2888 147.009 85.1647 142.315 85.9127C137.622 86.6607 138.588 92.1693 137.307 90.5151C135.978 88.8007 133.607 87.6685 131.865 87.3179C130.124 86.9673 125.829 87.8388 124.52 87.9411C123.211 88.0434 122.829 87.9543 122.265 87.8886C121.701 87.8228 121.729 87.925 121.694 87.6118C121.663 87.3296 121.887 87.1782 122.164 87.1934C122.319 87.2018 122.829 87.3188 124.883 87.1492C126.51 87.0147 129.422 86.5703 131.667 86.6662Z" fill="#FFBC0D"/>
<path fill-rule="evenodd" clip-rule="evenodd" d="M147.383 81.2244C148.174 81.1373 148.886 81.7091 148.973 82.5015L149.05 83.3867C149.05 83.3867 148.371 83.7673 146.139 83.9501C143.907 84.1329 142.564 83.7518 141.018 84.079C138.655 84.5791 137.846 85.5767 133.305 85.6663C128.764 85.7559 121.942 86.5444 121.942 86.5444L121.761 85.4971C121.673 84.7047 122.244 83.9917 123.035 83.9046C128.52 83.0069 132.656 82.4031 135.442 82.0933C138.229 81.7834 142.104 81.5084 147.383 81.2244Z" fill="#73371F"/>
<path fill-rule="evenodd" clip-rule="evenodd" d="M121.576 81.0994C121.547 80.8412 121.734 80.6088 121.992 80.5804L148.403 77.673C148.587 77.6527 148.753 77.7856 148.773 77.9698C148.97 79.7586 147.649 81.3562 145.855 81.5035C142.673 81.7647 137.972 82.1638 135.494 82.4366C132.98 82.7133 128.206 83.3608 125.042 83.7984C123.333 84.0349 121.765 82.8149 121.576 81.0994Z" fill="#EC9D47"/>
<path d="M129.621 78.9159L129.764 78.8863C131.59 78.494 131.412 78.0155 132.367 77.8957C132.799 77.8413 133.137 77.9534 133.44 78.132C134.172 77.5384 134.956 77.0337 135.951 76.9453C136.738 76.8754 137.624 77.5047 138.252 77.4998C139.35 77.4911 141.271 76.616 141.968 75.842C142.018 75.7858 142.096 75.8625 142.084 75.9571L142.058 76.1569C142.01 76.5531 141.998 77.0202 142.477 77.2445C143.144 77.5567 144.066 77.4238 144.917 77.0591C145.108 76.7525 145.335 76.5235 145.669 76.4725C146.493 76.3468 146.793 76.7931 147.216 76.8431L147.264 76.848C147.765 76.8942 148.435 76.7369 148.826 77.5771C149.218 78.4173 150.65 77.8418 150.65 77.8418C150.65 77.8418 149.659 79.5276 148.768 79.1954L148.729 79.1801C146.803 78.4011 146.507 79.7332 145.159 79.8723C144.606 79.9293 144.133 79.8464 143.761 79.7244C143.389 79.6024 141.166 80.9569 140.155 80.2496L140.036 80.1649C139.468 79.753 139.075 79.3844 138.488 79.62C138.137 79.7608 137.723 80.1764 136.637 80.2276C135.937 80.2607 135.253 79.8543 134.666 79.4986C134.203 79.7518 133.904 79.6882 133.419 80.485L133.389 80.5349C133.011 81.1744 132.683 81.4244 132.082 81.2214L132.043 81.2078C131.111 80.8697 130.787 81.701 129.584 81.7598C128.788 81.7986 127.871 80.3059 125.986 81.0991C125.654 81.2388 125.233 81.1532 124.807 80.9532C124.614 81.2763 124.49 81.5963 124.395 81.8225C123.904 83.0039 123.395 82.3113 122.964 82.4459L122.946 82.4518C122.515 82.6093 122.295 82.4462 121.667 82.5807L121.605 82.5947C120.682 82.8123 119.911 82.5568 119.664 81.8348C119.622 81.7141 119.201 80.6813 119.482 81.0316C119.764 81.382 120.264 80.7361 120.577 80.7206C121.906 80.6559 120.862 79.4564 122.411 78.8732C123.172 78.5867 124.545 78.9822 125.336 79.3592L125.603 78.9868C125.912 78.5605 126.268 78.1284 126.685 78.0534C127.816 77.85 128.569 79.1273 129.621 78.9159Z" fill="#9CC93A"/>
<path fill-rule="evenodd" clip-rule="evenodd" d="M122.668 76.4638C124.001 76.317 130.209 75.1846 134.249 74.7398C138.339 74.2896 145.116 73.8429 146.271 73.8655C147.426 73.888 147.744 74.0592 147.832 74.8578C147.92 75.6564 147.849 75.0123 147.937 75.8109C148.025 76.6095 147.421 77.0319 146.629 77.1191L122.238 79.8041C121.446 79.8913 120.6 78.7953 120.868 77.8261C121.137 76.8569 121.334 76.6106 122.668 76.4638Z" fill="#73371F"/>
<path d="M121.086 79.3341C121.322 79.2261 121.682 79.2684 124.102 79.3007C125.051 79.3134 126.552 79.2338 128.893 78.9227C130.532 78.7048 133.117 78.3935 137.829 77.7897C142.541 77.1858 144.673 77.0572 146.184 76.8699C147.695 76.6826 147.728 75.8039 148.555 76.4595C149.382 77.1152 147.894 77.175 146.398 77.4437C144.903 77.7124 144.948 77.3009 139.966 78.0024C134.985 78.7039 132.943 79.4983 130.648 79.7749C126.323 80.2962 124.864 79.3662 122.377 80.088C119.889 80.8099 120.849 79.4421 121.086 79.3341Z" fill="#EDC8A3"/>
<path fill-rule="evenodd" clip-rule="evenodd" d="M147.629 71.6207C147.696 72.2347 147.79 73.0826 146.904 73.1973C146.015 73.2779 138.676 73.3389 134.4 73.8254C130.3 74.2609 122.933 75.6695 121.762 75.965C120.6 76.2251 120.654 75.361 120.597 74.8958C120.044 69.8177 126.99 66.0338 133.603 65.2314C140.223 64.4309 147.086 66.6915 147.629 71.6207Z" fill="white"/>
<path d="M133.6 65.232C140.219 64.4315 147.083 66.6922 147.626 71.6214C147.693 72.2354 147.785 73.0828 146.9 73.1975C146.009 73.2781 138.671 73.339 134.396 73.8254C130.296 74.261 122.93 75.6696 121.759 75.9651C120.596 76.2253 120.65 75.361 120.593 74.8958C120.04 69.818 126.987 66.0344 133.6 65.232ZM122.193 73.9171C122.006 73.7962 121.756 73.8413 121.635 74.0178C121.514 74.1943 121.567 74.436 121.753 74.5569C121.94 74.6777 122.751 74.8799 122.818 74.7845C122.884 74.6887 122.38 74.0382 122.193 73.9171ZM139.693 71.3009C139.588 71.3759 139.855 72.2068 140.001 72.3939C140.147 72.5807 140.424 72.6229 140.619 72.488C140.814 72.3529 140.854 72.0916 140.709 71.9043C140.563 71.717 139.799 71.2275 139.693 71.3009ZM126.826 72.4196C126.59 72.4858 126.455 72.7236 126.524 72.951C126.594 73.1782 127.137 73.8953 127.266 73.8616C127.395 73.8257 127.45 72.939 127.38 72.7114C127.311 72.4841 127.063 72.3535 126.826 72.4196ZM135.273 71.7285C135.087 71.6081 134.838 71.653 134.716 71.8291C134.595 72.0057 134.648 72.2473 134.835 72.3682C135.021 72.489 135.83 72.6907 135.898 72.596C135.964 72.5001 135.46 71.8494 135.273 71.7285ZM145.384 70.1616C145.207 70.0403 144.966 70.0933 144.845 70.2799C144.724 70.467 144.521 71.2785 144.617 71.3444C144.713 71.4102 145.364 70.906 145.485 70.7193C145.606 70.5328 145.56 70.2829 145.384 70.1616ZM132.036 71.9061C131.901 71.711 131.639 71.6714 131.452 71.8171C131.265 71.9632 130.776 72.7249 130.849 72.8316C130.922 72.9376 131.754 72.6706 131.942 72.5246C132.129 72.3785 132.171 72.1014 132.036 71.9061ZM141.172 68.8972C141.075 68.8324 140.426 69.3356 140.305 69.5221C140.184 69.7086 140.229 69.9586 140.406 70.0799C140.582 70.2009 140.823 70.1478 140.944 69.9617C141.065 69.7751 141.267 68.9631 141.172 68.8972ZM123.658 70.9116C123.471 70.7908 123.221 70.8358 123.1 71.0123C122.979 71.1888 123.032 71.4305 123.218 71.5514C123.405 71.6722 124.216 71.8744 124.283 71.779C124.349 71.6831 123.844 71.0325 123.658 70.9116ZM136.801 68.4715C136.556 68.4985 136.378 68.7093 136.404 68.9426C136.43 69.176 136.83 69.9641 136.964 69.9499C137.097 69.9341 137.317 69.0782 137.291 68.8449C137.265 68.6117 137.046 68.4447 136.801 68.4715ZM128.147 70.0843C127.96 69.9634 127.149 69.7608 127.083 69.8567C127.017 69.953 127.521 70.6032 127.708 70.7241C127.894 70.845 128.144 70.7998 128.265 70.6234C128.387 70.4469 128.334 70.2052 128.147 70.0843ZM133.494 68.6901C133.374 68.6429 132.737 69.2855 132.635 69.4998C132.534 69.7143 132.63 69.9605 132.85 70.05C133.07 70.1391 133.331 70.038 133.433 69.8238C133.534 69.6092 133.614 68.7386 133.494 68.6901ZM138.712 66.1714C138.476 66.2376 138.34 66.4764 138.409 66.7038C138.479 66.9315 139.023 67.6474 139.152 67.6134C139.28 67.5775 139.335 66.6923 139.266 66.4641C139.197 66.2366 138.949 66.1053 138.712 66.1714ZM129.014 67.0837C128.769 67.1107 128.591 67.3216 128.616 67.5549C128.642 67.7886 129.044 68.5763 129.177 68.5621C129.31 68.5456 129.53 67.6906 129.504 67.4571C129.479 67.2239 129.259 67.057 129.014 67.0837ZM132.864 66.156C132.677 66.0353 132.427 66.0802 132.306 66.2567C132.185 66.4331 132.238 66.6749 132.424 66.7958C132.611 66.9166 133.422 67.1187 133.489 67.0234C133.555 66.9275 133.05 66.2769 132.864 66.156Z" fill="#EC9D47"/>
<path d="M112.151 262.928C116.328 262.928 119.714 259.54 119.714 255.36C119.714 251.181 116.328 247.793 112.151 247.793C107.975 247.793 104.589 251.181 104.589 255.36C104.589 259.54 107.975 262.928 112.151 262.928Z" fill="#FFBC0D"/>
<path d="M181.125 209.5C184.776 209.5 187.735 206.538 187.735 202.885C187.735 199.231 184.776 196.27 181.125 196.27C177.474 196.27 174.514 199.231 174.514 202.885C174.514 206.538 177.474 209.5 181.125 209.5Z" fill="#FFBC0D"/>
<path fill-rule="evenodd" clip-rule="evenodd" d="M131.722 3.37724C135.291 3.37724 138.183 17.5813 138.183 35.1021H143.354C143.354 16.2321 138.146 0.936523 131.722 0.936523C128.067 0.936523 124.807 5.53454 122.675 12.7225C120.544 5.53454 117.283 0.936523 113.628 0.936523C107.206 0.936523 101.996 16.2321 101.996 35.1021H107.168C107.168 17.5813 110.061 3.37724 113.628 3.37724C117.197 3.37724 120.09 16.4884 120.09 32.6613H125.26C125.26 16.4884 128.154 3.37724 131.722 3.37724Z" fill="#FFBC0D"/>
<path d="M34.6319 42.3867C34.1084 41.8975 33.5849 41.4083 33.0702 40.9117C32.6435 40.5035 32.5906 40.2401 32.899 39.7076C33.2286 39.1284 33.5958 38.5766 33.8861 37.986C34.1233 37.5123 34.3462 37.0212 34.4654 36.5133C34.7213 35.4099 33.834 34.6068 32.7102 34.8763C32.5193 34.9169 32.3394 35.007 32.145 35.0796C31.7725 35.2263 31.3945 35.3482 31.0417 35.5371C30.2169 35.9694 29.4817 36.0936 28.6771 35.427C28.1932 35.022 27.5246 34.8281 26.9165 34.5989C26.557 34.4715 26.1496 34.4129 25.7621 34.3965C25.1245 34.367 24.6068 34.809 24.5525 35.4681C24.5113 35.8531 24.5416 36.2522 24.5808 36.644C24.62 37.0358 24.7252 37.4169 24.7894 37.8027C24.8959 38.4753 24.852 38.6577 24.2568 38.9151C23.2017 39.3766 22.3569 40.1472 21.4796 40.8421C20.878 41.3094 20.9438 42.0595 21.5706 42.4927C21.8357 42.6688 22.1363 42.8155 22.442 42.9141C22.873 43.0556 23.3323 43.159 23.7756 43.2611C25.6756 43.6963 25.4889 43.4701 25.5491 45.4094C25.5683 46.1394 25.7213 46.8321 26.1668 47.4443C26.6267 48.0738 27.5091 48.1643 28.044 47.5619C28.57 46.9668 29.0528 46.3196 29.4803 45.6595C29.812 45.1371 30.2129 44.9524 30.806 45.0185C31.5903 45.1169 32.3781 45.1833 33.1675 45.2336C33.6266 45.2641 34.0979 45.2553 34.544 45.1795C35.429 45.0193 35.8107 44.1046 35.3146 43.3587C35.0972 43.041 34.8192 42.7586 34.5679 42.4542C34.5857 42.4395 34.6035 42.4248 34.6213 42.4101L34.6319 42.3867Z" fill="#FFBC0D"/>
<path d="M195.237 110.965C194.956 110.305 194.675 109.646 194.406 108.984C194.181 108.438 194.239 108.175 194.737 107.813C195.273 107.417 195.832 107.061 196.337 106.639C196.745 106.302 197.148 105.943 197.463 105.527C198.144 104.622 197.657 103.528 196.521 103.319C196.33 103.279 196.129 103.289 195.922 103.276C195.522 103.26 195.127 103.218 194.728 103.248C193.798 103.309 193.076 103.125 192.61 102.19C192.332 101.624 191.799 101.176 191.336 100.72C191.059 100.458 190.71 100.239 190.362 100.067C189.791 99.7821 189.139 99.9765 188.822 100.557C188.629 100.893 188.495 101.27 188.372 101.644C188.249 102.018 188.191 102.409 188.093 102.788C187.918 103.446 187.804 103.595 187.156 103.589C186.004 103.584 184.92 103.946 183.836 104.227C183.097 104.41 182.853 105.123 183.251 105.773C183.422 106.041 183.638 106.297 183.877 106.511C184.214 106.815 184.592 107.095 184.956 107.368C186.517 108.535 186.438 108.253 185.708 110.051C185.43 110.726 185.289 111.421 185.449 112.161C185.614 112.923 186.384 113.363 187.117 113.029C187.839 112.698 188.543 112.301 189.201 111.871C189.716 111.528 190.157 111.521 190.673 111.822C191.35 112.229 192.043 112.609 192.745 112.975C193.152 113.189 193.587 113.371 194.025 113.483C194.899 113.695 195.619 113.013 195.467 112.13C195.397 111.751 195.257 111.381 195.151 111C195.173 110.994 195.195 110.988 195.217 110.982L195.237 110.965Z" fill="#FFBC0D"/>
<path d="M60.6042 91.8138C60.5904 91.3578 60.5766 90.9018 60.5701 90.4465C60.5631 90.0705 60.6584 89.9284 61.0373 89.8289C61.4469 89.718 61.861 89.6364 62.2581 89.5026C62.5786 89.3973 62.9004 89.2777 63.1834 89.1037C63.7968 88.7243 63.7616 87.9631 63.1357 87.5762C63.0317 87.5082 62.9103 87.4673 62.7903 87.4121C62.5569 87.3095 62.3322 87.1934 62.0886 87.1187C61.5233 86.94 61.1373 86.6635 61.0776 86.0009C61.0435 85.6006 60.8311 85.2115 60.6619 84.8339C60.5582 84.6143 60.4019 84.4039 60.2355 84.2215C59.9628 83.9202 59.5308 83.8845 59.2087 84.1557C59.0162 84.3098 58.8495 84.5025 58.69 84.696C58.5306 84.8894 58.4056 85.108 58.26 85.31C58.0039 85.6599 57.9018 85.7219 57.5184 85.5684C56.8366 85.2987 56.1094 85.2626 55.4018 85.178C54.9208 85.1158 54.6114 85.4821 54.6969 85.9596C54.7362 86.1584 54.8048 86.36 54.8974 86.5424C55.0268 86.8006 55.1861 87.0546 55.3389 87.3007C55.9946 88.3544 56.013 88.1686 55.1637 89.0658C54.8425 89.402 54.5981 89.7818 54.5214 90.2577C54.4433 90.7479 54.7983 91.1873 55.3104 91.1587C55.8152 91.1294 56.3243 91.0572 56.8143 90.9543C57.1991 90.8698 57.4625 90.9681 57.6987 91.2658C58.0061 91.6643 58.3295 92.05 58.6609 92.4293C58.853 92.6504 59.0685 92.8594 59.3029 93.027C59.7722 93.355 60.3568 93.1171 60.4713 92.5584C60.5173 92.3176 60.5202 92.0653 60.545 91.8152C60.5597 91.8166 60.5743 91.8181 60.5889 91.8195L60.6042 91.8138Z" fill="white"/>
<path d="M24.6404 181.723C24.6265 181.267 24.6127 180.811 24.6062 180.356C24.5992 179.98 24.6945 179.838 25.0735 179.738C25.4831 179.627 25.8971 179.546 26.2942 179.412C26.6147 179.306 26.9366 179.187 27.2196 179.013C27.8329 178.633 27.7977 177.872 27.1718 177.485C27.0678 177.417 26.9464 177.376 26.8264 177.321C26.593 177.219 26.3683 177.103 26.1248 177.028C25.5594 176.849 25.1735 176.573 25.1137 175.91C25.0796 175.51 24.8673 175.121 24.698 174.743C24.5943 174.523 24.4381 174.313 24.2716 174.131C23.9989 173.829 23.5669 173.794 23.2448 174.065C23.0523 174.219 22.8856 174.412 22.7262 174.605C22.5667 174.799 22.4417 175.017 22.2962 175.219C22.04 175.569 21.9379 175.631 21.5546 175.478C20.8727 175.208 20.1455 175.172 19.438 175.087C18.957 175.025 18.6475 175.391 18.733 175.869C18.7723 176.068 18.8409 176.269 18.9335 176.452C19.0629 176.71 19.2222 176.964 19.375 177.21C20.0307 178.264 20.0492 178.078 19.1999 178.975C18.8786 179.311 18.6343 179.691 18.5575 180.167C18.4794 180.657 18.8344 181.096 19.3465 181.068C19.8514 181.039 20.3605 180.966 20.8504 180.863C21.2353 180.779 21.4986 180.877 21.7348 181.175C22.0422 181.573 22.3656 181.959 22.6971 182.338C22.8892 182.56 23.1046 182.769 23.339 182.936C23.8084 183.264 24.3929 183.026 24.5074 182.468C24.5535 182.227 24.5564 181.974 24.5812 181.724C24.5958 181.726 24.6104 181.727 24.625 181.729L24.6404 181.723Z" fill="#FFBC0D"/>
<path d="M225.142 70.9762C225.585 70.8667 226.027 70.7572 226.471 70.655C226.837 70.569 226.996 70.6323 227.173 70.9818C227.368 71.3588 227.535 71.7464 227.749 72.1065C227.92 72.3976 228.104 72.6871 228.334 72.9271C228.834 73.4469 229.571 73.2522 229.817 72.5589C229.862 72.4429 229.876 72.3156 229.905 72.1867C229.956 71.9369 230.022 71.6928 230.044 71.439C230.1 70.8487 230.289 70.4132 230.924 70.2153C231.308 70.0977 231.644 69.8082 231.977 69.5633C232.17 69.4157 232.343 69.2186 232.486 69.0175C232.723 68.6875 232.667 68.2577 232.335 67.9998C232.143 67.8441 231.92 67.7217 231.697 67.6066C231.474 67.4914 231.235 67.4152 231.006 67.3155C230.61 67.1387 230.528 67.0519 230.598 66.6449C230.718 65.9215 230.6 65.203 230.534 64.4935C230.493 64.0102 230.07 63.7848 229.621 63.9689C229.435 64.0491 229.253 64.1586 229.094 64.2876C228.869 64.4684 228.654 64.6776 228.445 64.8788C227.553 65.7416 227.739 65.7205 226.683 65.0791C226.287 64.8359 225.864 64.6769 225.383 64.7021C224.887 64.7289 224.532 65.1684 224.668 65.663C224.803 66.1504 224.98 66.6329 225.184 67.0902C225.348 67.4487 225.307 67.7268 225.066 68.0204C224.741 68.4048 224.432 68.8021 224.131 69.206C223.955 69.4403 223.796 69.695 223.682 69.9593C223.46 70.4872 223.816 71.0086 224.386 71.0029C224.631 70.9973 224.878 70.947 225.128 70.9186C225.13 70.9332 225.131 70.9478 225.133 70.9624L225.142 70.9762Z" fill="#FFBC0D"/>
<path d="M1.5575 117.76C1.87586 117.681 2.19423 117.602 2.51319 117.529C2.77632 117.467 2.89059 117.513 3.01786 117.764C3.15778 118.035 3.27778 118.313 3.43189 118.572C3.55439 118.782 3.68715 118.99 3.85223 119.162C4.21163 119.536 4.74124 119.396 4.91837 118.897C4.95046 118.814 4.96084 118.723 4.98147 118.63C5.01821 118.45 5.0658 118.275 5.08143 118.092C5.12151 117.668 5.25737 117.355 5.71398 117.213C5.99012 117.128 6.23142 116.92 6.47118 116.744C6.60978 116.638 6.73396 116.496 6.83701 116.352C7.00747 116.115 6.96715 115.806 6.72787 115.62C6.59046 115.508 6.42979 115.42 6.26971 115.338C6.10964 115.255 5.93716 115.2 5.77315 115.128C5.48854 115.001 5.4295 114.939 5.47936 114.646C5.56572 114.126 5.48103 113.61 5.43344 113.1C5.40433 112.752 5.10017 112.59 4.77751 112.723C4.64379 112.78 4.51246 112.859 4.39831 112.952C4.23645 113.082 4.0821 113.232 3.93228 113.377C3.29102 113.997 3.42438 113.982 2.66539 113.521C2.38055 113.346 2.07662 113.232 1.73059 113.25C1.37429 113.269 1.11927 113.585 1.21684 113.941C1.31381 114.291 1.44157 114.638 1.58804 114.966C1.70565 115.224 1.67643 115.424 1.50299 115.635C1.26944 115.911 1.04734 116.197 0.830961 116.487C0.704642 116.656 0.590371 116.839 0.508067 117.029C0.348587 117.408 0.604206 117.783 1.01418 117.779C1.19035 117.775 1.36808 117.739 1.5476 117.718C1.54879 117.729 1.54999 117.739 1.55118 117.75L1.5575 117.76Z" fill="#FFBC0D"/>
<path d="M232.546 144.457C232.864 144.378 233.183 144.3 233.501 144.226C233.765 144.164 233.879 144.21 234.006 144.461C234.146 144.732 234.266 145.011 234.42 145.27C234.543 145.479 234.675 145.687 234.841 145.859C235.2 146.233 235.73 146.093 235.907 145.595C235.939 145.511 235.949 145.42 235.97 145.327C236.006 145.148 236.054 144.972 236.07 144.79C236.11 144.365 236.246 144.052 236.702 143.91C236.978 143.826 237.22 143.617 237.459 143.441C237.598 143.335 237.722 143.194 237.825 143.049C237.996 142.812 237.955 142.503 237.716 142.318C237.579 142.206 237.418 142.118 237.258 142.035C237.098 141.952 236.925 141.897 236.761 141.826C236.477 141.699 236.418 141.636 236.468 141.344C236.554 140.824 236.469 140.307 236.422 139.797C236.393 139.45 236.088 139.288 235.766 139.42C235.632 139.478 235.501 139.556 235.387 139.649C235.225 139.779 235.07 139.93 234.921 140.074C234.279 140.694 234.413 140.679 233.654 140.218C233.369 140.043 233.065 139.929 232.719 139.947C232.363 139.966 232.108 140.282 232.205 140.638C232.302 140.988 232.43 141.335 232.576 141.664C232.694 141.921 232.665 142.121 232.491 142.332C232.258 142.609 232.036 142.894 231.819 143.185C231.693 143.353 231.579 143.536 231.496 143.726C231.337 144.106 231.592 144.48 232.002 144.476C232.179 144.472 232.356 144.436 232.536 144.416C232.537 144.426 232.538 144.437 232.539 144.447L232.546 144.457Z" fill="#FFBC0D"/>
<path d="M175.981 40.4375C176.3 40.3588 176.618 40.2801 176.937 40.2066C177.2 40.1449 177.314 40.1903 177.442 40.4415C177.582 40.7126 177.702 40.9912 177.856 41.25C177.978 41.4593 178.111 41.6674 178.276 41.8399C178.635 42.2135 179.165 42.0736 179.342 41.5752C179.374 41.4919 179.385 41.4004 179.405 41.3077C179.442 41.1281 179.49 40.9527 179.505 40.7702C179.545 40.3459 179.681 40.0328 180.138 39.8906C180.414 39.8061 180.655 39.598 180.895 39.4219C181.034 39.3158 181.158 39.1742 181.261 39.0296C181.431 38.7924 181.391 38.4834 181.152 38.2981C181.014 38.1861 180.854 38.0981 180.694 38.0154C180.533 37.9326 180.361 37.8778 180.197 37.8061C179.912 37.6791 179.853 37.6167 179.903 37.3241C179.99 36.8041 179.905 36.2877 179.857 35.7776C179.828 35.4302 179.524 35.2682 179.201 35.4005C179.068 35.4582 178.936 35.5369 178.822 35.6296C178.66 35.7596 178.506 35.91 178.356 36.0545C177.715 36.6748 177.848 36.6596 177.089 36.1986C176.804 36.0237 176.5 35.9095 176.154 35.9276C175.798 35.9468 175.543 36.2627 175.641 36.6183C175.738 36.9686 175.865 37.3155 176.012 37.6442C176.129 37.9019 176.1 38.1018 175.927 38.3128C175.693 38.5891 175.471 38.8748 175.255 39.1651C175.128 39.3335 175.014 39.5166 174.932 39.7066C174.772 40.0861 175.028 40.4609 175.438 40.4568C175.614 40.4527 175.792 40.4165 175.971 40.3961C175.973 40.4066 175.974 40.4171 175.975 40.4276L175.981 40.4375Z" fill="white"/>
<path d="M219.138 193.284C219.456 193.205 219.775 193.127 220.094 193.053C220.357 192.992 220.471 193.037 220.598 193.288C220.738 193.559 220.858 193.838 221.012 194.097C221.135 194.306 221.267 194.514 221.433 194.687C221.792 195.06 222.322 194.92 222.499 194.422C222.531 194.339 222.541 194.247 222.562 194.154C222.599 193.975 222.646 193.799 222.662 193.617C222.702 193.193 222.838 192.88 223.294 192.737C223.57 192.653 223.812 192.445 224.052 192.269C224.19 192.162 224.314 192.021 224.417 191.876C224.588 191.639 224.547 191.33 224.308 191.145C224.171 191.033 224.01 190.945 223.85 190.862C223.69 190.779 223.517 190.724 223.353 190.653C223.069 190.526 223.01 190.463 223.06 190.171C223.146 189.651 223.061 189.134 223.014 188.624C222.985 188.277 222.68 188.115 222.358 188.247C222.224 188.305 222.093 188.384 221.979 188.476C221.817 188.606 221.662 188.757 221.513 188.901C220.871 189.521 221.005 189.506 220.246 189.045C219.961 188.87 219.657 188.756 219.311 188.774C218.955 188.793 218.7 189.109 218.797 189.465C218.894 189.815 219.022 190.162 219.168 190.491C219.286 190.749 219.257 190.948 219.083 191.159C218.85 191.436 218.628 191.721 218.411 192.012C218.285 192.18 218.171 192.363 218.088 192.553C217.929 192.933 218.185 193.308 218.594 193.303C218.771 193.299 218.948 193.263 219.128 193.243C219.129 193.253 219.13 193.264 219.132 193.274L219.138 193.284Z" fill="white"/>
</svg>
