<svg width="328" height="66" viewBox="0 0 328 66" fill="none" xmlns="http://www.w3.org/2000/svg">
<path fill-rule="evenodd" clip-rule="evenodd" d="M172.469 20.4289C176.006 20.4289 178.873 34.5642 178.873 52H184C184 33.2215 178.837 18 172.469 18C168.845 18 165.613 22.5757 163.5 29.7289C161.387 22.5757 158.155 18 154.531 18C148.165 18 143 33.2215 143 52H148.127C148.127 34.5642 150.995 20.4289 154.531 20.4289C158.069 20.4289 160.937 33.4765 160.937 49.5711H166.063C166.063 33.4765 168.931 20.4289 172.469 20.4289Z" fill="#FFBC0D"/>
<path d="M31.7797 41.56C29.6526 41.5774 27.7871 41.177 25.9891 40.5416C24.1068 39.8801 22.2498 39.1229 20.3927 38.3917C18.8227 37.7737 17.2527 37.1732 15.5898 36.912C13.4795 36.59 11.3439 36.4681 9.25054 37.0687C5.65465 38.0958 3.50219 40.62 2.43862 44.2234C1.99968 46.8086 2.18538 49.2544 3.958 51.3434C4.91184 52.4662 6.07671 53.2322 7.50324 53.5455C7.95062 53.6412 8.398 53.7196 8.83693 53.502C8.99731 53.4149 9.13237 53.2844 9.14081 53.0755C9.14081 52.8579 9.00575 52.7186 8.83693 52.6664C8.5837 52.5793 8.31358 52.5358 8.04347 52.4923C5.35078 52.0397 3.7301 49.6983 3.40934 47.4701C3.16455 45.7815 3.46842 44.2321 4.21124 42.735C5.67998 39.7844 8.03503 38.2525 11.2004 37.8782C13.412 37.6258 15.5307 37.9652 17.6241 38.618C19.709 39.2708 21.6926 40.1848 23.7269 40.9681C25.4658 41.6383 27.23 42.2041 29.0786 42.4913C30.7077 42.7438 32.3115 42.7525 33.9406 42.4913C34.9789 42.326 35.9749 42.0561 36.9456 41.6557C38.752 40.9159 40.2292 39.6973 41.5291 38.2263C42.1706 37.5039 42.8037 36.7728 43.4115 36.0155C45.5048 33.3956 48.1722 31.7418 51.3714 30.9846C53.1862 30.5581 55.0179 30.2795 56.8834 30.3143C58.5294 30.3405 60.1247 30.5929 61.6948 31.0803C64.666 32.0029 67.4178 33.413 70.0092 35.1625C71.6721 36.2853 73.3096 37.4691 74.9894 38.5745C76.6692 39.6886 78.3996 40.6983 80.2482 41.4904C82.637 42.5174 85.1356 42.8917 87.6932 42.6306C89.8203 42.413 91.8631 41.7776 93.8045 40.8376C95.4505 40.0368 96.9952 39.0706 98.4724 37.9739C100.608 36.3985 102.71 34.7708 105.006 33.4391C106.753 32.4294 108.551 31.5764 110.509 31.089C112.333 30.6364 114.156 30.5058 116.03 30.8018C118.739 31.2283 121.305 32.1161 123.812 33.1867C125.357 33.8482 126.868 34.5967 128.295 35.5194C129.341 36.1896 130.312 36.9381 131.181 37.8434C131.663 38.3395 132.152 38.8356 132.152 39.619C132.152 39.706 132.203 39.8105 132.262 39.8627C132.355 39.9585 132.473 40.0542 132.591 40.0803C132.785 40.1325 132.946 39.9933 133.038 39.8366C133.207 39.532 133.19 39.2099 133.089 38.8879C132.836 38.1132 132.372 37.4778 131.789 36.9468C131.148 36.3637 130.472 35.7979 129.78 35.2757C128.421 34.2486 126.919 33.4739 125.399 32.7515C122.808 31.5068 120.115 30.5581 117.313 29.9401C113.92 29.1828 110.653 29.5919 107.479 30.9584C105.217 31.942 103.115 33.2302 101.098 34.6664C99.6119 35.7283 98.1432 36.8337 96.6491 37.8869C95.0369 39.0271 93.3065 39.941 91.4579 40.6113C87.0601 42.2041 82.8227 41.8211 78.7372 39.5232C76.9899 38.5397 75.2849 37.4778 73.6304 36.3202C72.2039 35.3192 70.7942 34.3008 69.3255 33.3869C66.6834 31.7331 63.8894 30.4101 60.8591 29.6702C58.5378 29.1045 56.1996 29.0784 53.8446 29.383C52.359 29.5745 50.8987 29.8704 49.4721 30.3492C47.3281 31.0716 45.4289 32.2379 43.8419 33.8917C43.0401 34.7186 42.2888 35.5977 41.546 36.4681C40.7103 37.4517 39.8578 38.4178 38.8449 39.2273C37.5618 40.2544 36.1015 40.8724 34.5484 41.2292C33.5776 41.4556 32.59 41.647 31.7881 41.5687L31.7797 41.56Z" fill="#292929"/>
<path d="M122.242 38.8183C123.331 38.7922 124.218 38.1568 124.564 37.2167C124.758 36.7032 124.733 36.2158 124.505 35.7371C124.066 34.8318 123.348 34.3096 122.377 34.2487C121.415 34.1877 120.731 34.6752 120.309 35.5369C119.482 37.2255 120.951 38.9576 122.251 38.8183H122.242Z" fill="#FFBC0D"/>
<path d="M112.096 24.0738C111.058 24.1086 110.172 24.9181 110.062 25.9278C109.927 27.1811 110.459 28.0341 111.548 28.391C112.459 28.6957 113.253 28.3736 113.936 27.834C114.603 27.3204 114.671 25.8929 114.164 25.1444C113.666 24.3958 112.974 24.039 112.096 24.0738Z" fill="#DB0007"/>
<path d="M85.0848 36.1377C83.9875 36.0855 83.0759 37.0429 83.0928 38.1135C83.1181 39.2799 83.8102 40.1068 84.8738 40.1416C86.1231 40.1764 87.001 39.2799 87.0263 38.0091C87.0516 36.9037 86.0387 36.1116 85.0848 36.1464V36.1377Z" fill="#FFBC0D"/>
<path d="M103.022 40.7852C104.103 40.7852 104.972 39.9496 104.964 38.9051C104.964 37.7561 103.984 36.7378 102.912 36.7465C101.933 36.7552 101.106 37.6865 101.089 38.7832C101.072 39.9931 101.832 40.7852 103.022 40.7852Z" fill="#A9C141"/>
<path d="M70.6761 26.5978C69.9418 26.6065 69.5535 26.9721 69.4691 27.6945C69.3931 28.3647 69.5366 28.9914 69.832 29.5833C70.5917 31.0804 71.5118 32.4643 72.491 33.8048C72.5754 33.9179 72.6767 34.0137 72.7864 34.092C72.9805 34.2313 73.2 34.2487 73.4279 34.1616C73.698 34.0485 73.8837 33.7613 73.7909 33.5001C73.4786 32.6123 73.411 31.6897 73.3013 30.7583C73.1662 29.6442 72.8792 28.5649 72.2968 27.5901C71.9085 26.946 71.3936 26.5543 70.6761 26.5978Z" fill="#467156"/>
<path d="M87.2712 44.241C87.2627 43.8581 86.8154 43.5969 86.4693 43.7797C86.3089 43.8668 86.1485 43.9625 86.0304 44.0931C85.1947 45.0244 84.1733 45.7294 83.211 46.5041C82.8228 46.8174 82.4429 47.1569 82.0799 47.5051C81.7761 47.7923 81.565 48.1492 81.3962 48.5408C81.1936 49.0109 81.1852 49.4374 81.4975 49.8552C81.8352 50.3078 82.3838 50.4731 82.9578 50.3252C83.3208 50.2294 83.6331 50.0728 83.9201 49.829C84.4856 49.359 85.009 48.8368 85.431 48.2275C86.0979 47.2788 86.6043 46.2343 87.0855 45.1724C87.2205 44.8677 87.2881 44.5544 87.2712 44.2236V44.241Z" fill="#467156"/>
<path d="M16.1131 34.8838C16.0962 34.7968 16.1131 34.6924 16.0709 34.614C15.9949 34.4486 15.9105 34.2746 15.7924 34.1353C14.8892 33.0299 13.986 31.9245 13.0575 30.8365C12.7283 30.4535 12.34 30.1227 11.8673 29.9138C11.4283 29.7223 10.981 29.6701 10.5927 30.027C10.2213 30.3751 10.1537 30.8278 10.3057 31.3152C10.5251 32.0463 10.905 32.6817 11.403 33.2301C12.4497 34.3877 13.7581 35.1102 15.2184 35.5454C15.5813 35.6498 16.0794 35.2581 16.1131 34.8838Z" fill="#467156"/>
<path d="M122.234 23.8389C121.601 23.8563 121.052 24.3177 120.951 24.9269C120.866 25.4405 120.883 25.954 121.12 26.4327C121.305 26.807 121.491 27.1813 121.711 27.5295C122.369 28.5391 123.146 29.4443 123.973 30.3148C124.091 30.4453 124.251 30.5411 124.412 30.6281C124.64 30.75 125.003 30.5149 125.011 30.2451C125.011 30.0623 125.028 29.8708 124.994 29.6881C124.825 28.7741 124.657 27.8602 124.445 26.955C124.234 26.0498 123.931 25.1619 123.357 24.4221C123.061 24.0391 122.681 23.8041 122.225 23.8389H122.234Z" fill="#467156"/>
<path d="M110.07 37.0952C110.087 37.8785 110.526 38.2876 111.278 38.2615C111.75 38.2441 112.164 38.0961 112.493 37.748C112.653 37.5826 112.814 37.4172 112.94 37.2257C113.785 35.9549 114.443 34.5797 115 33.1609C115.051 33.0304 115.101 32.8911 115.084 32.7605C115.068 32.5778 114.975 32.4037 114.772 32.3515C114.502 32.2731 114.215 32.2557 113.987 32.4298C112.797 33.335 111.514 34.1445 110.653 35.4414C110.315 35.9462 110.028 36.4685 110.054 37.1039L110.07 37.0952Z" fill="#467156"/>
<path d="M55.5919 38.9833C55.6763 38.9572 55.8451 38.9137 56.014 38.844C56.6133 38.5916 57.1113 38.1825 57.508 37.6603C58.4281 36.433 59.0865 35.0491 59.7027 33.6477C59.7365 33.5694 59.7365 33.4649 59.7449 33.3779C59.7702 33.169 59.5761 32.9079 59.3651 32.873C59.0865 32.8208 58.8248 32.873 58.5885 33.0384C57.2548 34.0133 55.9633 35.0317 55.0179 36.4417C54.6718 36.9553 54.4608 37.5036 54.5537 38.1477C54.6212 38.6003 55.0854 39.0181 55.5919 38.992V38.9833Z" fill="#467156"/>
<path d="M37.6041 29.1569C37.3846 29.1656 37.2074 29.1656 37.0301 29.1917C36.5996 29.2527 36.2704 29.5051 36.1016 29.9055C35.9243 30.3233 36.0341 30.7237 36.3126 31.0718C36.549 31.3591 36.8106 31.6115 37.1483 31.7595C37.5197 31.9248 37.8911 32.1337 38.2794 32.2034C39.5709 32.4471 40.8792 32.4384 42.1623 32.1598C42.4155 32.1076 42.6687 31.9683 42.9051 31.8378C43.1668 31.6898 43.1583 31.1676 42.8966 31.0022C42.7785 30.9326 42.6603 30.8716 42.5337 30.8194C41.5292 30.419 40.5247 30.0099 39.5202 29.6183C39.1404 29.4703 38.7605 29.3397 38.3638 29.2353C38.1021 29.1656 37.832 29.1743 37.5957 29.1482L37.6041 29.1569Z" fill="#467156"/>
<path d="M1.79713 56.3135C1.75493 57.0098 1.83934 57.6974 2.05881 58.3676C2.29516 59.0901 2.80162 59.5601 3.2912 59.473C3.9074 59.3599 4.14374 58.8725 4.33789 58.3154C4.52359 57.7671 4.54891 57.21 4.48139 56.6616C4.32945 55.3647 4.03401 54.1026 3.51067 52.9102C3.41781 52.7013 3.28276 52.5098 3.13082 52.3444C2.90291 52.1007 2.45554 52.1703 2.32048 52.4663C2.24451 52.6317 2.14322 52.8057 2.12633 52.9798C2.0166 54.0852 1.74649 55.1819 1.80557 56.3222L1.79713 56.3135Z" fill="#467156"/>
<path d="M95.0707 31.1153C94.8597 31.0891 94.4123 31.2719 94.0325 31.6549C93.6948 31.9944 93.6526 32.5253 93.9481 32.9257C94.2857 33.387 94.7584 33.6569 95.2649 33.8832C96.1174 34.2661 97.0206 34.3184 97.9238 34.3184C98.3712 34.3184 98.827 34.2661 99.2744 34.2139C99.5951 34.1704 99.8906 34.0485 100.093 33.7787C100.211 33.622 100.27 33.4218 100.118 33.2739C98.7848 32.0031 97.2401 31.211 95.0707 31.1153Z" fill="#467156"/>
<path d="M25.1873 48.2448C25.2379 49.0891 25.9048 49.5417 26.5463 49.2544C26.8333 49.1239 27.1119 48.9585 27.3482 48.7409C28.589 47.6007 29.3572 46.1297 30.0662 44.6065C30.1506 44.4324 30.1 44.2322 29.9734 44.0842C29.8468 43.9363 29.6695 43.8579 29.4838 43.9363C27.8293 44.65 26.4112 45.6945 25.4321 47.2873C25.2295 47.6094 25.1704 47.9749 25.1873 48.2361V48.2448Z" fill="#467156"/>
<path d="M5.58716 43.4578C5.73066 44.5545 6.07674 45.7992 6.75202 46.9307C6.99681 47.3311 7.32601 47.6531 7.73963 47.862C7.90001 47.9404 8.07727 47.9839 8.25453 48.0013C8.68502 48.0535 9.08175 47.7315 9.09863 47.2875C9.10707 46.9655 9.08175 46.6347 9.00578 46.3214C8.87917 45.8253 8.65126 45.3639 8.34738 44.9462C7.82404 44.2411 7.30913 43.5274 6.77735 42.8398C6.64229 42.6657 6.44815 42.5264 6.26244 42.4046C6.03453 42.2479 5.65469 42.422 5.61248 42.6831C5.61248 42.7266 5.58716 42.7701 5.58716 42.8224C5.58716 42.9616 5.58716 43.1009 5.58716 43.4578Z" fill="#467156"/>
<path d="M46.9821 39.9242C47.9866 39.898 48.7463 38.7665 48.4593 37.7133C48.3073 37.1476 47.9866 36.7037 47.5392 36.3555C46.9399 35.8942 46.2477 35.8768 45.64 36.3207C45.0406 36.7646 44.7452 37.3913 44.8465 38.1398C44.99 39.1843 45.9438 39.9503 46.9736 39.9242H46.9821Z" fill="#FFBC0D"/>
<path d="M16.0288 43.5014C16.645 43.5449 17.1767 43.2663 17.6748 42.9443C18.1812 42.6135 18.3163 41.6561 17.9955 41.0294C17.5904 40.2286 16.3833 39.689 15.5476 39.9414C14.6697 40.2112 14.1717 41.0468 14.3152 42.0043C14.4418 42.8573 15.1593 43.484 16.0203 43.5014H16.0288Z" fill="#A9C141"/>
<path d="M70.0091 41.0293C71.0811 40.9858 71.7057 40.333 71.7311 39.2885C71.7564 38.1831 70.5493 37.3736 69.739 37.391C68.8105 37.4084 68.1267 38.2353 68.1436 39.2885C68.1689 40.3765 68.9118 41.0728 70.0091 41.0293Z" fill="#DB0007"/>
<path d="M61.7116 25.7535C61.7116 25.3705 61.5766 25.0224 61.2558 24.7961C60.9604 24.5872 60.6481 24.387 60.3104 24.2564C59.6689 24.0127 58.9092 24.2912 58.4956 24.857C58.0314 25.4924 58.0145 26.1452 58.445 26.798C58.5209 26.9112 58.6053 27.0243 58.7066 27.1201C59.23 27.5988 59.7955 27.9469 60.5468 27.6684C61.1123 27.4595 61.7961 26.4237 61.7032 25.7448L61.7116 25.7535Z" fill="#A9C141"/>
<path d="M1.99963 41.2726C2.05872 41.2465 2.24442 41.2117 2.37948 41.1072C3.1645 40.5067 3.4937 39.6711 3.44305 38.6788C3.43461 38.5047 3.33332 38.3219 3.22359 38.1827C2.68336 37.5212 1.56914 37.3819 0.885415 37.878C0.699712 38.0086 0.52245 38.1653 0.378953 38.3394C0.0328696 38.7484 -0.102187 39.2011 0.0835158 39.7494C0.218573 40.1498 0.353629 40.5328 0.649066 40.8374C0.986708 41.1943 1.40032 41.3248 1.99963 41.2639V41.2726Z" fill="#FFBC0D"/>
<path d="M27.88 38.0611C27.88 39.0185 28.5721 39.741 29.5091 39.7671C30.3194 39.7932 31.1804 38.7661 31.1129 37.8348C31.0453 36.9383 30.1928 36.3203 29.4331 36.2855C28.5974 36.2419 27.8715 37.0949 27.88 38.0611Z" fill="#DB0007"/>
<path d="M9.94263 54.5029C9.94263 54.7901 9.98483 55.0599 10.1537 55.295C10.6686 56 11.901 56.235 12.6016 55.7476C13.2768 55.2775 13.4035 54.294 12.8717 53.6673C12.5678 53.3104 12.2217 53.0145 11.7828 52.8491C11.3185 52.675 10.888 52.7534 10.5419 53.1276C10.1874 53.5106 9.95951 53.9545 9.94263 54.4942V54.5029Z" fill="#DB0007"/>
<path d="M296.219 41.56C298.346 41.5774 300.212 41.177 302.01 40.5416C303.892 39.8801 305.749 39.1229 307.606 38.3917C309.176 37.7737 310.746 37.1732 312.409 36.912C314.519 36.59 316.655 36.4681 318.748 37.0687C322.344 38.0958 324.497 40.62 325.56 44.2234C325.999 46.8086 325.814 49.2544 324.041 51.3434C323.087 52.4662 321.922 53.2322 320.496 53.5455C320.048 53.6412 319.601 53.7196 319.162 53.502C319.002 53.4149 318.867 53.2844 318.858 53.0755C318.858 52.8579 318.993 52.7186 319.162 52.6664C319.415 52.5793 319.685 52.5358 319.956 52.4923C322.648 52.0397 324.269 49.6983 324.59 47.4701C324.834 45.7815 324.531 44.2321 323.788 42.735C322.319 39.7844 319.964 38.2525 316.799 37.8782C314.587 37.6258 312.468 37.9652 310.375 38.618C308.29 39.2708 306.306 40.1848 304.272 40.9681C302.533 41.6383 300.769 42.2041 298.92 42.4913C297.291 42.7438 295.688 42.7525 294.058 42.4913C293.02 42.326 292.024 42.0561 291.053 41.6557C289.247 40.9159 287.77 39.6973 286.47 38.2263C285.828 37.5039 285.195 36.7728 284.588 36.0155C282.494 33.3956 279.827 31.7418 276.628 30.9846C274.813 30.5581 272.981 30.2795 271.116 30.3143C269.47 30.3405 267.874 30.5929 266.304 31.0803C263.333 32.0029 260.581 33.413 257.99 35.1625C256.327 36.2853 254.689 37.4691 253.01 38.5745C251.33 39.6886 249.599 40.6983 247.751 41.4904C245.362 42.5174 242.863 42.8917 240.306 42.6306C238.179 42.413 236.136 41.7776 234.194 40.8376C232.548 40.0368 231.004 39.0706 229.527 37.9739C227.391 36.3985 225.289 34.7708 222.993 33.4391C221.246 32.4294 219.448 31.5764 217.49 31.089C215.666 30.6364 213.843 30.5058 211.969 30.8018C209.26 31.2283 206.694 32.1161 204.187 33.1867C202.642 33.8482 201.131 34.5967 199.704 35.5194C198.658 36.1896 197.687 36.9381 196.818 37.8434C196.336 38.3395 195.847 38.8356 195.847 39.619C195.847 39.706 195.796 39.8105 195.737 39.8627C195.644 39.9585 195.526 40.0542 195.408 40.0803C195.214 40.1325 195.053 39.9933 194.961 39.8366C194.792 39.532 194.809 39.2099 194.91 38.8879C195.163 38.1132 195.627 37.4778 196.21 36.9468C196.851 36.3637 197.527 35.7979 198.219 35.2757C199.578 34.2486 201.08 33.4739 202.6 32.7515C205.191 31.5068 207.884 30.5581 210.686 29.9401C214.079 29.1828 217.346 29.5919 220.52 30.9584C222.782 31.942 224.884 33.2302 226.901 34.6664C228.387 35.7283 229.856 36.8337 231.35 37.8869C232.962 39.0271 234.693 39.941 236.541 40.6113C240.939 42.2041 245.176 41.8211 249.262 39.5232C251.009 38.5397 252.714 37.4778 254.369 36.3202C255.795 35.3192 257.205 34.3008 258.674 33.3869C261.316 31.7331 264.11 30.4101 267.14 29.6702C269.461 29.1045 271.799 29.0784 274.154 29.383C275.64 29.5745 277.1 29.8704 278.527 30.3492C280.671 31.0716 282.57 32.2379 284.157 33.8917C284.959 34.7186 285.71 35.5977 286.453 36.4681C287.289 37.4517 288.141 38.4178 289.154 39.2273C290.437 40.2544 291.898 40.8724 293.451 41.2292C294.421 41.4556 295.409 41.647 296.211 41.5687L296.219 41.56Z" fill="#292929"/>
<path d="M205.757 38.8183C204.668 38.7922 203.781 38.1568 203.435 37.2167C203.241 36.7032 203.266 36.2158 203.494 35.7371C203.933 34.8318 204.651 34.3096 205.621 34.2487C206.584 34.1877 207.267 34.6752 207.69 35.5369C208.517 37.2255 207.048 38.9576 205.748 38.8183H205.757Z" fill="#FFAF00"/>
<path d="M215.903 24.0738C216.941 24.1086 217.827 24.9181 217.937 25.9278C218.072 27.1811 217.54 28.0341 216.451 28.391C215.54 28.6957 214.746 28.3736 214.063 27.834C213.396 27.3204 213.328 25.8929 213.835 25.1444C214.333 24.3958 215.025 24.039 215.903 24.0738Z" fill="#DB0007"/>
<path d="M242.923 36.1377C244.02 36.0855 244.932 37.0429 244.915 38.1135C244.889 39.2799 244.197 40.1068 243.134 40.1416C241.884 40.1764 241.007 39.2799 240.981 38.0091C240.956 36.9037 241.969 36.1116 242.923 36.1464V36.1377Z" fill="#FFAF00"/>
<path d="M224.977 40.7852C223.896 40.7852 223.027 39.9496 223.035 38.9051C223.035 37.7561 224.015 36.7378 225.087 36.7465C226.066 36.7552 226.893 37.6865 226.91 38.7832C226.927 39.9931 226.167 40.7852 224.977 40.7852Z" fill="#A9C141"/>
<path d="M257.323 26.5978C258.057 26.6065 258.446 26.9721 258.53 27.6945C258.606 28.3647 258.463 28.9914 258.167 29.5833C257.407 31.0804 256.487 32.4643 255.508 33.8048C255.424 33.9179 255.323 34.0137 255.213 34.092C255.019 34.2313 254.799 34.2487 254.571 34.1616C254.301 34.0485 254.115 33.7613 254.208 33.5001C254.521 32.6123 254.588 31.6897 254.698 30.7583C254.833 29.6442 255.12 28.5649 255.702 27.5901C256.091 26.946 256.606 26.5543 257.323 26.5978Z" fill="#1F6437"/>
<path d="M240.728 44.241C240.736 43.8581 241.183 43.5969 241.53 43.7797C241.69 43.8668 241.85 43.9625 241.968 44.0931C242.804 45.0244 243.826 45.7294 244.788 46.5041C245.176 46.8174 245.556 47.1569 245.919 47.5051C246.223 47.7923 246.434 48.1492 246.603 48.5408C246.805 49.0109 246.814 49.4374 246.501 49.8552C246.164 50.3078 245.615 50.4731 245.041 50.3252C244.678 50.2294 244.366 50.0728 244.079 49.829C243.513 49.359 242.99 48.8368 242.568 48.2275C241.901 47.2788 241.394 46.2343 240.913 45.1724C240.778 44.8677 240.711 44.5544 240.728 44.2236V44.241Z" fill="#1F6437"/>
<path d="M311.886 34.8838C311.903 34.7968 311.886 34.6924 311.928 34.614C312.004 34.4486 312.088 34.2746 312.207 34.1353C313.11 33.0299 314.013 31.9245 314.941 30.8365C315.271 30.4535 315.659 30.1227 316.132 29.9138C316.571 29.7223 317.018 29.6701 317.406 30.027C317.778 30.3751 317.845 30.8278 317.693 31.3152C317.474 32.0463 317.094 32.6817 316.596 33.2301C315.549 34.3877 314.241 35.1102 312.78 35.5454C312.418 35.6498 311.92 35.2581 311.886 34.8838Z" fill="#1F6437"/>
<path d="M205.765 23.8389C206.398 23.8563 206.947 24.3177 207.048 24.9269C207.132 25.4405 207.116 25.954 206.879 26.4327C206.693 26.807 206.508 27.1813 206.288 27.5295C205.63 28.5391 204.853 29.4443 204.026 30.3148C203.908 30.4453 203.748 30.5411 203.587 30.6281C203.359 30.75 202.996 30.5149 202.988 30.2451C202.988 30.0623 202.971 29.8708 203.005 29.6881C203.174 28.7741 203.342 27.8602 203.553 26.955C203.764 26.0498 204.068 25.1619 204.642 24.4221C204.938 24.0391 205.318 23.8041 205.773 23.8389H205.765Z" fill="#1F6437"/>
<path d="M217.928 37.0952C217.912 37.8785 217.473 38.2876 216.721 38.2615C216.249 38.2441 215.835 38.0961 215.506 37.748C215.345 37.5826 215.185 37.4172 215.058 37.2257C214.214 35.9549 213.556 34.5797 212.999 33.1609C212.948 33.0304 212.898 32.8911 212.914 32.7605C212.931 32.5778 213.024 32.4037 213.227 32.3515C213.497 32.2731 213.784 32.2557 214.012 32.4298C215.202 33.335 216.485 34.1445 217.346 35.4414C217.684 35.9462 217.971 36.4685 217.945 37.1039L217.928 37.0952Z" fill="#1F6437"/>
<path d="M272.407 38.9833C272.323 38.9572 272.154 38.9137 271.985 38.844C271.386 38.5916 270.888 38.1825 270.491 37.6603C269.571 36.433 268.912 35.0491 268.296 33.6477C268.262 33.5694 268.262 33.4649 268.254 33.3779C268.229 33.169 268.423 32.9079 268.634 32.873C268.912 32.8208 269.174 32.873 269.41 33.0384C270.744 34.0133 272.036 35.0317 272.981 36.4417C273.327 36.9553 273.538 37.5036 273.445 38.1477C273.378 38.6003 272.913 39.0181 272.407 38.992V38.9833Z" fill="#1F6437"/>
<path d="M290.395 29.1569C290.614 29.1656 290.792 29.1656 290.969 29.1917C291.399 29.2527 291.729 29.5051 291.897 29.9055C292.075 30.3233 291.965 30.7237 291.686 31.0718C291.45 31.3591 291.188 31.6115 290.851 31.7595C290.479 31.9248 290.108 32.1337 289.72 32.2034C288.428 32.4471 287.12 32.4384 285.837 32.1598C285.584 32.1076 285.33 31.9683 285.094 31.8378C284.832 31.6898 284.841 31.1676 285.102 31.0022C285.221 30.9326 285.339 30.8716 285.465 30.8194C286.47 30.419 287.474 30.0099 288.479 29.6183C288.859 29.4703 289.238 29.3397 289.635 29.2353C289.897 29.1656 290.167 29.1743 290.403 29.1482L290.395 29.1569Z" fill="#1F6437"/>
<path d="M326.202 56.3135C326.244 57.0098 326.16 57.6974 325.94 58.3676C325.704 59.0901 325.197 59.5601 324.708 59.473C324.091 59.3599 323.855 58.8725 323.661 58.3154C323.475 57.7671 323.45 57.21 323.518 56.6616C323.669 55.3647 323.965 54.1026 324.488 52.9102C324.581 52.7013 324.716 52.5098 324.868 52.3444C325.096 52.1007 325.543 52.1703 325.678 52.4663C325.754 52.6317 325.856 52.8057 325.873 52.9798C325.982 54.0852 326.252 55.1819 326.193 56.3222L326.202 56.3135Z" fill="#1F6437"/>
<path d="M232.928 31.1153C233.139 31.0891 233.587 31.2719 233.967 31.6549C234.304 31.9944 234.346 32.5253 234.051 32.9257C233.713 33.387 233.241 33.6569 232.734 33.8832C231.882 34.2661 230.978 34.3184 230.075 34.3184C229.628 34.3184 229.172 34.2661 228.725 34.2139C228.404 34.1704 228.108 34.0485 227.906 33.7787C227.788 33.622 227.729 33.4218 227.881 33.2739C229.214 32.0031 230.759 31.211 232.928 31.1153Z" fill="#1F6437"/>
<path d="M302.812 48.2448C302.761 49.0891 302.094 49.5417 301.453 49.2544C301.166 49.1239 300.887 48.9585 300.651 48.7409C299.41 47.6007 298.642 46.1297 297.933 44.6065C297.848 44.4324 297.899 44.2322 298.026 44.0842C298.152 43.9363 298.329 43.8579 298.515 43.9363C300.17 44.65 301.588 45.6945 302.567 47.2873C302.769 47.6094 302.829 47.9749 302.812 48.2361V48.2448Z" fill="#1F6437"/>
<path d="M322.412 43.4578C322.268 44.5545 321.922 45.7992 321.247 46.9307C321.002 47.3311 320.673 47.6531 320.259 47.862C320.099 47.9404 319.922 47.9839 319.744 48.0013C319.314 48.0535 318.917 47.7315 318.9 47.2875C318.892 46.9655 318.917 46.6347 318.993 46.3214C319.12 45.8253 319.348 45.3639 319.651 44.9462C320.175 44.2411 320.69 43.5274 321.222 42.8398C321.357 42.6657 321.551 42.5264 321.736 42.4046C321.964 42.2479 322.344 42.422 322.386 42.6831C322.386 42.7266 322.412 42.7701 322.412 42.8224C322.412 42.9616 322.412 43.1009 322.412 43.4578Z" fill="#1F6437"/>
<path d="M281.017 39.9242C280.012 39.898 279.253 38.7665 279.54 37.7133C279.692 37.1476 280.012 36.7037 280.46 36.3555C281.059 35.8942 281.751 35.8768 282.359 36.3207C282.958 36.7646 283.254 37.3913 283.153 38.1398C283.009 39.1843 282.055 39.9503 281.025 39.9242H281.017Z" fill="#FFAF00"/>
<path d="M311.97 43.5014C311.354 43.5449 310.822 43.2663 310.324 42.9443C309.818 42.6135 309.683 41.6561 310.003 41.0294C310.409 40.2286 311.616 39.689 312.451 39.9414C313.329 40.2112 313.827 41.0468 313.684 42.0043C313.557 42.8573 312.84 43.484 311.979 43.5014H311.97Z" fill="#A9C141"/>
<path d="M257.99 41.0293C256.918 40.9858 256.293 40.333 256.268 39.2885C256.242 38.1831 257.449 37.3736 258.26 37.391C259.188 37.4084 259.872 38.2353 259.855 39.2885C259.83 40.3765 259.087 41.0728 257.99 41.0293Z" fill="#DB0007"/>
<path d="M266.287 25.7535C266.287 25.3705 266.422 25.0224 266.743 24.7961C267.038 24.5872 267.351 24.387 267.688 24.2564C268.33 24.0127 269.09 24.2912 269.503 24.857C269.968 25.4924 269.984 26.1452 269.554 26.798C269.478 26.9112 269.394 27.0243 269.292 27.1201C268.769 27.5988 268.203 27.9469 267.452 27.6684C266.887 27.4595 266.203 26.4237 266.296 25.7448L266.287 25.7535Z" fill="#A9C141"/>
<path d="M325.999 41.2726C325.94 41.2465 325.754 41.2117 325.619 41.1072C324.834 40.5067 324.505 39.6711 324.556 38.6788C324.564 38.5047 324.666 38.3219 324.775 38.1827C325.316 37.5212 326.43 37.3819 327.113 37.878C327.299 38.0086 327.476 38.1653 327.62 38.3394C327.966 38.7484 328.101 39.2011 327.915 39.7494C327.78 40.1498 327.645 40.5328 327.35 40.8374C327.012 41.1943 326.599 41.3248 325.999 41.2639V41.2726Z" fill="#FFAF00"/>
<path d="M300.119 38.0611C300.119 39.0185 299.427 39.741 298.49 39.7671C297.68 39.7932 296.819 38.7661 296.886 37.8348C296.954 36.9383 297.806 36.3203 298.566 36.2855C299.402 36.2419 300.127 37.0949 300.119 38.0611Z" fill="#DB0007"/>
<path d="M318.056 54.5029C318.056 54.7901 318.014 55.0599 317.845 55.295C317.33 56 316.098 56.235 315.397 55.7476C314.722 55.2775 314.596 54.294 315.127 53.6673C315.431 53.3104 315.777 53.0145 316.216 52.8491C316.681 52.675 317.111 52.7534 317.457 53.1276C317.812 53.5106 318.04 53.9545 318.056 54.4942V54.5029Z" fill="#DB0007"/>
<path d="M188.898 25.8918C188.554 25.8022 188.36 25.5723 188.155 25.3386C187.7 24.8206 187.243 24.3077 186.78 23.798C186.601 23.6025 186.408 23.4014 186.191 23.2491C185.741 22.9269 185.265 22.6924 184.703 23.0152C184.543 23.106 184.33 23.1034 184.159 23.1786C183.743 23.3541 183.34 23.3173 182.929 23.1578C182.569 23.0167 182.211 22.8876 181.848 22.7567C180.001 22.1079 178.141 21.4944 176.308 20.8052C174.44 20.1031 172.609 19.3119 170.938 18.207C170.685 18.0417 170.426 17.8627 170.221 17.646C169.856 17.2632 169.844 16.8308 170.126 16.4015C172.09 13.3588 174.029 12.1679 176.416 10.9963C177.617 10.4073 178.867 9.93878 180.186 9.64908C180.971 9.47543 181.77 9.35833 182.574 9.37402C184.027 9.40108 185.372 9.80618 186.516 10.7381C186.932 11.0763 187.283 11.4825 187.593 11.9199C188.879 13.725 189.692 15.7194 190.086 17.8823C190.391 19.5681 190.561 21.2621 190.56 22.9801C190.563 23.7746 190.622 24.5724 190.647 25.3692C190.662 25.9055 190.305 26.2051 189.764 26.1015C189.462 26.0437 189.17 25.9556 188.9 25.8868L188.898 25.8918Z" fill="#AF0008"/>
<path d="M177.846 25.9842C175.664 25.2376 173.603 24.2205 171.604 23.0775C170.71 22.5609 169.792 22.0759 168.91 21.5408C168.455 21.2627 168.027 20.9258 167.631 20.566C166.944 19.9531 166.53 19.1931 166.568 18.2534C166.597 17.5959 166.847 17.0007 167.2 16.4543C167.361 16.1986 167.574 15.9783 167.772 15.7474C168.323 15.1011 169.036 14.9356 169.845 15.1301C170.744 15.3457 171.59 15.725 172.415 16.1308C173.995 16.9116 175.571 17.7025 177.141 18.4966C178.338 19.1051 179.522 19.732 180.714 20.3386C181.637 20.8084 182.552 21.2865 183.493 21.7228C183.918 21.9219 184.305 22.164 184.66 22.4461C185.101 22.7936 185.341 23.2511 185.31 23.8337C185.248 24.953 184.802 25.883 183.956 26.6112C183.342 27.1434 182.595 27.2909 181.806 27.1379C181.018 26.9848 180.219 26.874 179.461 26.5721C178.926 26.3564 178.376 26.1811 177.834 25.9856L177.846 25.9842Z" fill="#F0EFEF"/>
<path d="M187.695 26.3895C187.787 26.1828 187.86 25.9637 187.981 25.7732C188.077 25.6194 188.199 25.4408 188.354 25.3651C189.419 24.8302 190.504 24.6275 191.612 25.2897C192.77 25.9753 193.382 26.9383 193.184 28.3055C193.151 28.5274 193.122 28.7511 193.104 28.9786C192.99 30.1764 192.057 30.7422 191.26 30.8373C190.482 30.9278 189.753 30.8308 189.083 30.3494C188.402 29.8642 187.918 29.2502 187.646 28.4839C187.394 27.7879 187.343 27.0788 187.69 26.3876L187.695 26.3895Z" fill="#F0EFEF"/>
<g clip-path="url(#clip0_16606_7244)">
<path d="M243.037 10.2062C242.856 10.8961 243.288 11.5961 244.02 11.8035C244.104 11.825 244.188 11.8464 244.274 11.8568C244.528 11.8958 244.793 11.8973 245.046 11.9221C245.359 11.9497 245.672 11.9702 245.986 11.9978C246.055 12.0069 246.123 12.016 246.195 12.021C246.521 12.0651 246.735 12.2533 246.9 12.5415C246.933 12.602 246.967 12.6625 246.993 12.724C247.249 13.2741 247.274 13.8578 247.158 14.4528C247.134 14.5675 247.104 14.6902 247.07 14.8099C246.948 15.2399 246.785 15.6572 246.574 16.034C246.425 16.2947 246.256 16.5327 246.057 16.7458C245.834 17.0197 245.605 17.262 245.364 17.4878C245.003 17.823 244.623 18.1172 244.24 18.4012C243.561 18.9 242.857 19.3517 242.137 19.7768C241.629 20.0804 241.107 20.3717 240.587 20.6518C240.556 20.6667 240.532 20.6806 240.504 20.6985C239.296 21.3491 238.084 22.0037 236.85 22.5929C236.297 22.8593 235.739 23.1155 235.169 23.3481C234.656 23.5662 234.137 23.7669 233.607 23.9511C233.271 24.0668 232.939 24.218 232.641 24.4044C231.864 24.8837 231.754 25.665 232.351 26.2788C232.774 26.71 233.29 26.9093 233.909 26.8576C234.098 26.8438 234.289 26.8046 234.472 26.7592C234.703 26.7003 234.93 26.6168 235.156 26.5261C235.615 26.344 236.07 26.1516 236.521 25.9561C237.714 25.4335 238.881 24.8567 240.044 24.2697C240.527 24.0268 241.014 23.7798 241.497 23.5369C241.68 23.4447 241.86 23.3565 242.039 23.2611C243.301 22.6072 244.522 21.8937 245.711 21.1197C246.086 20.8763 246.455 20.6268 246.819 20.3741C247.084 20.1883 247.353 19.9914 247.606 19.7891C248.096 19.3905 248.565 18.9621 248.977 18.4872C249.993 17.3179 250.798 16.0103 251.261 14.5384C251.316 14.362 251.367 14.1825 251.414 13.9999C251.518 13.5758 251.564 13.1773 251.553 12.7862C251.521 11.8431 251.162 11.0076 250.474 10.2328C249.735 9.40338 248.888 8.80053 247.908 8.4382C247.485 8.28082 247.036 8.16994 246.559 8.10958C246.403 8.09018 246.245 8.07482 246.094 8.0728C245.28 8.0527 244.509 8.2826 243.817 8.89124C243.396 9.25921 243.169 9.71019 243.037 10.2062Z" fill="#9E0007"/>
<path d="M246.047 16.7504C245.824 17.0243 245.595 17.2666 245.354 17.4924C245.812 18.4555 246.023 19.5049 245.783 20.7029C245.757 20.8359 245.728 20.973 245.695 21.1069C246.071 20.8636 246.439 20.614 246.803 20.3613C247.069 20.1755 247.337 19.9786 247.591 19.7764C247.625 18.4575 247.238 17.2581 246.617 16.1361C246.6 16.1023 246.579 16.0653 246.559 16.0355C246.41 16.2962 246.242 16.5342 246.043 16.7473L246.047 16.7504Z" fill="#FFE5CB"/>
<path d="M246.989 12.7279C247.245 13.278 247.271 13.8616 247.154 14.4566C247.698 14.2634 248.259 14.1508 248.847 14.1607C249.683 14.1781 250.481 14.312 251.264 14.5342C251.319 14.3578 251.37 14.1783 251.417 13.9957C251.521 13.5716 251.567 13.1731 251.556 12.782C250.738 12.5715 249.901 12.4391 249.022 12.4274C248.331 12.4201 247.654 12.5261 246.996 12.7269L246.989 12.7279Z" fill="#FFE5CB"/>
<path d="M246.09 8.07643C245.236 9.28963 244.663 10.5453 244.271 11.8604C244.524 11.8994 244.789 11.901 245.042 11.9257C245.356 11.9534 245.669 11.9739 245.982 12.0015C246.213 11.3449 246.502 10.7095 246.813 10.0784C247.111 9.47058 247.479 8.93292 247.908 8.43781C247.484 8.28043 247.036 8.16955 246.558 8.10919C246.403 8.08979 246.244 8.07443 246.094 8.07241L246.09 8.07643Z" fill="#FFE5CB"/>
<path d="M240.49 20.6996C240.505 20.9462 240.506 21.2017 240.496 21.4551C240.468 22.4167 240.305 23.3491 240.029 24.2636C240.512 24.0207 240.999 23.7738 241.482 23.5308C241.665 23.4386 241.845 23.3504 242.024 23.2551C242.231 22.0973 242.263 20.9372 242.122 19.7778C241.615 20.0815 241.092 20.3728 240.572 20.6529C240.541 20.6677 240.517 20.6817 240.49 20.6996Z" fill="#FFE5CB"/>
<path d="M235.162 23.3488C235.139 24.4826 234.887 25.6173 234.464 26.7529C234.696 26.6939 234.922 26.6104 235.148 26.5198C235.607 26.3376 236.062 26.1452 236.513 25.9497C236.795 24.8326 236.89 23.711 236.842 22.5936C236.289 22.86 235.732 23.1162 235.162 23.3488Z" fill="#FFE5CB"/>
</g>
<g clip-path="url(#clip1_16606_7244)">
<path d="M108.161 56.3035C108.854 56.3288 109.426 55.7705 109.467 55.0325C109.47 54.9483 109.472 54.8641 109.464 54.7797C109.447 54.5309 109.392 54.2791 109.362 54.0344C109.321 53.7311 109.274 53.4298 109.234 53.1265C109.228 53.0594 109.222 52.9923 109.211 52.923C109.184 52.6048 109.317 52.3613 109.555 52.1438C109.605 52.0995 109.656 52.0552 109.708 52.0174C110.176 51.6578 110.724 51.5094 111.313 51.4937C111.427 51.4917 111.55 51.4943 111.67 51.5012C112.104 51.5254 112.534 51.5906 112.937 51.7114C113.215 51.7971 113.477 51.9063 113.721 52.0497C114.029 52.203 114.307 52.3687 114.572 52.5493C114.967 52.8211 115.327 53.1182 115.677 53.4215C116.295 53.9594 116.873 54.531 117.429 55.1238C117.825 55.5404 118.212 55.9741 118.588 56.4076C118.609 56.434 118.627 56.4538 118.65 56.4759C119.524 57.4836 120.402 58.4937 121.223 59.5392C121.593 60.0071 121.955 60.4813 122.296 60.9724C122.612 61.4133 122.913 61.8624 123.201 62.3265C123.381 62.6197 123.596 62.9029 123.836 63.1456C124.455 63.7807 125.22 63.719 125.675 63.0221C125.994 62.5298 126.073 61.9978 125.893 61.4215C125.839 61.2454 125.762 61.0731 125.68 60.9094C125.575 60.702 125.447 60.5049 125.313 60.3098C125.043 59.9131 124.764 59.5227 124.483 59.1366C123.734 58.1163 122.938 57.1318 122.135 56.1536C121.802 55.747 121.464 55.3381 121.131 54.9314C121.005 54.7775 120.883 54.6259 120.754 54.4763C119.866 53.4186 118.93 52.4117 117.943 51.4491C117.632 51.1444 117.318 50.8483 117 50.5565C116.768 50.3442 116.524 50.1317 116.278 49.9343C115.796 49.5548 115.29 49.2007 114.752 48.9107C113.428 48.196 112.017 47.7105 110.522 47.5842C110.343 47.5696 110.162 47.5593 109.979 47.5533C109.554 47.5444 109.167 47.586 108.798 47.6798C107.911 47.9096 107.195 48.4282 106.606 49.2454C105.977 50.1223 105.585 51.0538 105.449 52.0599C105.39 52.495 105.38 52.9442 105.425 53.4096C105.439 53.5611 105.458 53.7149 105.488 53.8581C105.642 54.6347 106.024 55.3168 106.749 55.844C107.187 56.1642 107.663 56.2844 108.161 56.3035Z" fill="#9E0007"/>
<path d="M113.728 52.0591C114.035 52.2124 114.314 52.3781 114.579 52.5587C115.395 51.919 116.345 51.4961 117.533 51.4691C117.664 51.4654 117.8 51.464 117.935 51.4668C117.624 51.1621 117.309 50.866 116.992 50.5742C116.759 50.362 116.516 50.1494 116.27 49.952C115.012 50.2 113.957 50.8217 113.024 51.649C112.996 51.6721 112.965 51.6996 112.941 51.725C113.22 51.8108 113.482 51.92 113.726 52.0634L113.728 52.0591Z" fill="#FFE5CB"/>
<path d="M109.713 52.0206C110.18 51.661 110.728 51.5126 111.317 51.4969C111.018 51.0218 110.792 50.5137 110.677 49.9539C110.516 49.1577 110.473 48.3726 110.518 47.5828C110.339 47.5683 110.158 47.558 109.974 47.552C109.55 47.5431 109.162 47.5847 108.794 47.6785C108.768 48.4989 108.82 49.3209 108.996 50.1563C109.136 50.8138 109.38 51.4325 109.711 52.0141L109.713 52.0206Z" fill="#FFE5CB"/>
<path d="M105.493 53.8613C106.825 54.4142 108.138 54.6902 109.468 54.7829C109.451 54.5341 109.396 54.2823 109.366 54.0376C109.326 53.7343 109.279 53.433 109.238 53.1297C108.567 53.0508 107.903 52.9116 107.238 52.7508C106.598 52.5969 106.01 52.3621 105.449 52.0608C105.39 52.496 105.38 52.9451 105.424 53.4105C105.439 53.5621 105.458 53.7158 105.488 53.8591L105.493 53.8613Z" fill="#FFE5CB"/>
<path d="M118.655 56.4899C118.885 56.4234 119.128 56.368 119.37 56.3234C120.288 56.1461 121.207 56.1027 122.133 56.1696C121.8 55.763 121.462 55.3541 121.129 54.9474C121.003 54.7936 120.881 54.642 120.752 54.4924C119.61 54.5419 118.503 54.7585 117.434 55.1379C117.83 55.5545 118.217 55.9882 118.593 56.4216C118.614 56.448 118.632 56.4678 118.655 56.4899Z" fill="#FFE5CB"/>
<path d="M122.299 60.9796C123.379 60.7603 124.508 60.758 125.675 60.9186C125.57 60.7111 125.443 60.514 125.309 60.319C125.039 59.9223 124.759 59.5319 124.478 59.1458C123.359 59.1158 122.275 59.2638 121.225 59.5464C121.596 60.0143 121.957 60.4885 122.299 60.9796Z" fill="#FFE5CB"/>
</g>
<g clip-path="url(#clip2_16606_7244)">
<path d="M62.5973 51.1073C63.0073 51.141 63.4172 51.1747 63.8272 51.2083C63.9784 51.2208 64.1376 51.2339 64.2826 51.2743C64.5293 51.3435 64.7286 51.6004 64.7073 51.8596C64.6604 52.4305 64.6058 52.9967 64.539 53.566C64.4868 54.006 64.3988 54.4431 64.3505 54.8835C64.2668 55.6104 64.2029 56.3389 64.0517 57.0562C64.0252 57.1845 64.0145 57.314 63.9959 57.4429C63.7895 59.077 63.587 60.7113 63.3726 62.3446C63.3184 62.7601 63.2367 63.1692 63.1706 63.5836C63.1158 63.9093 62.9054 64.0795 62.6069 64.1528C62.5087 64.1774 62.4046 64.1769 62.3004 64.1765C61.3007 64.1514 60.2974 64.122 59.2973 64.1009C58.089 64.079 56.8839 64.0656 55.6753 64.0478C55.6235 64.0435 55.5711 64.0474 55.519 64.0472C54.3634 64.0174 53.2075 63.9917 52.0522 63.9579C51.7444 63.9489 51.4337 63.9274 51.1282 63.8901C50.7832 63.8454 50.5767 63.6287 50.5214 63.2776C50.5058 63.1744 50.5065 63.0685 50.5108 62.967C50.56 61.6869 50.613 60.4072 50.6542 59.1265C50.7004 57.6383 50.7267 56.1484 50.7808 54.6609C50.8186 53.6163 50.8846 52.57 50.9423 51.5271C50.9506 51.4259 50.9712 51.3216 50.9997 51.2179C51.0512 51.0306 51.174 50.9021 51.3521 50.8311C51.5717 50.7432 51.8012 50.7294 52.0367 50.7406C53.4743 50.8017 54.9114 50.8668 56.35 50.9158C57.9404 50.9691 59.5318 51.0102 61.1266 51.0597C61.6142 51.0754 62.1008 51.1031 62.592 51.1231C62.5927 51.115 62.5933 51.1069 62.594 51.0988L62.5973 51.1073Z" fill="#FFBC0D"/>
<path d="M55.7967 53.5973C55.846 52.9981 55.8833 52.3978 55.9485 51.7998C55.9914 51.4243 55.8909 51.1836 55.5646 50.9612C54.1956 50.017 52.9265 48.2006 52.4529 46.6004C52.2587 45.9403 52.2015 45.2711 52.3258 44.5883C52.4341 44.0021 52.6992 43.5062 53.1441 43.1147C53.6843 42.6373 54.3795 42.564 55.0076 42.9173C55.4444 43.1611 55.7839 43.5151 56.0671 43.9216C56.5048 44.5446 56.8087 45.234 57.0089 45.9679C57.2272 46.7727 57.421 47.5835 57.4722 48.4234C57.4762 48.4726 57.5007 48.5154 57.513 48.5613C57.5723 48.5213 57.6589 48.4917 57.6918 48.4333C57.7847 48.2779 57.8547 48.1083 57.944 47.9485C58.4043 47.1262 58.9173 46.3449 59.5477 45.6467C59.8649 45.2977 60.2255 45.0053 60.6365 44.7823C60.8631 44.6582 61.1026 44.5719 61.3594 44.5197C62.3376 44.3188 63.1096 44.8714 63.2072 45.8782C63.2545 46.3753 63.194 46.8677 62.9716 47.3304C62.8123 47.6598 62.6148 47.9656 62.3869 48.2526C61.5723 49.2904 60.5687 50.0925 59.4657 50.7886C59.2291 50.9362 58.8994 50.9988 58.7846 51.2747C58.6893 51.5074 58.6945 51.7851 58.6812 52.0449C58.6225 53.2467 58.576 54.4454 58.5293 55.6482C58.5199 55.8594 58.6068 55.9726 58.7806 55.9542C59.451 55.8911 60.1166 55.9825 60.784 56.0048C61.7074 56.0317 62.6348 56.0591 63.5565 56.1063C64.478 56.1576 64.6584 56.3518 64.7218 57.2864C64.7198 57.3107 64.7254 57.3397 64.7274 57.3643C64.7444 58.181 64.4186 58.5374 63.6285 58.4969C62.7827 58.4519 61.9339 58.4433 61.0855 58.4306C60.3412 58.4183 59.5955 58.4223 58.8499 58.4262C58.7215 58.4279 58.5915 58.4498 58.4724 58.4849C58.4107 58.5042 58.3327 58.5753 58.3198 58.6354C58.2872 58.7876 58.2822 58.9462 58.2692 59.1041C58.1411 60.6141 58.0126 62.1281 57.8805 63.6378C57.8719 63.7431 57.8636 63.8443 57.8549 63.9496C57.8263 64.2978 57.6511 64.528 57.3283 64.6523C56.9395 64.7997 56.5332 64.8682 56.1256 64.904C55.706 64.9388 55.4237 64.7159 55.3741 64.296C55.3258 63.9088 55.2941 63.5149 55.3101 63.1249C55.3639 61.7392 55.3576 60.3527 55.491 58.9736C55.4997 58.8683 55.5083 58.763 55.5047 58.6608C55.5054 58.5059 55.4292 58.41 55.2816 58.4019C54.8988 58.3786 54.5101 58.3304 54.1273 58.356C53.4059 58.4067 52.6874 58.3232 51.9737 58.2809C51.511 58.2551 51.0476 58.2374 50.5909 58.1876C50.0509 58.1269 49.78 57.8152 49.7337 57.257C49.7043 56.8836 49.7697 56.5262 49.8906 56.1774C49.9799 55.9198 50.153 55.8117 50.428 55.8302C51.0177 55.8705 51.6055 55.9352 52.1975 55.9471C53.1455 55.968 54.0961 55.9564 55.0458 55.957C55.1741 55.9554 55.3002 55.9331 55.4295 55.9193C55.6362 55.8914 55.7052 55.8319 55.7218 55.6294C55.7651 55.0541 55.7961 54.4819 55.8314 53.9059C55.8401 53.8007 55.8285 53.6978 55.8252 53.5915C55.8173 53.5909 55.8053 53.5899 55.7974 53.5892L55.7967 53.5973ZM56.6963 49.819C56.6735 48.3414 56.4613 46.8768 55.9191 45.4789C55.7507 45.0411 55.5156 44.6345 55.2215 44.2638C55.0438 44.0372 54.8399 43.837 54.5819 43.7098C54.2084 43.5242 53.8873 43.5794 53.6086 43.8989C53.2861 44.2637 53.1377 44.704 53.1419 45.1894C53.1467 45.7157 53.2451 46.2252 53.429 46.7173C53.8659 47.8864 54.5957 48.8555 55.4575 49.7294C55.6535 49.9289 55.8965 50.0916 56.1327 50.2415C56.3608 50.3907 56.6607 50.2033 56.6883 49.9162C56.6903 49.8919 56.6927 49.8635 56.6966 49.8149L56.6963 49.819ZM62.3808 46.2791C62.3616 46.1715 62.3441 46.0437 62.3186 45.9152C62.2285 45.5002 62.0139 45.3317 61.6086 45.3881C61.4341 45.4145 61.2609 45.4736 61.0984 45.5499C60.6943 45.7369 60.3732 46.0366 60.0809 46.3754C59.3635 47.2051 58.7944 48.1326 58.3281 49.1256C58.2169 49.357 58.1518 49.6125 58.0791 49.8634C58.0463 49.9707 58.0864 50.0678 58.1898 50.1252C58.3971 50.236 58.5915 50.309 58.826 50.1367C59.2825 49.7992 59.7748 49.5136 60.224 49.1673C60.8437 48.6964 61.368 48.1199 61.8551 47.5077C62.1368 47.1518 62.2712 46.7348 62.3808 46.2791Z" fill="#AB0008"/>
</g>
<path fill-rule="evenodd" clip-rule="evenodd" d="M76.8323 19.6679C76.5002 20.7134 77.0026 21.8401 78.0147 22.263C79.4173 22.849 81.4646 23.6618 83.4358 24.288C85.2857 24.8756 87.1118 25.3128 88.4152 25.5931C89.4936 25.825 90.5501 25.183 90.884 24.1318L76.8323 19.6679Z" fill="#EC9D47"/>
<path d="M77.6261 19.6587L77.6433 19.6744C78.369 20.3576 78.7593 19.9308 79.3984 20.1583C79.6605 20.2516 79.8599 20.3798 80.0055 20.5013L80.0307 20.494C80.0583 20.4865 80.0877 20.4803 80.1186 20.4752L80.2838 20.5271L80.4109 20.5663C80.5837 20.6193 80.7704 20.6749 80.972 20.7331L81.0746 20.7623L81.2036 20.7983C81.3295 20.8342 81.4993 20.8858 81.6536 20.9475L81.6632 20.954C81.6937 20.9859 81.7209 21.0191 81.7449 21.0537C81.7935 21.124 81.8363 21.1916 81.8778 21.2541C82.0501 21.2836 82.1967 21.3167 82.3706 21.3232C82.5589 21.4244 82.7249 21.526 82.8719 21.6288C83.1469 21.821 84.9353 22.1777 85.8283 22.4585L86.0608 22.4992C86.5693 22.5901 86.9872 22.6759 87.0877 22.6747L87.0937 22.6745C87.14 22.6719 87.1866 22.6711 87.2337 22.6721L87.2799 22.7053L87.3284 22.7392C87.6975 22.9936 88.1904 23.2444 88.9609 23.3831C89.1358 23.4146 89.3159 23.4847 89.4931 23.5795C89.7293 23.5114 89.8372 23.6623 90.0088 23.686C90.242 23.7183 90.3513 23.6538 90.6888 23.735C91.1503 23.8461 91.1256 24.5463 91.1342 24.7776C91.1428 25.0089 91.1673 24.875 91.0453 24.8211C90.9233 24.7672 90.8965 24.6674 90.7511 24.6084C90.1349 24.3576 89.9376 25.1818 89.1215 25.0753C88.6812 25.0179 88.3687 24.4348 88.2043 24.3462C88.0399 24.2577 87.832 24.3389 87.6559 24.2862C86.8248 24.0374 86.508 23.4581 85.8416 23.1489L85.8768 23.1254C85.8977 23.1117 85.9187 23.0982 85.9399 23.0849C85.9782 23.0608 85.8521 23.0188 85.6447 22.9659L85.4904 22.9934C84.8258 23.1095 84.0215 23.2241 84.0815 23.441C83.7424 23.3906 83.4038 23.2735 83.0206 23.1321C82.6495 22.9951 82.3679 22.5817 82.0813 22.4537C81.5806 22.2301 80.0895 22.1654 80.0895 22.1654C80.0895 22.1654 80.2897 21.8583 80.1126 21.6746C79.8693 21.4224 79.1135 21.1656 78.9679 21.2384C78.8222 21.3113 78.6754 21.3484 78.5137 21.298C78.115 21.1738 78.0643 20.9484 77.8818 20.8427C77.6897 20.7315 77.5652 20.7705 77.265 20.7074C76.93 20.637 76.9516 20.4189 77.0336 20.2577L77.0387 20.2479C77.2959 19.7634 76.3422 19.8504 76.4948 19.6974C76.6473 19.5443 77.2849 19.3552 77.6261 19.6587Z" fill="#9CC93A"/>
<path fill-rule="evenodd" clip-rule="evenodd" d="M82.128 21.0792C84.5815 22.2944 85.8604 22.0422 87.1357 22.3108C87.9702 22.4866 88.7147 22.7793 89.2616 23.1114C89.2675 23.115 89.5005 23.2273 89.6336 23.2784C89.8717 23.3697 90.1307 23.452 90.4107 23.5252C90.4107 23.5252 90.795 23.5997 91.0084 23.643C91.2219 23.6863 91.3767 23.7731 91.3461 23.986C91.3224 24.1505 91.1946 24.1881 91.0306 24.1646C90.8666 24.1412 90.0089 23.6879 87.5348 23.0319C85.0608 22.3759 84.3345 25.299 84.0644 24.2049C83.7844 23.0708 82.8641 21.9959 82.0831 21.4432C81.3021 20.8905 78.9976 20.3824 78.3307 20.147C77.6637 19.9116 77.4952 19.7845 77.2318 19.629C76.9683 19.4735 76.96 19.53 77.0114 19.3683C77.0577 19.2225 77.2007 19.1967 77.3339 19.2647C77.4082 19.3027 77.6341 19.4717 78.6821 19.8363C79.5126 20.1252 81.0432 20.5419 82.128 21.0792Z" fill="#FFBC0D"/>
<path fill-rule="evenodd" clip-rule="evenodd" d="M91.0534 21.8293C91.4619 21.959 91.6876 22.3959 91.5576 22.8051L91.4025 23.2578C91.4025 23.2578 90.9849 23.2969 89.846 22.8998C88.7072 22.5027 88.1294 22.022 87.2967 21.8457C86.0242 21.5763 85.4081 21.8909 83.1528 20.944C80.8976 19.9971 77.3667 18.8965 77.3667 18.8965L77.5059 18.3413C77.6359 17.9321 78.0724 17.7056 78.4808 17.8353C81.3772 18.5903 83.5453 19.1956 84.985 19.6513C86.4248 20.1069 88.3925 20.8171 91.0534 21.8293Z" fill="#73371F"/>
<path fill-rule="evenodd" clip-rule="evenodd" d="M78.3747 16.136C78.4171 16.0026 78.5595 15.9289 78.6928 15.9712L92.3309 20.3037C92.426 20.3339 92.4786 20.4355 92.4484 20.5306C92.155 21.4543 91.1557 21.9525 90.2405 21.6336C88.6168 21.0678 86.2151 20.2383 84.9355 19.8318C83.6375 19.4195 81.1453 18.6962 79.4925 18.2214C78.5991 17.9647 78.0933 17.0218 78.3747 16.136Z" fill="#EC9D47"/>
<path d="M82.812 16.8167L82.8887 16.8332C83.8735 17.0387 83.8902 16.7642 84.3865 16.9136C84.6111 16.9811 84.7533 17.1102 84.8633 17.2642C85.3533 17.1316 85.8493 17.0542 86.3586 17.2279C86.7614 17.3652 87.0601 17.8683 87.3707 18.0032C87.9132 18.2385 89.0496 18.2267 89.5618 17.9977C89.5988 17.9811 89.6206 18.0359 89.594 18.0798L89.5376 18.1726C89.4276 18.3572 89.3195 18.5844 89.5064 18.7994C89.7668 19.0987 90.2497 19.2345 90.7484 19.2407C90.9094 19.1315 91.0708 19.0681 91.2466 19.116C91.6798 19.2339 91.7302 19.5192 91.9274 19.6361L91.9497 19.6489C92.1865 19.781 92.5506 19.8498 92.5599 20.3488C92.5692 20.8479 93.4002 20.8772 93.4002 20.8772C93.4002 20.8772 92.5443 21.4909 92.1781 21.1329L92.1621 21.1168C91.3837 20.3129 90.9473 20.9042 90.2534 20.6785C89.9689 20.586 89.7537 20.4418 89.5972 20.3005C89.4407 20.1593 88.0506 20.341 87.7072 19.7722L87.6672 19.7046C87.4775 19.3778 87.3645 19.1106 87.024 19.0985C86.8204 19.0911 86.5259 19.2054 85.98 18.9936C85.6279 18.8571 85.3803 18.5079 85.1686 18.2045C84.8853 18.2281 84.7522 18.1316 84.3395 18.4181L84.3139 18.4361C83.9879 18.6684 83.7722 18.72 83.5205 18.4889L83.5044 18.4737C83.1191 18.1038 82.7783 18.4424 82.1731 18.2088C81.7727 18.0541 81.6468 17.119 80.546 17.0983C80.3521 17.0947 80.1633 16.9606 79.9972 16.7692C79.8317 16.8861 79.7005 17.0165 79.6048 17.1073C79.1049 17.5817 79.0058 17.1298 78.7638 17.1018L78.7539 17.1009C78.5075 17.0844 78.4345 16.956 78.0962 16.8853L78.0626 16.8786C77.5604 16.7842 77.2365 16.4901 77.2724 16.0807C77.2783 16.0122 77.2963 15.4118 77.3584 15.6457C77.4205 15.8796 77.8076 15.6707 77.9653 15.7315C78.6337 15.9896 78.3814 15.1712 79.2716 15.2222C79.7087 15.2472 80.2984 15.7416 80.6056 16.0998L80.8181 15.9747C81.0636 15.8323 81.3329 15.6972 81.5547 15.7513C82.1558 15.8979 82.2478 16.6911 82.812 16.8167Z" fill="#9CC93A"/>
<path fill-rule="evenodd" clip-rule="evenodd" d="M79.9235 14.0918C80.6121 14.3105 83.9154 15.1077 86.0018 15.7705C88.1137 16.4413 91.5481 17.7005 92.1117 17.9636C92.6753 18.2267 92.7948 18.3806 92.6638 18.793C92.5328 19.2054 92.6385 18.8727 92.5075 19.2851C92.3765 19.6975 91.9871 19.7737 91.5779 19.6437L78.9831 15.6427C78.574 15.5127 78.3968 14.7885 78.7403 14.3698C79.0839 13.9512 79.235 13.8731 79.9235 14.0918Z" fill="#73371F"/>
<path d="M78.5181 15.1595C78.6582 15.1579 78.8263 15.2574 80.0106 15.8014C80.4749 16.0146 81.2315 16.3031 82.4518 16.6607C83.3064 16.9112 84.6469 17.322 87.0987 18.053C89.5504 18.7841 90.6284 19.1862 91.4131 19.4236C92.1978 19.6611 92.4059 19.2357 92.6701 19.739C92.9342 20.2424 92.1883 19.947 91.3934 19.7529C90.5984 19.5588 90.7104 19.366 88.1047 18.6243C85.499 17.8825 84.3204 17.8281 83.1299 17.4633C80.8866 16.7761 80.3716 15.9999 78.9892 15.8124C77.6069 15.625 78.378 15.161 78.5181 15.1595Z" fill="#EDC8A3"/>
<path fill-rule="evenodd" clip-rule="evenodd" d="M93.2701 17.1551C93.1694 17.4721 93.0303 17.91 92.5693 17.7732C92.1141 17.6189 88.4872 16.0472 86.2757 15.3535C84.1622 14.6733 80.2275 13.7589 79.5868 13.649C78.9575 13.5233 79.1729 13.1097 79.2463 12.8682C80.0822 10.2473 84.328 9.90025 87.7592 10.9484C91.1929 11.9989 94.0787 14.6097 93.2701 17.1551Z" fill="white"/>
<path d="M87.7573 10.9468C91.1909 11.9972 94.077 14.6085 93.2685 17.1538C93.1678 17.4708 93.0287 17.909 92.5679 17.7725C92.1126 17.6182 88.4854 16.0456 86.2739 15.3519C84.1604 14.6717 80.2261 13.7582 79.5851 13.6482C78.9558 13.5225 79.1718 13.1085 79.2451 12.867C80.0812 10.2464 84.3263 9.8988 87.7573 10.9468ZM80.2452 12.7348C80.1797 12.6346 80.0468 12.6017 79.9486 12.6621C79.8506 12.7227 79.8243 12.8538 79.8897 12.9539C79.9558 13.0542 80.3078 13.328 80.3634 13.298C80.4167 13.2652 80.3107 12.8356 80.2452 12.7348ZM89.4325 15.2661C89.3646 15.2827 89.315 15.7472 89.3459 15.8708C89.377 15.9946 89.504 16.0758 89.6295 16.0521C89.7551 16.0281 89.8317 15.9077 89.8008 15.7837C89.7694 15.6592 89.5007 15.2531 89.4325 15.2661ZM82.8532 13.008C82.7226 12.9893 82.6034 13.0775 82.5879 13.2045C82.573 13.3324 82.685 13.803 82.7559 13.8142C82.8273 13.8231 83.0463 13.4005 83.0621 13.2731C83.0775 13.146 82.9841 13.027 82.8532 13.008ZM87.1638 14.5116C87.0983 14.4113 86.9652 14.3794 86.8669 14.4398C86.769 14.5003 86.7423 14.6303 86.8074 14.7303C86.8729 14.8305 87.2275 15.1063 87.282 15.0748C87.3347 15.0405 87.2292 14.6119 87.1638 14.5116ZM85.5305 13.8923C85.5064 13.7668 85.3861 13.69 85.2622 13.721C85.1375 13.7526 84.7315 14.0212 84.7445 14.0894C84.7595 14.1573 85.2243 14.2075 85.3489 14.1769C85.4729 14.1459 85.5543 14.0179 85.5305 13.8923ZM92.483 15.9462C92.4225 15.8482 92.2923 15.8222 92.1922 15.8876C92.0916 15.9538 91.8155 16.3078 91.848 16.3613C91.8813 16.4144 92.3104 16.3086 92.4112 16.2431C92.5113 16.1776 92.5433 16.0444 92.483 15.9462ZM90.6856 14.4049C90.6528 14.3516 90.2234 14.4576 90.1224 14.5231C90.0225 14.5886 89.9895 14.7216 90.0497 14.8197C90.1101 14.9178 90.241 14.9447 90.3412 14.8795C90.4413 14.8141 90.7177 14.4589 90.6856 14.4049ZM81.6229 11.5751C81.5575 11.4749 81.4245 11.4421 81.3263 11.5024C81.2283 11.5629 81.2011 11.6937 81.2665 11.7938C81.332 11.8939 81.6861 12.1692 81.7411 12.1383C81.7944 12.1055 81.6884 11.6763 81.6229 11.5751ZM88.6258 13.2413C88.4995 13.2014 88.3661 13.2662 88.3277 13.3863C88.2896 13.5072 88.315 13.9811 88.3834 14.0045C88.452 14.0263 88.7468 13.6527 88.7856 13.5318C88.8236 13.4114 88.7522 13.2814 88.6258 13.2413ZM83.5394 11.8027C83.4868 11.8372 83.5923 12.2659 83.6577 12.3659C83.7231 12.466 83.8564 12.4979 83.9545 12.4377C84.0524 12.3771 84.0784 12.2469 84.0131 12.1469C83.9473 12.0465 83.5935 11.7708 83.5394 11.8027ZM86.9509 12.6272C86.9025 12.5774 86.4482 12.7549 86.351 12.8383C86.2544 12.9218 86.2474 13.0644 86.3361 13.1563C86.4247 13.2482 86.5754 13.2549 86.6723 13.172C86.7692 13.0885 86.9991 12.6773 86.9509 12.6272ZM90.0691 12.5266C89.9383 12.5077 89.8196 12.595 89.8041 12.7221C89.789 12.8498 89.9002 13.3203 89.9712 13.3316C90.0423 13.3417 90.2625 12.9183 90.2783 12.7907C90.2936 12.6637 90.1999 12.5457 90.0691 12.5266ZM85.0956 10.8585C84.9691 10.8184 84.8345 10.8837 84.7962 11.0042C84.7583 11.1257 84.7844 11.6001 84.8529 11.6226C84.9222 11.6428 85.2159 11.271 85.2551 11.1499C85.2933 11.0296 85.2219 10.8988 85.0956 10.8585ZM87.1932 11.242C87.1277 11.1419 86.9945 11.1098 86.8963 11.1702C86.7985 11.2308 86.7724 11.361 86.8377 11.4611C86.9034 11.5613 87.2569 11.8367 87.3114 11.8052C87.3646 11.772 87.2586 11.3424 87.1932 11.242Z" fill="#EC9D47"/>
<path fill-rule="evenodd" clip-rule="evenodd" d="M206.853 51.6045L208.249 51.067C208.249 51.067 210.679 53.938 213.844 52.7194C217.008 51.5009 216.973 47.7077 216.973 47.7077L218.369 47.1702C218.369 47.1702 218.991 49.6952 219.442 52.3167C219.893 54.9383 220.164 57.5987 220.164 57.5987L219.662 58.3929C219.662 58.3929 218.054 58.4111 216.296 59.0881C214.538 59.7651 213.421 60.7963 213.421 60.7963L212.516 60.5436C212.516 60.5436 210.917 58.3642 209.509 56.1418C208.101 53.9193 206.853 51.6045 206.853 51.6045Z" fill="#B30006"/>
<path fill-rule="evenodd" clip-rule="evenodd" d="M215.133 53.4248C214.74 53.5762 214.584 54.216 214.658 55.0937C214.125 54.3927 213.58 54.023 213.187 54.1744C212.496 54.4404 212.582 56.3359 213.38 58.4076L213.936 58.1935C213.195 56.2697 212.906 54.5902 213.29 54.4424C213.674 54.2945 214.54 55.6144 215.223 57.3902L215.78 57.176C215.096 55.4002 214.853 53.8407 215.237 53.6928C215.621 53.545 216.532 54.9847 217.273 56.9085L217.829 56.6944C217.031 54.6226 215.824 53.1587 215.133 53.4248Z" fill="#FFBC0D"/>
<path fill-rule="evenodd" clip-rule="evenodd" d="M208.463 50.5832C208.463 50.5832 210.874 53.4617 213.753 52.3531C216.632 51.2445 216.49 47.4926 216.49 47.4926C216.49 47.4926 217.275 47.1903 217.886 46.9551C217.798 45.6866 217.67 44.8343 217.408 43.6329C216.91 43.6807 216.359 44.0187 216.379 44.1886C216.414 44.4793 216.425 44.632 216.454 44.9226C216.191 44.7887 215.768 44.8307 215.383 44.9385C215.639 45.909 215.67 46.29 215.79 47.3314C215.385 46.1351 215.203 45.4552 214.938 44.1576C214.486 44.2346 213.965 44.5144 213.913 44.8826C214.07 45.6211 214.159 46.0298 214.351 46.651C213.887 45.5692 213.621 44.9422 213.087 43.8384C212.572 44.0858 212.172 44.5218 212.207 44.8852C212.275 45.0305 212.393 45.28 212.459 45.4252C212.09 45.5581 211.754 45.8684 211.655 46.0386C211.805 46.916 211.987 47.4015 212.083 48.3215C212.083 48.3215 211.744 47.7132 211.024 44.9111C210.981 44.7429 210.225 44.5662 209.779 44.6733C209.984 45.4907 210.201 46.3026 210.427 47.1101C210.031 46.2067 209.604 45.3098 209.143 44.4158C208.798 44.4833 208.327 45.3252 208.404 45.4781C209.293 47.2487 209.409 47.539 209.893 48.767C209.298 47.7125 209.071 47.3265 208.661 46.711C208.249 46.906 207.817 47.591 207.909 47.7356C208.349 48.4313 208.505 48.7497 208.934 49.7169C208.262 48.6055 207.964 48.2849 207.227 47.1822C207.183 47.1151 206.351 47.178 205.979 47.4476C206.572 48.304 207.193 49.1523 207.652 50.0447C207.181 49.5235 206.721 48.983 206.274 48.4163C205.907 48.6923 205.688 49.6859 205.739 49.7485C206.171 50.2785 206.606 50.6324 207.068 51.1207L208.463 50.5832Z" fill="#FFBC0D"/>
<g clip-path="url(#clip3_16606_7244)">
<path d="M267.979 45.0137C267.097 47.0674 266.214 49.1211 265.332 51.1748C265.239 51.3916 265.14 51.6154 264.96 51.7678C264.762 51.9343 264.494 51.9892 264.234 52.0144C263.357 52.1009 262.461 51.925 261.587 52.037C260.712 52.147 259.791 52.6715 259.645 53.5473C259.476 54.5699 260.409 55.4533 261.313 55.9711C263.959 57.4869 267.074 57.8002 270.08 58.0789C270.283 58.0987 270.497 58.1142 270.677 58.0197C270.879 57.9136 270.989 57.6889 271.082 57.4771C272.611 54.0449 273.764 50.4381 274.519 46.7373C272.6 45.7324 270.54 45.0112 268.426 44.6063" fill="#A60007"/>
<path d="M268.881 42.5046C268.747 42.0081 268.045 41.822 267.643 42.1206C267.241 42.4193 267.169 43.0408 267.391 43.5046C266.806 43.4542 266.225 43.8774 266.093 44.4523C265.961 45.0272 266.291 45.6856 266.835 45.9249C266.457 46.5515 266.928 47.4568 267.619 47.7164C268.313 47.9767 269.092 47.734 269.694 47.3222C270.271 48.3757 271.815 48.735 272.756 48.0351C272.766 48.2736 272.944 48.4713 273.131 48.6228C273.782 49.1476 274.734 49.3478 275.44 48.9348C276.146 48.5218 276.397 47.4136 275.818 46.8092C276.103 46.4428 276.291 45.9996 276.358 45.5355C276.376 45.4108 276.385 45.2788 276.343 45.157C276.242 44.8679 275.877 44.7468 275.586 44.8195C275.295 44.8922 275.065 45.1044 274.847 45.3092C274.966 44.8026 274.715 44.223 274.261 43.9612C273.807 43.6993 273.193 43.7778 272.832 44.1436C273.091 43.72 272.948 43.0892 272.528 42.8085C272.108 42.5278 271.483 42.6486 271.206 43.0616C271.217 42.6228 270.87 42.1934 270.439 42.117C270.009 42.0407 269.551 42.3233 269.429 42.7434" fill="#FFE4C7"/>
<path d="M272.299 53.914C271.144 53.5505 269.927 53.9201 268.994 54.612C268.061 55.3039 267.178 56.4152 267.303 57.6569C267.334 57.9614 267.804 57.946 267.773 57.6414C267.661 56.545 268.498 55.5552 269.32 54.9653C270.141 54.3754 271.189 54.055 272.206 54.3755C272.496 54.468 272.588 54.0046 272.299 53.914Z" fill="#FFE4C7"/>
<path d="M272.41 49.7255C272.485 49.7674 272.524 49.8059 272.549 49.8415C272.576 49.879 272.586 49.9142 272.585 49.9504C272.583 49.9847 272.57 50.018 272.538 50.0522C272.509 50.0851 272.467 50.1152 272.387 50.1449C272.311 50.103 272.271 50.0657 272.247 50.0289C272.22 49.9914 272.211 49.9562 272.212 49.92C272.213 49.8857 272.229 49.8512 272.258 49.8182C272.288 49.7853 272.33 49.7552 272.41 49.7255Z" fill="#FFE4C7"/>
<path d="M271.411 52.594C271.473 52.6559 271.5 52.7017 271.514 52.7447C271.532 52.7883 271.529 52.8257 271.518 52.8579C271.507 52.89 271.483 52.9192 271.444 52.9418C271.406 52.9662 271.355 52.9827 271.27 52.9882C271.208 52.9263 271.181 52.8805 271.167 52.8375C271.149 52.7939 271.152 52.7565 271.163 52.7243C271.175 52.6922 271.199 52.663 271.238 52.6404C271.276 52.616 271.327 52.5995 271.41 52.5952L271.411 52.594Z" fill="#FFE4C7"/>
<path d="M270.122 50.6009C270.177 50.6944 270.196 50.7782 270.205 50.8578C270.214 50.9375 270.205 51.0116 270.188 51.0836C270.167 51.1549 270.138 51.2228 270.091 51.2864C270.046 51.3488 269.986 51.4096 269.892 51.4593C269.837 51.3658 269.815 51.2833 269.809 51.2024C269.8 51.1227 269.808 51.0486 269.826 50.9766C269.847 50.9053 269.875 50.8374 269.926 50.7745C269.973 50.7109 270.031 50.6514 270.125 50.6016L270.122 50.6009Z" fill="#FFE4C7"/>
<path d="M268.671 48.815C268.731 48.8832 268.756 48.9385 268.768 48.9909C268.784 49.044 268.781 49.0897 268.768 49.1313C268.755 49.1729 268.73 49.2136 268.689 49.2456C268.65 49.2796 268.597 49.3056 268.509 49.3237C268.449 49.2554 268.424 49.2002 268.412 49.1477C268.397 49.0965 268.398 49.0489 268.414 49.0061C268.429 48.9633 268.453 48.9257 268.494 48.8937C268.533 48.8598 268.586 48.8338 268.674 48.8157L268.671 48.815Z" fill="#FFE4C7"/>
<path d="M267.672 51.9858C267.719 52.0957 267.731 52.1957 267.73 52.2898C267.732 52.3845 267.714 52.473 267.689 52.5582C267.661 52.6426 267.625 52.7237 267.568 52.7985C267.515 52.874 267.449 52.9448 267.348 53.0045C267.301 52.8947 267.288 52.7958 267.289 52.7018C267.286 52.6071 267.304 52.5186 267.329 52.4334C267.358 52.349 267.394 52.2679 267.45 52.1931C267.503 52.1175 267.57 52.0468 267.671 51.9871L267.672 51.9858Z" fill="#FFE4C7"/>
<path d="M264.84 53.405C264.882 53.5153 264.889 53.6096 264.883 53.699C264.879 53.7891 264.859 53.8738 264.829 53.9512C264.797 54.0298 264.757 54.105 264.699 54.1728C264.642 54.2426 264.574 54.3031 264.47 54.3539C264.428 54.2435 264.421 54.1493 264.427 54.0598C264.431 53.9697 264.451 53.8851 264.481 53.8077C264.513 53.729 264.553 53.6538 264.612 53.5879C264.669 53.5182 264.737 53.4577 264.841 53.4069L264.84 53.405Z" fill="#FFE4C7"/>
<path d="M265.746 55.5549C265.806 55.6676 265.824 55.7793 265.828 55.8843C265.833 55.9911 265.817 56.0949 265.787 56.194C265.757 56.293 265.713 56.3852 265.65 56.4701C265.587 56.5549 265.512 56.6337 265.4 56.6893C265.371 56.5653 265.367 56.4604 265.376 56.3583C265.383 56.2575 265.402 56.1626 265.43 56.0731C265.46 55.9823 265.494 55.8942 265.546 55.8085C265.594 55.722 265.654 55.6365 265.748 55.5537L265.746 55.5549Z" fill="#FFE4C7"/>
<path d="M261.714 54.0305C261.776 54.0924 261.803 54.1382 261.817 54.1812C261.835 54.2248 261.832 54.2623 261.821 54.2944C261.809 54.3265 261.787 54.3545 261.746 54.3783C261.709 54.4027 261.658 54.4192 261.573 54.4247C261.509 54.364 261.484 54.317 261.47 54.2741C261.452 54.2304 261.455 54.193 261.466 54.1609C261.478 54.1287 261.501 54.0995 261.541 54.077C261.578 54.0525 261.629 54.036 261.712 54.0317L261.714 54.0305Z" fill="#FFE4C7"/>
</g>
<g clip-path="url(#clip4_16606_7244)">
<path d="M21.8091 21.2647C22.4275 22.75 23.0458 24.2354 23.6641 25.7208C23.7296 25.8775 23.7955 26.0408 23.7838 26.2103C23.7707 26.396 23.665 26.5616 23.5477 26.7085C23.1527 27.2048 22.6123 27.5798 22.232 28.0874C21.85 28.5946 21.6594 29.333 22.0384 29.8476C22.4818 30.4476 23.4062 30.4082 24.1268 30.2011C26.2363 29.5942 27.9596 28.1426 29.6108 26.7296C29.7229 26.6345 29.8381 26.5319 29.8795 26.3915C29.9261 26.2339 29.8648 26.0648 29.8022 25.9104C28.7961 23.3999 27.5112 20.9961 25.978 18.751C24.497 19.2382 23.092 19.9404 21.8226 20.8297" fill="#A60007"/>
<path d="M20.9651 19.5414C20.6417 19.3615 20.1934 19.6309 20.1462 19.9882C20.099 20.3455 20.3838 20.6944 20.7349 20.812C20.4156 21.0889 20.3427 21.6013 20.5736 21.9576C20.8044 22.314 21.3098 22.4738 21.706 22.3129C21.8404 22.8219 22.5441 23.0326 23.0245 22.8059C23.5069 22.578 23.7719 22.0541 23.8611 21.5367C24.6947 21.7666 25.6543 21.1494 25.7645 20.3125C25.8925 20.4271 26.0844 20.4338 26.2562 20.4134C26.8535 20.3404 27.4345 19.9486 27.5751 19.377C27.7156 18.8054 27.2688 18.1204 26.6664 18.1164C26.6203 17.7852 26.4855 17.4661 26.2793 17.1989C26.2241 17.1268 26.1602 17.0563 26.0766 17.0166C25.8764 16.924 25.6307 17.052 25.5225 17.2386C25.4143 17.4252 25.4086 17.6504 25.4047 17.866C25.2031 17.5501 24.7775 17.3896 24.4148 17.4927C24.0521 17.5958 23.7848 17.9523 23.7927 18.3222C23.7039 17.9759 23.3064 17.7335 22.9507 17.8099C22.595 17.8862 22.3444 18.2692 22.4189 18.6193C22.1977 18.3937 21.8016 18.358 21.5465 18.5419C21.2914 18.7258 21.2079 19.104 21.3636 19.3777" fill="#FFE4C7"/>
<path d="M28.5719 23.4957C27.8051 23.91 27.386 24.7237 27.2757 25.5524C27.1654 26.3811 27.2963 27.3948 28.0005 27.9525C28.1733 28.0892 28.4009 27.8387 28.2282 27.702C27.6057 27.2101 27.5139 26.2818 27.6213 25.5615C27.7287 24.8413 28.0882 24.1397 28.7638 23.775C28.9572 23.6713 28.7636 23.3918 28.5719 23.4957Z" fill="#FFE4C7"/>
<path d="M26.4639 21.3381C26.5234 21.3202 26.5624 21.3197 26.5937 21.3242C26.6266 21.3291 26.6495 21.3419 26.6679 21.3604C26.6846 21.3786 26.6951 21.4022 26.697 21.4356C26.6991 21.4674 26.6935 21.5043 26.6688 21.5605C26.6093 21.5784 26.57 21.5805 26.539 21.5743C26.5061 21.5694 26.4832 21.5566 26.4648 21.5381C26.4481 21.5199 26.4379 21.4948 26.4357 21.463C26.4336 21.4312 26.4392 21.3943 26.4639 21.3381Z" fill="#FFE4C7"/>
<path d="M27.4449 23.2916C27.5078 23.2908 27.545 23.2999 27.5743 23.314C27.6057 23.3268 27.6237 23.3469 27.6346 23.3689C27.6455 23.3908 27.6486 23.4179 27.6407 23.4493C27.6343 23.4811 27.6173 23.5157 27.5776 23.5623C27.5147 23.5631 27.4775 23.554 27.4482 23.54C27.4168 23.5271 27.3988 23.507 27.3879 23.485C27.377 23.4631 27.3739 23.436 27.3818 23.4046C27.3882 23.3728 27.4052 23.3382 27.4446 23.2932L27.4449 23.2916Z" fill="#FFE4C7"/>
<path d="M25.7693 22.9596C25.8453 22.978 25.8982 23.01 25.9437 23.0454C25.9892 23.0809 26.0233 23.1224 26.0516 23.1676C26.0779 23.2141 26.0988 23.2629 26.1079 23.3192C26.1174 23.3739 26.1188 23.4353 26.0974 23.5087C26.0214 23.4903 25.9682 23.4599 25.923 23.4229C25.8775 23.3874 25.8434 23.3459 25.8151 23.3007C25.7887 23.2542 25.7679 23.2054 25.7607 23.1478C25.7516 23.0915 25.7499 23.0317 25.7712 22.9583L25.7693 22.9596Z" fill="#FFE4C7"/>
<path d="M24.1192 22.8129C24.1846 22.8159 24.2258 22.8307 24.2591 22.8505C24.2944 22.8691 24.3167 22.8934 24.3315 22.9211C24.3463 22.9488 24.355 22.9819 24.351 23.0191C24.3486 23.0566 24.3356 23.0969 24.3011 23.1512C24.2356 23.1481 24.1945 23.1334 24.1611 23.1135C24.1275 23.0953 24.1036 23.0707 24.089 23.0414C24.0745 23.0121 24.0672 22.9809 24.0712 22.9437C24.0735 22.9062 24.0866 22.8658 24.1211 22.8116L24.1192 22.8129Z" fill="#FFE4C7"/>
<path d="M25.2568 24.919C25.3371 24.9498 25.3943 24.9942 25.4425 25.0418C25.4926 25.0881 25.5294 25.1416 25.5607 25.1974C25.59 25.2544 25.6139 25.3136 25.6244 25.3801C25.6368 25.4454 25.6399 25.5154 25.6202 25.5973C25.5399 25.5665 25.4824 25.5237 25.4342 25.4762C25.3841 25.4299 25.3473 25.3763 25.316 25.3206C25.2866 25.2635 25.2628 25.2043 25.2523 25.1378C25.2398 25.0726 25.2368 25.0026 25.2564 24.9206L25.2568 24.919Z" fill="#FFE4C7"/>
<path d="M24.5691 27.0932C24.6471 27.1269 24.6995 27.1703 24.7425 27.2185C24.7874 27.2654 24.8209 27.3183 24.8457 27.3727C24.8701 27.4288 24.8891 27.4871 24.895 27.551C24.9026 27.6153 24.8998 27.6808 24.8739 27.7599C24.7958 27.7262 24.7435 27.6828 24.7005 27.6346C24.6556 27.5877 24.6221 27.5348 24.5973 27.4803C24.5728 27.4243 24.5539 27.366 24.5496 27.3024C24.542 27.2381 24.5449 27.1726 24.5707 27.0935L24.5691 27.0932Z" fill="#FFE4C7"/>
<path d="M26.134 27.7028C26.222 27.7285 26.2891 27.7748 26.3451 27.8256C26.4027 27.8767 26.4484 27.9369 26.4846 28.0019C26.5208 28.0669 26.546 28.1364 26.5582 28.2115C26.5704 28.2866 26.5735 28.3648 26.5464 28.4503C26.4676 28.4032 26.4116 28.3525 26.3634 28.2967C26.3149 28.2424 26.2754 28.185 26.2431 28.1258C26.2112 28.0649 26.1828 28.0031 26.1644 27.9334C26.1441 27.865 26.13 27.7912 26.1343 27.7012L26.134 27.7028Z" fill="#FFE4C7"/>
<path d="M23.3256 29.0211C23.3884 29.0203 23.4256 29.0294 23.455 29.0434C23.4863 29.0563 23.5043 29.0764 23.5152 29.0984C23.5261 29.1203 23.5295 29.1458 23.5213 29.1788C23.515 29.2106 23.4979 29.2452 23.4582 29.2918C23.395 29.2942 23.3582 29.2835 23.3288 29.2694C23.2974 29.2566 23.2794 29.2365 23.2685 29.2145C23.2576 29.1926 23.2545 29.1655 23.2625 29.1341C23.2688 29.1023 23.2858 29.0677 23.3252 29.0227L23.3256 29.0211Z" fill="#FFE4C7"/>
</g>
<defs>
<clipPath id="clip0_16606_7244">
<rect width="10.1053" height="24.0001" fill="white" transform="matrix(-0.775392 -0.631481 -0.631481 0.775392 253.678 12.7217)"/>
</clipPath>
<clipPath id="clip1_16606_7244">
<rect width="9.82116" height="23.3252" fill="white" transform="matrix(-0.446656 0.894706 0.894706 0.446656 108.286 45.6777)"/>
</clipPath>
<clipPath id="clip2_16606_7244">
<rect width="15" height="22" fill="white" transform="translate(50.9253 42.4229) rotate(4.69899)"/>
</clipPath>
<clipPath id="clip3_16606_7244">
<rect width="15" height="19" fill="white" transform="translate(272.398 39.042) rotate(57.0817)"/>
</clipPath>
<clipPath id="clip4_16606_7244">
<rect width="10.7972" height="13.6764" fill="white" transform="translate(20.9402 15.9883) rotate(11.2286)"/>
</clipPath>
</defs>
</svg>
