<svg width="98" height="87" viewBox="0 0 98 87" fill="none" xmlns="http://www.w3.org/2000/svg">
<path d="M46.9774 24.8183C46.235 23.104 44.5904 20.9051 40.9849 19.3061L37.8074 23.6201C37.8074 23.6201 40.4591 27.0002 44.9587 27.5264C46.456 27.7056 47.5775 26.2018 46.9713 24.8176L46.9774 24.8183Z" fill="#DB0007"/>
<path d="M37.8136 23.6204L40.9911 19.3064L39.1972 17.9871C38.0032 17.1099 36.328 17.3675 35.4515 18.5554C34.5743 19.7495 34.8319 21.4246 36.0198 22.3011L37.8136 23.6204Z" fill="#292929"/>
<path d="M41.5589 21.0625C41.7644 21.495 41.9402 21.8613 42.1739 22.2156C42.4022 22.563 42.6589 22.8824 42.9441 23.1739C43.2293 23.4653 43.5484 23.7357 43.8967 23.972C44.2519 24.2028 44.6348 24.4118 45.1154 24.5384C45.0356 24.0519 44.8449 23.6525 44.6389 23.2764C44.4198 22.905 44.1645 22.5731 43.8677 22.274C43.5709 21.9749 43.2456 21.7037 42.8704 21.4831C42.4937 21.2748 42.0751 21.049 41.5589 21.0625Z" fill="#FFFCF7"/>
<path d="M115.492 45.5229C114.25 51.964 111.122 57.9658 106.532 62.6504C102.15 67.1214 95.54 71.5329 88.9706 69.8427C84.179 68.61 80.2795 62.4948 83.1337 57.8409C83.8434 56.6832 85.0327 55.608 86.4436 55.5134C87.8545 55.4187 89.2181 56.3476 89.9854 57.4876C91.5409 59.8013 90.3889 62.3997 88.6936 64.2929C87.7953 65.2962 86.887 65.859 85.5563 66.07C83.6812 66.3727 81.8188 66.7271 79.9469 67.0553C76.4209 67.6749 72.8049 68.2085 69.2197 67.8546C62.4153 67.1843 56.7813 62.7129 52.5692 57.5833C43.3524 46.3442 40.948 31.6718 35.4463 18.5993C32.8911 12.5258 29.1237 6.25072 22.4312 4.22569C19.5846 3.364 16.1942 3.42879 13.6547 5.13934C11.4904 6.59984 9.9386 9.02486 9.70026 11.6448C9.58553 12.9176 9.84004 14.1468 10.4264 15.2776C10.9058 16.2011 9.42426 16.8333 8.95033 15.9168C6.55417 11.2932 9.33452 5.52587 13.699 3.24931C19.0879 0.436418 25.8344 2.90097 29.916 6.86649C34.6393 11.4486 37.058 17.876 39.212 23.9454C41.6186 30.7354 43.5979 37.6876 46.5037 44.2926C48.966 49.8843 52.1585 55.2999 56.5656 59.5868C58.8255 61.784 61.4501 63.8179 64.3804 65.0285C67.526 66.3276 70.9349 66.5286 74.2909 66.2275C77.647 65.9264 81.2486 65.1463 84.7191 64.5702C85.3084 64.4713 85.9367 64.465 86.4522 64.1438C86.9676 63.8227 87.4018 63.3412 87.7795 62.8593C88.3946 62.0731 89.1285 60.9748 89.1656 59.9312C89.2041 58.7182 88.0698 57.2896 86.8531 57.1251C85.5622 56.9517 84.5177 58.3894 84.1151 59.4458C83.2733 61.6545 84.1902 64.2182 85.6399 65.9482C89.8787 71.012 97.5028 67.8768 101.819 64.6405C106.832 60.8789 110.64 55.5985 112.71 49.6833C113.206 48.2617 113.594 46.8081 113.878 45.3234C114.075 44.3114 115.672 44.4963 115.474 45.5145L115.493 45.5167L115.492 45.5229Z" fill="#292929"/>
<path d="M100.225 73.1353L104.753 70.2759L103.566 68.3953C102.774 67.1458 101.124 66.7725 99.8756 67.5581C98.626 68.3499 98.2527 69.9997 99.0383 71.2486L100.225 73.1291L100.225 73.1353Z" fill="#123342"/>
<path d="M50.1938 72.2353C51.9528 71.5923 54.2428 70.0778 56.0432 66.5717L51.9212 63.1537C51.9212 63.1537 48.3955 65.6059 47.6102 70.0683C47.3506 71.556 48.7821 72.7566 50.1938 72.2353Z" fill="#DB0007"/>
<path d="M51.9211 63.1537L56.0432 66.5718L57.4657 64.8593C58.4113 63.7236 58.2494 62.0348 57.1137 61.0893C55.978 60.1437 54.2892 60.3055 53.3437 61.4412L51.9211 63.1537Z" fill="#292929"/>
<path d="M54.255 67.0415C53.8123 67.227 53.4367 67.3766 53.066 67.5895C52.7085 67.7978 52.3727 68.0337 52.0642 68.3043C51.7556 68.5749 51.4689 68.8732 51.2148 69.213C50.9662 69.5598 50.7346 69.9212 50.584 70.3927C51.0738 70.3384 51.4826 70.1739 51.8689 69.988C52.2504 69.7889 52.5986 69.5544 52.914 69.2784C53.2295 69.0024 53.5185 68.6855 53.7624 68.3256C53.9877 67.9635 54.2438 67.5548 54.2612 67.0423L54.255 67.0415Z" fill="#FFFCF7"/>
<path d="M69.5313 79.7721C70.472 78.1525 71.2691 75.5305 70.419 71.6757L65.0657 71.6749C65.0657 71.6749 63.917 75.8176 66.1573 79.751C66.9038 81.0642 68.7728 81.0745 69.5313 79.7721Z" fill="#D6D6D6"/>
<path d="M65.0589 71.6806L70.4122 71.6814L70.4091 69.453C70.4107 67.9721 69.211 66.7741 67.7293 66.7787C66.2484 66.7772 65.0504 67.9768 65.055 69.4585L65.0581 71.6868L65.0589 71.6806Z" fill="#292929"/>
<path d="M69.3417 73.1791C69.1151 73.6039 68.9222 73.9573 68.7735 74.36C68.6264 74.7503 68.5226 75.1458 68.4551 75.552C68.3877 75.9581 68.3573 76.3687 68.382 76.7921C68.4066 77.2156 68.4614 77.6489 68.6516 78.1047C68.9952 77.7505 69.205 77.3614 69.3838 76.9686C69.5503 76.5743 69.6679 76.1679 69.7361 75.7556C69.8043 75.3432 69.8245 74.9126 69.7821 74.4808C69.7265 74.0536 69.6576 73.5809 69.3479 73.1799L69.3417 73.1791Z" fill="#FFFCF7"/>
<path d="M87.8049 82.5684C88.9885 81.1223 90.1938 78.6558 89.9623 74.7182L84.6726 73.8715C84.6726 73.8715 82.8805 77.7802 84.4754 82.0192C85.0029 83.4317 86.8487 83.7405 87.8042 82.5746L87.8049 82.5684Z" fill="#FFBC0D"/>
<path d="M84.6788 73.8728L89.9685 74.7195L90.3195 72.521C90.5508 71.0613 89.5605 69.6875 88.1008 69.4563C86.641 69.2251 85.2673 70.2154 85.036 71.6751L84.685 73.8736L84.6788 73.8728Z" fill="#292929"/>
<path d="M88.6634 76.0251C88.3725 76.4108 88.1268 76.7328 87.9201 77.0972C87.7133 77.4615 87.549 77.8373 87.4212 78.2236C87.2933 78.61 87.2004 79.0193 87.1508 79.4339C87.1128 79.8561 87.0981 80.2936 87.2034 80.7769C87.603 80.4796 87.8702 80.135 88.1017 79.7737C88.3271 79.4115 88.5106 79.0318 88.6406 78.6269C88.77 78.2282 88.8575 77.8119 88.8908 77.3766C88.904 76.9514 88.9115 76.469 88.6642 76.0189L88.6634 76.0251Z" fill="#FFFCF7"/>
<path d="M57.4627 41.5562C55.6463 41.9977 53.1956 43.2294 51.0013 46.5126L54.7052 50.3827C54.7052 50.3827 58.4943 48.351 59.7857 44.0121C60.2165 42.5637 58.9294 41.2046 57.4681 41.5631L57.4627 41.5562Z" fill="#FFBC0D"/>
<path d="M54.6998 50.3753L50.9959 46.5052L49.387 48.0448C48.3171 49.0652 48.2834 50.7619 49.3039 51.8318C50.3243 52.9016 52.021 52.9353 53.0909 51.9149L54.6998 50.3753Z" fill="#292929"/>
<path d="M52.8279 46.2483C53.2894 46.1153 53.6846 46.012 54.0686 45.8446C54.4527 45.6772 54.8087 45.4813 55.1507 45.2461C55.4919 45.0171 55.8066 44.7473 56.1003 44.4435C56.3885 44.1329 56.6612 43.7952 56.866 43.3428C56.3705 43.3399 55.9491 43.4527 55.5425 43.5985C55.1414 43.7513 54.7667 43.945 54.424 44.1864C54.0752 44.427 53.7597 44.7031 53.4692 45.0323C53.2035 45.3645 52.9072 45.7432 52.8279 46.2483Z" fill="#FFFCF7"/>
<path d="M73.5093 49.3766C73.8543 51.2128 74.9657 53.7245 78.1285 56.0863L82.1813 52.5863C82.1813 52.5863 80.3431 48.701 76.0749 47.1859C74.6539 46.6832 73.2288 47.8933 73.5093 49.3766Z" fill="#A9C141"/>
<path d="M82.1812 52.5864L78.1284 56.0864L79.5833 57.7731C80.5475 58.8927 82.2401 59.0138 83.3597 58.0495C84.4793 57.0853 84.6003 55.3927 83.6361 54.2731L82.1812 52.5864Z" fill="#292929"/>
<path d="M77.9595 54.2466C77.8519 53.7818 77.7679 53.3827 77.6151 52.9815C77.467 52.5935 77.292 52.2211 77.0761 51.8752C76.8609 51.5231 76.6118 51.192 76.322 50.8875C76.0259 50.5821 75.7028 50.2924 75.2595 50.0636C75.2319 50.5561 75.3246 50.9877 75.445 51.3975C75.5785 51.8026 75.7521 52.1874 75.9727 52.5464C76.1933 52.9055 76.4548 53.238 76.7701 53.5394C77.0877 53.8221 77.4511 54.1418 77.954 54.2396L77.9595 54.2466Z" fill="#FFFCF7"/>
<path d="M32.3582 46.3334C34.2312 46.3631 36.9055 45.7796 39.856 43.1517L37.2401 38.4767C37.2401 38.4767 33.0639 39.4956 30.7289 43.377C29.9527 44.671 30.8555 46.3042 32.3651 46.328L32.3582 46.3334Z" fill="#A9C141"/>
<path d="M37.2391 38.4828L39.8551 43.1577L41.7995 42.0663C43.0911 41.3423 43.5503 39.709 42.8255 38.4236C42.1015 37.1319 40.4683 36.6728 39.1828 37.3975L37.2384 38.489L37.2391 38.4828Z" fill="#292929"/>
<path d="M38.0223 42.9507C37.5439 42.9624 37.1358 42.9638 36.7196 43.0332C36.3103 43.0972 35.9089 43.1997 35.5278 43.3424C35.1405 43.4843 34.7681 43.6594 34.4091 43.88C34.0485 44.113 33.7044 44.3667 33.3941 44.7563C33.8748 44.8829 34.3145 44.8791 34.7395 44.8421C35.1659 44.7927 35.5727 44.6971 35.9723 44.5567C36.3665 44.4093 36.7466 44.2226 37.1086 43.9772C37.4528 43.7235 37.8331 43.4301 38.0339 42.9583L38.0223 42.9507Z" fill="#FFFCF7"/>
</svg>
