<svg width="120" height="105" viewBox="0 0 120 105" fill="none" xmlns="http://www.w3.org/2000/svg">
<path fill-rule="evenodd" clip-rule="evenodd" d="M65.3526 34.6415C73.1982 34.6415 79.5555 66.1429 79.5555 105H90.9256C90.9256 63.1506 79.4748 29.2285 65.3526 29.2285C57.3173 29.2285 50.1491 39.4259 45.4628 55.3672C40.7765 39.4259 33.6083 29.2285 25.573 29.2285C11.4543 29.2285 0 63.1506 0 105H11.3701C11.3701 66.1429 17.7309 34.6415 25.573 34.6415C33.4187 34.6415 39.7795 63.719 39.7795 99.5869H51.1461C51.1461 63.719 57.5069 34.6415 65.3526 34.6415Z" fill="#FFBC0D"/>
<path d="M98.9972 46.9634C98.2337 46.7643 97.8011 46.2531 97.3459 45.7336C96.3346 44.5822 95.3192 43.442 94.2884 42.309C93.8925 41.8744 93.4625 41.4275 92.9806 41.0888C91.9795 40.3725 90.9209 39.8513 89.6727 40.5689C89.3172 40.7707 88.8438 40.765 88.4623 40.9321C87.5378 41.3221 86.6421 41.2403 85.729 40.8858C84.9297 40.5722 84.1336 40.2853 83.3261 39.9942C79.2199 38.5519 75.0853 37.1883 71.0114 35.6562C66.8579 34.0954 62.7887 32.3366 59.0737 29.8805C58.5122 29.5131 57.936 29.1151 57.48 28.6334C56.6688 27.7825 56.6426 26.8213 57.2693 25.867C61.6353 19.1032 65.9437 16.4558 71.2517 13.8515C73.9211 12.5422 76.6997 11.5007 79.6304 10.8567C81.3759 10.4707 83.1532 10.2104 84.9396 10.2453C88.1691 10.3054 91.1599 11.206 93.7029 13.2775C94.6269 14.0294 95.4065 14.9323 96.0969 15.9046C98.9553 19.9173 100.762 24.3506 101.638 29.1586C102.317 32.9062 102.694 36.6717 102.693 40.4909C102.699 42.257 102.83 44.0304 102.886 45.8017C102.918 46.9938 102.126 47.6598 100.924 47.4295C100.25 47.301 99.6015 47.1051 99.0012 46.9522L98.9972 46.9634Z" fill="#AF0008"/>
<path d="M74.4306 47.1676C69.5803 45.5079 64.9982 43.2469 60.5554 40.7061C58.5664 39.5576 56.5264 38.4795 54.5649 37.2902C53.5541 36.672 52.6033 35.9231 51.7223 35.1232C50.1959 33.7608 49.2758 32.0712 49.3606 29.9824C49.4249 28.5208 49.979 27.1977 50.7638 25.9831C51.1229 25.4146 51.595 24.9249 52.0371 24.4116C53.2618 22.9749 54.8465 22.6071 56.6439 23.0394C58.6428 23.5188 60.5235 24.3618 62.3572 25.264C65.8693 26.9997 69.3734 28.7578 72.862 30.5231C75.5228 31.8757 78.1559 33.2691 80.8053 34.6177C82.8576 35.6621 84.8903 36.7248 86.9823 37.6947C87.9279 38.1372 88.7876 38.6755 89.5767 39.3026C90.5576 40.075 91.0905 41.092 91.022 42.3872C90.8832 44.8753 89.8938 46.9425 88.0123 48.5612C86.6477 49.7444 84.9874 50.0723 83.2339 49.732C81.4804 49.3918 79.7059 49.1455 78.0202 48.4743C76.831 47.9948 75.6093 47.6052 74.4038 47.1706L74.4306 47.1676Z" fill="#F0EFEF"/>
<path d="M96.3244 48.0689C96.5285 47.6095 96.6913 47.1225 96.9596 46.6989C97.1728 46.357 97.4445 45.96 97.7878 45.7918C100.157 44.6027 102.568 44.1522 105.032 45.6241C107.605 47.1482 108.966 49.2888 108.526 52.3281C108.451 52.8213 108.387 53.3187 108.347 53.8243C108.093 56.4869 106.021 57.7448 104.248 57.9561C102.518 58.1573 100.9 57.9418 99.4092 56.8715C97.8961 55.793 96.8204 54.4281 96.2138 52.7246C95.6535 51.1774 95.5407 49.6011 96.313 48.0648L96.3244 48.0689Z" fill="#F0EFEF"/>
</svg>
